<svg width="22" height="17" viewBox="0 0 22 17" fill="none" xmlns="http://www.w3.org/2000/svg">
<path d="M14 10.2794C11.33 10.2794 6 11.6094 6 14.2794V16.2794H22V14.2794C22 11.6094 16.67 10.2794 14 10.2794ZM5 6.27942V3.27942H3V6.27942H0V8.27942H3V11.2794H5V8.27942H8V6.27942M14 8.27942C15.0609 8.27942 16.0783 7.85799 16.8284 7.10785C17.5786 6.3577 18 5.34028 18 4.27942C18 3.21855 17.5786 2.20114 16.8284 1.45099C16.0783 0.700846 15.0609 0.279419 14 0.279419C12.9391 0.279419 11.9217 0.700846 11.1716 1.45099C10.4214 2.20114 10 3.21855 10 4.27942C10 5.34028 10.4214 6.3577 11.1716 7.10785C11.9217 7.85799 12.9391 8.27942 14 8.27942Z" fill="white"/>
</svg>
