<svg width="19" height="16" viewBox="0 0 19 16" fill="none" xmlns="http://www.w3.org/2000/svg">
<path d="M1.99994 6.19821L1.29294 6.90521L0.585938 6.19821L1.29294 5.49121L1.99994 6.19821ZM18.9999 14.1982C18.9999 14.4634 18.8946 14.7178 18.707 14.9053C18.5195 15.0929 18.2652 15.1982 17.9999 15.1982C17.7347 15.1982 17.4804 15.0929 17.2928 14.9053C17.1053 14.7178 16.9999 14.4634 16.9999 14.1982H18.9999ZM6.29294 11.9052L1.29294 6.90521L2.70694 5.49121L7.70694 10.4912L6.29294 11.9052ZM1.29294 5.49121L6.29294 0.491211L7.70694 1.90521L2.70694 6.90521L1.29294 5.49121ZM1.99994 5.19821H11.9999V7.19821H1.99994V5.19821ZM18.9999 12.1982V14.1982H16.9999V12.1982H18.9999ZM11.9999 5.19821C13.8565 5.19821 15.6369 5.93571 16.9497 7.24846C18.2624 8.56122 18.9999 10.3417 18.9999 12.1982H16.9999C16.9999 10.8721 16.4732 9.60036 15.5355 8.66268C14.5978 7.72499 13.326 7.19821 11.9999 7.19821V5.19821Z" fill="black"/>
</svg>
