<svg width="13" height="13" viewBox="0 0 13 13" fill="none" xmlns="http://www.w3.org/2000/svg">
<g clip-path="url(#clip0_733_32603)">
<path d="M6.36755 0.616782C3.03189 0.569827 0.554566 3.42655 0.720786 6.48141C0.917056 10.0791 3.48923 11.8868 6.49808 11.8662C9.65906 11.8446 12.0575 9.60389 11.9918 6.2194C11.927 2.84055 9.44213 0.660919 6.36755 0.616782Z" fill="#C8C8C8"/>
<path d="M3.72941 1.6634C1.39483 3.00161 -0.0870614 6.7946 2.39965 9.66447C2.70392 10.0157 3.18755 10.2608 3.55474 10.4279C6.06211 11.5614 9.09632 9.81848 10.2702 8.48966C11.2018 7.43506 11.5445 6.73544 11.4337 5.29581C11.3483 4.17641 10.8693 3.09552 9.8767 2.29635C7.63227 0.485781 5.21223 0.812585 3.72941 1.6634Z" fill="white"/>
<path d="M6.07966 3.97191C6.0712 3.96721 5.20254 3.46856 4.52828 3.21876C3.82584 2.95863 3.30746 2.8187 3.30182 2.81777L3.39855 2.45528C3.42015 2.46091 3.93853 2.5999 4.65881 2.86754C5.36313 3.1286 6.23085 3.62632 6.26747 3.64792L6.07966 3.97191ZM7.60728 2.99187L8.11842 1.16797L8.48016 1.2693L7.96911 3.0932L7.60728 2.99187ZM11.4043 5.35519C11.3996 5.35331 10.9 5.16362 10.3422 5.01242C9.92242 4.89879 9.3815 4.78328 9.37587 4.78235L9.45381 4.41516C9.47635 4.41986 10.0098 4.53349 10.4399 4.64993C11.0174 4.80582 11.517 4.99646 11.5386 5.00397L11.4043 5.35519ZM8.44898 9.04019C8.44898 9.03455 8.40203 8.46171 8.28934 7.87571C8.17759 7.29723 7.96441 6.75256 7.96253 6.74787L8.31188 6.60982C8.32127 6.6333 8.54008 7.19112 8.6584 7.80528C8.77485 8.41288 8.8218 8.98666 8.82368 9.01108L8.44898 9.04019ZM10.3168 9.56232L10.0689 9.27966C10.0727 9.27684 10.4333 8.95755 10.8784 8.35653C11.2897 7.80059 11.4794 7.31414 11.4813 7.3085L11.8316 7.44279C11.8231 7.46439 11.6212 7.98277 11.1799 8.57909C10.7094 9.2158 10.3328 9.54824 10.3168 9.56232ZM3.44522 7.64282L5.61856 5.70294L5.86874 5.98316L3.6953 7.92305L3.44522 7.64282ZM1.57295 7.1235C1.56732 7.08688 1.44336 6.21822 1.44336 5.42375C1.44336 4.63115 1.53351 3.89772 1.53821 3.86673L1.91103 3.91369C1.91009 3.9212 1.81994 4.65557 1.81994 5.42375C1.81994 6.19004 1.94483 7.06152 1.94577 7.06997L1.57295 7.1235ZM7.05631 10.908C7.03283 10.9052 6.45999 10.8329 5.46925 10.5418C4.83818 10.3559 4.11695 9.97459 4.08596 9.95862L4.26251 9.62712C4.27003 9.63088 4.98092 10.0075 5.57536 10.1821C6.53324 10.4639 7.09669 10.5352 7.10233 10.5362L7.05631 10.908Z" fill="#171717"/>
<path d="M5.37327 3.30791C5.34415 3.38116 5.38266 5.99653 5.44182 6.07448C5.50098 6.15242 8.13044 7.0455 8.24783 7.01639C8.36521 6.98727 9.76822 4.77947 9.76822 4.69119C9.76822 4.60292 8.04217 2.474 7.95389 2.45428C7.86562 2.43456 5.41271 3.20931 5.37327 3.30791ZM11.3825 3.62908C11.3825 3.62908 10.9956 4.91658 10.9956 5.01518C10.9956 5.11285 11.2313 5.65282 11.3393 6.31958C11.4473 6.98633 11.2905 7.98741 11.359 8.02685C11.4276 8.06629 11.7675 8.04657 11.7675 8.04657C11.7675 8.04657 12.0953 7.01639 11.9572 5.69227C11.8192 4.36721 11.3825 3.62908 11.3825 3.62908ZM8.59153 8.75277C8.51265 8.76028 6.44289 10.538 6.45228 10.5878C6.46167 10.6366 7.26272 11.817 7.26272 11.817C7.26272 11.817 8.26943 11.7372 9.19161 11.2376C10.1138 10.738 10.4641 10.2938 10.4641 10.2938C10.4641 10.2938 10.5918 9.1068 10.543 9.09741C10.4951 9.08614 8.69014 8.74337 8.59153 8.75277ZM1.68451 6.53557C1.63099 6.57971 1.32109 7.26149 1.23281 7.64464C1.14454 8.02685 1.0957 8.39028 1.0957 8.39028C1.0957 8.39028 1.33142 9.07206 1.68451 9.57729C2.12213 10.2027 2.69122 10.6441 2.69122 10.6441C2.69122 10.6441 4.54874 10.0778 4.55907 9.99894C4.5694 9.92006 4.34308 9.23358 4.18625 8.66449C4.02943 8.0954 4.00031 7.45776 3.94115 7.41832C3.88199 7.37887 3.28379 7.19293 2.8133 7.00605C2.34282 6.81918 1.74368 6.48674 1.68451 6.53557ZM1.10228 4.16812C1.10228 4.16812 1.61596 4.61231 1.69484 4.61231C1.77373 4.61231 2.27145 3.95307 2.77386 3.55301C3.45095 3.01304 3.78432 2.83649 3.79465 2.76793C3.80404 2.69938 4.09892 1.06066 4.09892 1.06066C4.09892 1.06066 3.00957 1.47292 2.2151 2.38478C1.42063 3.29664 1.10228 4.16812 1.10228 4.16812ZM6.65794 0.623047C6.65794 0.623047 7.28432 0.945155 7.51252 1.10386C7.74072 1.26257 8.07691 1.59876 8.17646 1.60909C8.27506 1.61942 9.63768 1.62036 9.63768 1.62036C9.63768 1.62036 9.01976 1.19777 8.33516 0.955485C7.51158 0.663428 6.65794 0.623047 6.65794 0.623047Z" fill="#1E1E1E"/>
</g>
<defs>
<clipPath id="clip0_733_32603">
<rect width="12.0204" height="12.0204" fill="white" transform="translate(0.361328 0.235352)"/>
</clipPath>
</defs>
</svg>
