<svg width="18" height="19" viewBox="0 0 18 19" fill="none" xmlns="http://www.w3.org/2000/svg">
<path fill-rule="evenodd" clip-rule="evenodd" d="M4.5 0.52832V2.02832H0.75C0.551088 2.02832 0.360322 2.10734 0.21967 2.24799C0.0790178 2.38864 0 2.57941 0 2.77832V17.7783C0 17.9772 0.0790178 18.168 0.21967 18.3087C0.360322 18.4493 0.551088 18.5283 0.75 18.5283H17.25C17.4489 18.5283 17.6397 18.4493 17.7803 18.3087C17.921 18.168 18 17.9772 18 17.7783V2.77832C18 2.57941 17.921 2.38864 17.7803 2.24799C17.6397 2.10734 17.4489 2.02832 17.25 2.02832H13.5V0.52832H12V2.02832H6V0.52832H4.5ZM1.5 3.52832H4.5V5.02832H6V3.52832H12V5.02832H13.5V3.52832H16.5V6.52832H1.5V3.52832ZM3.75 10.2783V11.7783H5.25V10.2783H3.75ZM8.25 10.2783V11.7783H9.75V10.2783H8.25ZM12.75 11.7783V10.2783H14.25V11.7783H12.75ZM3.75 13.2783V14.7783H5.25V13.2783H3.75ZM8.25 14.7783V13.2783H9.75V14.7783H8.25ZM12.75 13.2783V14.7783H14.25V13.2783H12.75Z" fill="#2C2C2C"/>
</svg>
