<svg width="24" height="25" viewBox="0 0 24 25" fill="none" xmlns="http://www.w3.org/2000/svg">
<g clip-path="url(#clip0_613_75456)">
<path d="M15.2881 14.9314C15.1414 14.8834 14.2137 14.4652 14.7934 12.7031H14.785C16.2961 11.1467 17.4509 8.64244 17.4509 6.1769C17.4509 2.38582 14.93 0.398438 12.0001 0.398438C9.06843 0.398438 6.56136 2.3849 6.56136 6.1769C6.56136 8.65259 7.70966 11.1671 9.22997 12.7197C9.82259 14.2741 8.76289 14.8511 8.54135 14.9314C5.47305 16.0418 1.87305 18.0643 1.87305 20.0609V20.8095C1.87305 23.5298 7.14751 24.1483 12.0287 24.1483C16.9174 24.1483 22.1254 23.5298 22.1254 20.8095V20.0609C22.1254 18.0043 18.5078 15.9975 15.2881 14.9314ZM10.1964 22.9704C10.1964 20.6175 11.6946 17.4412 11.6946 17.4412L10.658 16.628C10.658 15.8507 11.9992 15.0375 11.9992 15.0375C11.9992 15.0375 13.3367 15.8637 13.3367 16.628L12.3038 17.4412C12.3038 17.4412 13.802 20.6055 13.802 22.9963C13.802 23.371 10.1964 23.2843 10.1964 22.9704Z" fill="#5A5A5A"/>
</g>
<defs>
<clipPath id="clip0_613_75456">
<rect width="24" height="24" fill="white" transform="translate(0 0.254883)"/>
</clipPath>
</defs>
</svg>
