<svg width="17" height="17" viewBox="0 0 17 17" fill="none" xmlns="http://www.w3.org/2000/svg">
<path d="M9.271 7.50903C8.91006 7.50903 8.63037 7.78872 8.63037 8.13403C8.63037 8.47935 8.91006 8.75903 9.271 8.75903C9.60068 8.75903 9.88037 8.47935 9.88037 8.13403C9.88037 7.78872 9.60068 7.50903 9.271 7.50903ZM4.896 7.50903C4.53506 7.50903 4.25537 7.78872 4.25537 8.13403C4.25537 8.47935 4.53506 8.75903 4.896 8.75903C5.22568 8.75903 5.50537 8.47935 5.50537 8.13403C5.50537 7.78872 5.22568 7.50903 4.896 7.50903Z" fill="#1E1E1E"/>
<path d="M14.2864 6.3215C13.5349 5.29025 12.4848 4.60119 11.3333 4.29025V4.29181C11.0661 3.99494 10.7645 3.7215 10.427 3.47775C7.86922 1.61837 4.2786 2.18556 2.41141 4.74337C0.906725 6.8215 0.970788 9.61681 2.50516 11.6027L2.51766 13.6746C2.51766 13.7246 2.52548 13.7746 2.5411 13.8215C2.62391 14.0856 2.90516 14.2309 3.16766 14.1481L5.14579 13.5246C5.66922 13.7106 6.20985 13.8168 6.74735 13.8465L6.73954 13.8527C8.13173 14.8668 9.95673 15.1715 11.6302 14.6184L13.6161 15.2653C13.6661 15.2809 13.7177 15.2902 13.7708 15.2902C14.0473 15.2902 14.2708 15.0668 14.2708 14.7902V12.6965C15.6473 10.8278 15.6833 8.24494 14.2864 6.3215ZM5.36454 12.4152L5.17704 12.3371L3.63016 12.8215L3.61454 11.1965L3.48954 11.0559C2.16766 9.44337 2.08016 7.11994 3.31766 5.41525C4.82391 3.34962 7.71141 2.89337 9.77079 4.384C11.8364 5.88556 12.2942 8.76837 10.802 10.8215C9.55048 12.5387 7.30985 13.1731 5.36454 12.4152ZM13.2552 12.1496L13.1302 12.3059L13.1458 13.9309L11.6145 13.4152L11.427 13.4934C10.552 13.8184 9.61923 13.8449 8.75516 13.6027L8.75204 13.6012C9.90672 13.2465 10.9536 12.5278 11.7083 11.4934C12.902 9.84806 13.0958 7.78088 12.402 6.01837L12.4114 6.02462C12.7708 6.28244 13.1005 6.60431 13.3802 6.99337C14.5145 8.54962 14.4505 10.6684 13.2552 12.1496Z" fill="#1E1E1E"/>
<path d="M7.0835 7.50903C6.72256 7.50903 6.44287 7.78872 6.44287 8.13403C6.44287 8.47935 6.72256 8.75903 7.0835 8.75903C7.41318 8.75903 7.69287 8.47935 7.69287 8.13403C7.69287 7.78872 7.41318 7.50903 7.0835 7.50903Z" fill="#1E1E1E"/>
</svg>
