<svg width="6" height="7" viewBox="0 0 6 7" fill="none" xmlns="http://www.w3.org/2000/svg">
<path d="M3 0.138306C2.40666 0.138306 1.82664 0.314253 1.33329 0.643897C0.839943 0.973541 0.455426 1.44208 0.228363 1.99026C0.00129986 2.53843 -0.0581102 3.14163 0.0576455 3.72358C0.173401 4.30552 0.459123 4.84007 0.878681 5.25963C1.29824 5.67918 1.83279 5.96491 2.41473 6.08066C2.99667 6.19642 3.59987 6.13701 4.14805 5.90994C4.69623 5.68288 5.16477 5.29836 5.49441 4.80502C5.82405 4.31167 6 3.73165 6 3.13831C6 2.34266 5.68393 1.57959 5.12132 1.01699C4.55871 0.454376 3.79565 0.138306 3 0.138306ZM3 3.88831C2.85167 3.88831 2.70666 3.84432 2.58332 3.76191C2.45999 3.6795 2.36386 3.56236 2.30709 3.42532C2.25033 3.28827 2.23547 3.13747 2.26441 2.99199C2.29335 2.8465 2.36478 2.71286 2.46967 2.60798C2.57456 2.50309 2.7082 2.43166 2.85368 2.40272C2.99917 2.37378 3.14997 2.38863 3.28701 2.4454C3.42406 2.50216 3.54119 2.59829 3.6236 2.72163C3.70601 2.84496 3.75 2.98997 3.75 3.13831C3.75 3.33722 3.67098 3.52798 3.53033 3.66864C3.38968 3.80929 3.19891 3.88831 3 3.88831Z" fill="#5A5A5A"/>
</svg>
