<svg width="20" height="21" viewBox="0 0 20 21" fill="none" xmlns="http://www.w3.org/2000/svg">
<path d="M18.3333 6.22852V14.5618C18.3333 15.1144 18.1138 15.6443 17.7231 16.035C17.3324 16.4257 16.8025 16.6452 16.25 16.6452H3.74999C3.19746 16.6452 2.66755 16.4257 2.27685 16.035C1.88615 15.6443 1.66666 15.1144 1.66666 14.5618V6.22852" stroke="#757575" stroke-width="1.4" stroke-linecap="round" stroke-linejoin="round"/>
<path d="M18.3333 6.22884C18.3333 5.67631 18.1138 5.1464 17.7231 4.7557C17.3324 4.365 16.8025 4.14551 16.25 4.14551H3.74999C3.19746 4.14551 2.66755 4.365 2.27685 4.7557C1.88615 5.1464 1.66666 5.67631 1.66666 6.22884L8.89582 10.7427C9.22693 10.9497 9.60953 11.0594 9.99999 11.0594C10.3904 11.0594 10.773 10.9497 11.1042 10.7427L18.3333 6.22884Z" stroke="#757575" stroke-width="1.4" stroke-linecap="round" stroke-linejoin="round"/>
</svg>
