<svg width="12" height="12" viewBox="0 0 12 12" fill="none" xmlns="http://www.w3.org/2000/svg">
<path d="M5.89193 0.986328V7.99623L4.90839 8.51691C4.82616 8.77153 4.69114 9.00595 4.51217 9.20486L6.10322 8.3625L8.58036 9.67394C7.03663 10.4387 5.28938 10.456 3.73624 9.72657C3.53149 9.79991 3.31562 9.83736 3.09813 9.83727C2.9164 9.83725 2.73562 9.81106 2.56137 9.75949L0.515625 10.8425V11.3206L3.17356 9.91348C5.01657 10.937 7.18987 10.937 9.03288 9.91348L11.6908 11.3206V10.8425L6.31452 7.99623V3.61006C6.91307 3.57977 7.19027 3.43773 7.60577 3.61579C8.29588 4.15975 9.10832 4.7427 9.85959 4.7427L9.48395 3.99142C8.35704 3.99142 8.22303 1.87072 7.60577 1.36196C7.15536 1.09573 6.90629 1.00478 6.31452 0.989145V0.986328H5.89193ZM2.83901 6.47943C2.49226 6.54019 2.17871 6.72304 1.95509 6.99492L1.97122 6.99652L2.10405 7.60669L1.62018 7.88924C1.61972 7.90469 1.61906 7.92007 1.61906 7.93561C1.61906 8.16092 1.66916 8.37405 1.75851 8.5648L1.79443 8.49906L2.40825 8.61394L2.48868 9.2332L2.43506 9.25867C2.63431 9.35833 2.85936 9.41468 3.09813 9.41468C3.17419 9.41468 3.24885 9.40895 3.32175 9.39801L3.17485 9.24264L3.47376 8.6943L4.0876 8.8091L4.11399 9.01195C4.35128 8.78797 4.51404 8.48617 4.56217 8.14634L4.38309 8.2375L3.94153 7.7959L4.22504 7.23951L4.42013 7.2704C4.27595 6.98349 4.04225 6.75133 3.75439 6.60905L3.7566 6.63605L3.1803 6.87669L2.83901 6.47943ZM3.09813 7.37215L3.53974 7.81376L3.25618 8.37017L2.63943 8.27251L2.54169 7.65566L3.09813 7.37215Z" fill="#008751"/>
</svg>
