<svg width="32" height="32" viewBox="0 0 32 32" fill="none" xmlns="http://www.w3.org/2000/svg">
<path d="M26.6666 23.3334C27.1803 23.3336 27.6741 23.5315 28.0458 23.8859C28.4176 24.2403 28.6387 24.7242 28.6633 25.2372C28.688 25.7503 28.5144 26.2531 28.1784 26.6416C27.8424 27.0301 27.3699 27.2745 26.8586 27.324L26.6666 27.3334H5.33331C4.81969 27.3331 4.32585 27.1353 3.95413 26.7808C3.58241 26.4264 3.3613 25.9425 3.33661 25.4295C3.31193 24.9164 3.48557 24.4136 3.82155 24.0251C4.15753 23.6366 4.63009 23.3922 5.14131 23.3427L5.33331 23.3334H26.6666ZM26.6666 14C27.1971 14 27.7058 14.2107 28.0809 14.5858C28.4559 14.9609 28.6666 15.4696 28.6666 16C28.6666 16.5305 28.4559 17.0392 28.0809 17.4142C27.7058 17.7893 27.1971 18 26.6666 18H5.33331C4.80288 18 4.29417 17.7893 3.9191 17.4142C3.54403 17.0392 3.33331 16.5305 3.33331 16C3.33331 15.4696 3.54403 14.9609 3.9191 14.5858C4.29417 14.2107 4.80288 14 5.33331 14H26.6666ZM26.6666 4.66669C27.1971 4.66669 27.7058 4.8774 28.0809 5.25247C28.4559 5.62755 28.6666 6.13625 28.6666 6.66669C28.6666 7.19712 28.4559 7.70583 28.0809 8.0809C27.7058 8.45597 27.1971 8.66669 26.6666 8.66669H5.33331C4.80288 8.66669 4.29417 8.45597 3.9191 8.0809C3.54403 7.70583 3.33331 7.19712 3.33331 6.66669C3.33331 6.13625 3.54403 5.62755 3.9191 5.25247C4.29417 4.8774 4.80288 4.66669 5.33331 4.66669H26.6666Z" fill="white"/>
</svg>
