<svg width="25" height="25" viewBox="0 0 25 25" fill="none" xmlns="http://www.w3.org/2000/svg">
<path d="M13.528 2.2793C14.653 2.2823 15.224 2.2883 15.717 2.3023L15.911 2.3093C16.135 2.3173 16.356 2.3273 16.623 2.3393C17.687 2.3893 18.413 2.5573 19.05 2.8043C19.71 3.0583 20.266 3.4023 20.822 3.9573C21.3307 4.45703 21.7242 5.06177 21.975 5.7293C22.222 6.3663 22.39 7.0923 22.44 8.1573C22.452 8.4233 22.462 8.6443 22.47 8.8693L22.476 9.0633C22.491 9.5553 22.497 10.1263 22.499 11.2513L22.5 11.9973V13.3073C22.5025 14.0367 22.4948 14.7661 22.477 15.4953L22.471 15.6893C22.463 15.9143 22.453 16.1353 22.441 16.4013C22.391 17.4663 22.221 18.1913 21.975 18.8293C21.7242 19.4968 21.3307 20.1016 20.822 20.6013C20.3223 21.11 19.7175 21.5035 19.05 21.7543C18.413 22.0013 17.687 22.1693 16.623 22.2193L15.911 22.2493L15.717 22.2553C15.224 22.2693 14.653 22.2763 13.528 22.2783L12.782 22.2793H11.473C10.7433 22.2819 10.0135 22.2742 9.28402 22.2563L9.09002 22.2503C8.85263 22.2413 8.61529 22.231 8.37802 22.2193C7.31402 22.1693 6.58802 22.0013 5.95002 21.7543C5.28285 21.5034 4.67846 21.1099 4.17902 20.6013C3.66996 20.1017 3.27613 19.4969 3.02502 18.8293C2.77802 18.1923 2.61002 17.4663 2.56002 16.4013L2.53002 15.6893L2.52502 15.4953C2.50659 14.7661 2.49825 14.0367 2.50002 13.3073V11.2513C2.49725 10.5219 2.50459 9.79249 2.52202 9.0633L2.52902 8.8693C2.53702 8.6443 2.54702 8.4233 2.55902 8.1573C2.60902 7.0923 2.77702 6.3673 3.02402 5.7293C3.27571 5.0615 3.67024 4.45673 4.18002 3.9573C4.67917 3.44885 5.28321 3.05537 5.95002 2.8043C6.58802 2.5573 7.31302 2.3893 8.37802 2.3393C8.64402 2.3273 8.86602 2.3173 9.09002 2.3093L9.28402 2.3033C10.0132 2.28553 10.7426 2.27786 11.472 2.2803L13.528 2.2793ZM12.5 7.2793C11.1739 7.2793 9.90217 7.80608 8.96448 8.74376C8.0268 9.68145 7.50002 10.9532 7.50002 12.2793C7.50002 13.6054 8.0268 14.8771 8.96448 15.8148C9.90217 16.7525 11.1739 17.2793 12.5 17.2793C13.8261 17.2793 15.0979 16.7525 16.0356 15.8148C16.9732 14.8771 17.5 13.6054 17.5 12.2793C17.5 10.9532 16.9732 9.68145 16.0356 8.74376C15.0979 7.80608 13.8261 7.2793 12.5 7.2793ZM12.5 9.2793C12.894 9.27923 13.2841 9.35676 13.6481 9.50747C14.0121 9.65817 14.3429 9.87909 14.6215 10.1576C14.9001 10.4362 15.1211 10.7668 15.272 11.1308C15.4228 11.4947 15.5005 11.8848 15.5005 12.2788C15.5006 12.6728 15.4231 13.0629 15.2723 13.4269C15.1216 13.7909 14.9007 14.1216 14.6222 14.4003C14.3437 14.6789 14.013 14.8999 13.649 15.0507C13.2851 15.2016 12.895 15.2792 12.501 15.2793C11.7054 15.2793 10.9423 14.9632 10.3797 14.4006C9.81709 13.838 9.50102 13.0749 9.50102 12.2793C9.50102 11.4836 9.81709 10.7206 10.3797 10.158C10.9423 9.59537 11.7054 9.2793 12.501 9.2793M17.751 5.7793C17.4195 5.7793 17.1016 5.91099 16.8671 6.14541C16.6327 6.37983 16.501 6.69778 16.501 7.0293C16.501 7.36082 16.6327 7.67876 16.8671 7.91318C17.1016 8.1476 17.4195 8.2793 17.751 8.2793C18.0825 8.2793 18.4005 8.1476 18.6349 7.91318C18.8693 7.67876 19.001 7.36082 19.001 7.0293C19.001 6.69778 18.8693 6.37983 18.6349 6.14541C18.4005 5.91099 18.0825 5.7793 17.751 5.7793Z" fill="#5A5A5A"/>
</svg>
