<svg width="14" height="16" viewBox="0 0 14 16" fill="none" xmlns="http://www.w3.org/2000/svg">
<path d="M1.12891 6.75355L1.62691 6.71089C1.61543 6.58283 1.55506 6.46411 1.45835 6.3794C1.36163 6.29468 1.236 6.25048 1.10755 6.25597C0.979092 6.26147 0.857691 6.31623 0.768558 6.40889C0.679425 6.50155 0.629412 6.62498 0.628906 6.75355H1.12891ZM12.6196 7.96888L12.1489 10.6889L13.1349 10.8596L13.6049 8.13955L12.6196 7.96888ZM7.95891 14.0976H4.85957V15.0976H7.95891V14.0976ZM4.25224 13.5396L3.71091 7.27755L2.71424 7.36355L3.25624 13.6256L4.25224 13.5396ZM12.1489 10.6889C11.8109 12.6422 10.0496 14.0976 7.95891 14.0976V15.0976C10.5096 15.0976 12.7096 13.3182 13.1349 10.8596L12.1489 10.6889ZM7.96557 3.33088L7.52357 6.02755L8.51024 6.18888L8.95224 3.49289L7.96557 3.33088ZM3.92091 6.76155L4.88024 5.93489L4.22691 5.17755L3.26891 6.00422L3.92091 6.76155ZM6.62491 3.24555L6.94224 2.02289L5.97424 1.77222L5.65691 2.99422L6.62491 3.24555ZM7.42091 1.78289L7.51757 1.81422L7.82357 0.862218L7.72691 0.830885L7.42091 1.78289ZM6.14424 4.47488C6.35236 4.08549 6.51371 3.67285 6.62491 3.24555L5.65691 2.99422C5.56505 3.34508 5.4326 3.68403 5.26224 4.00422L6.14424 4.47488ZM7.51757 1.81422C7.61255 1.84332 7.6987 1.89581 7.76812 1.96686C7.83754 2.03791 7.88801 2.12526 7.91491 2.22089L8.88291 1.97022C8.8143 1.71108 8.68117 1.47356 8.49592 1.2798C8.31068 1.08605 8.07937 0.942382 7.82357 0.862218L7.51757 1.81422ZM6.94224 2.02289C6.95573 1.97496 6.97939 1.93051 7.0116 1.89254C7.04381 1.85458 7.08382 1.824 7.12891 1.80289L6.69491 0.902218C6.34024 1.07289 6.07357 1.38889 5.97424 1.77222L6.94224 2.02289ZM7.12891 1.80289C7.22022 1.75957 7.32454 1.75242 7.42091 1.78289L7.72691 0.830885C7.38642 0.722039 7.01718 0.747561 6.69491 0.902218L7.12891 1.80289ZM8.56491 7.25355H12.0182V6.25355H8.56491V7.25355ZM2.27491 14.2016L1.62691 6.71089L0.630906 6.79688L1.27757 14.2876L2.27491 14.2016ZM1.62891 14.2729V6.75355H0.628906V14.2729H1.62891ZM1.27757 14.2876C1.27554 14.2633 1.27923 14.2389 1.28713 14.2159C1.29502 14.1929 1.30762 14.1718 1.32411 14.154C1.34059 14.1361 1.36062 14.1219 1.38291 14.1122C1.40519 14.1024 1.42926 14.0975 1.45357 14.0976V15.0976C1.93757 15.0976 2.31624 14.6829 2.27491 14.2016L1.27757 14.2876ZM8.95224 3.49289C9.03604 2.98608 9.01242 2.46731 8.88291 1.97022L7.91491 2.22155C8.00946 2.58368 8.02672 2.96165 7.96557 3.33088L8.95224 3.49289ZM4.85957 14.0976C4.70691 14.0973 4.55989 14.0399 4.44747 13.9366C4.33506 13.8333 4.26541 13.6916 4.25224 13.5396L3.25624 13.6256C3.29093 14.027 3.47483 14.4009 3.77164 14.6734C4.06846 14.9459 4.45664 15.0972 4.85957 15.0976V14.0976ZM4.88024 5.93489C5.33357 5.54422 5.82157 5.07955 6.14491 4.47488L5.26224 4.00422C5.03157 4.43689 4.66424 4.80155 4.22691 5.17755L4.88024 5.93489ZM13.6049 8.13955C13.645 7.90821 13.6341 7.67089 13.5729 7.44421C13.5117 7.21754 13.4016 7.00699 13.2505 6.82732C13.0993 6.64765 12.9107 6.5032 12.6978 6.40408C12.485 6.30497 12.253 6.25359 12.0182 6.25355V7.25355C12.3962 7.25355 12.6849 7.59488 12.6196 7.96888L13.6049 8.13955ZM1.45357 14.0976C1.55091 14.0976 1.62891 14.1762 1.62891 14.2729H0.628906C0.628906 14.7276 0.997573 15.0976 1.45357 15.0976V14.0976ZM7.52357 6.02755C7.49872 6.17861 7.50703 6.33326 7.54792 6.48078C7.58881 6.6283 7.6613 6.76516 7.76037 6.88186C7.85945 6.99857 7.98272 7.09232 8.12164 7.15662C8.26057 7.22091 8.41182 7.25355 8.56491 7.25355V6.25355C8.55677 6.25359 8.54873 6.2525 8.54135 6.24907C8.53398 6.24564 8.52744 6.24063 8.52222 6.23439C8.517 6.22816 8.51322 6.22084 8.51115 6.21298C8.50908 6.20511 8.50877 6.19689 8.51024 6.18888L7.52357 6.02755ZM3.71091 7.27755C3.70277 7.18102 3.71696 7.08393 3.75358 6.99424C3.79019 6.90455 3.84754 6.82481 3.92091 6.76155L3.26757 6.00355C3.07434 6.17031 2.92342 6.38053 2.82723 6.61696C2.73104 6.85338 2.69231 7.10925 2.71424 7.36355L3.71091 7.27755Z" fill="#1E1E1E"/>
</svg>
