<svg width="25" height="25" viewBox="0 0 25 25" fill="none" xmlns="http://www.w3.org/2000/svg">
<path fill-rule="evenodd" clip-rule="evenodd" d="M5 1.7793C4.20435 1.7793 3.44129 2.09537 2.87868 2.65798C2.31607 3.22059 2 3.98365 2 4.7793V19.7793C2 20.5749 2.31607 21.338 2.87868 21.9006C3.44129 22.4632 4.20435 22.7793 5 22.7793H20C20.7956 22.7793 21.5587 22.4632 22.1213 21.9006C22.6839 21.338 23 20.5749 23 19.7793V4.7793C23 3.98365 22.6839 3.22059 22.1213 2.65798C21.5587 2.09537 20.7956 1.7793 20 1.7793H5ZM6.653 8.2248C7.1284 8.2248 7.58433 8.03594 7.92049 7.69979C8.25665 7.36363 8.4455 6.9077 8.4455 6.4323C8.4455 5.9569 8.25665 5.50097 7.92049 5.16481C7.58433 4.82865 7.1284 4.6398 6.653 4.6398C6.1776 4.6398 5.72167 4.82865 5.38551 5.16481C5.04935 5.50097 4.8605 5.9569 4.8605 6.4323C4.8605 6.9077 5.04935 7.36363 5.38551 7.69979C5.72167 8.03594 6.1776 8.2248 6.653 8.2248ZM8.153 19.4988V9.6303H5.153V19.4988H8.153ZM10.145 9.6303H13.145V10.9518C13.5875 10.2588 14.5595 9.3258 16.367 9.3258C18.524 9.3258 19.6955 10.7553 19.6955 13.4748C19.6955 13.6053 19.7075 14.2008 19.7075 14.2008V19.4973H16.7075V14.2023C16.7075 13.4748 16.5545 12.0453 14.9375 12.0453C13.319 12.0453 13.1825 13.8423 13.145 15.0183V19.4973H10.145V9.6303Z" fill="#5A5A5A"/>
</svg>
