<svg width="16" height="20" viewBox="0 0 16 20" fill="none" xmlns="http://www.w3.org/2000/svg">
<path d="M14.337 13.9258C14.537 14.0133 14.687 14.1321 14.787 14.2821C14.887 14.4321 14.9589 14.6133 15.0026 14.8258C15.0276 14.9508 15.0558 15.0665 15.087 15.1727C15.1183 15.279 15.1558 15.379 15.1995 15.4727C15.2433 15.5665 15.2933 15.6571 15.3495 15.7446C15.4058 15.8321 15.4808 15.929 15.5745 16.0352C15.6558 16.1227 15.7276 16.2352 15.7901 16.3727C15.8526 16.5102 15.8839 16.6415 15.8839 16.7665C15.8839 16.9102 15.8464 17.0321 15.7714 17.1321C15.6964 17.2321 15.6026 17.3196 15.4901 17.3946C15.3464 17.4946 15.1964 17.5821 15.0401 17.6571C14.8839 17.7321 14.7276 17.8102 14.5714 17.8915C14.3151 18.0165 14.0933 18.1477 13.9058 18.2852C13.7183 18.4227 13.5308 18.5977 13.3433 18.8102C13.2433 18.9227 13.1308 19.0321 13.0058 19.1383C12.8808 19.2446 12.7433 19.3446 12.5933 19.4383C12.4433 19.5321 12.2901 19.6008 12.1339 19.6446C11.9776 19.6883 11.8214 19.7165 11.6651 19.729C11.3026 19.729 11.0026 19.6665 10.7651 19.5415C10.5276 19.4165 10.3214 19.1883 10.1464 18.8571C10.0964 18.7633 10.0464 18.704 9.99639 18.679C9.94639 18.654 9.86514 18.6321 9.75264 18.6133C9.43389 18.5883 9.11826 18.5633 8.80576 18.5383C8.49326 18.5133 8.17451 18.5008 7.84951 18.5008C7.58701 18.5008 7.31826 18.5227 7.04326 18.5665C6.76826 18.6102 6.49639 18.6633 6.22764 18.7258C6.17139 18.7383 6.11514 18.7852 6.05889 18.8665C6.00264 18.9477 5.92451 19.0383 5.82451 19.1383C5.72451 19.2383 5.59014 19.3258 5.42139 19.4008C5.25264 19.4758 5.03076 19.5165 4.75576 19.5227C4.54951 19.5227 4.32764 19.5008 4.09014 19.4571C3.85264 19.4133 3.64014 19.3415 3.45264 19.2415C3.06514 19.0477 2.68389 18.9165 2.30889 18.8477C1.93389 18.779 1.53701 18.7165 1.11826 18.6602C0.974512 18.6415 0.837012 18.6165 0.705762 18.5852C0.574512 18.554 0.458887 18.5008 0.358887 18.4258C0.258887 18.3508 0.180762 18.2633 0.124512 18.1633C0.0682617 18.0633 0.0370117 17.9227 0.0307617 17.7415C0.0307617 17.5477 0.0557617 17.3602 0.105762 17.179C0.155762 16.9977 0.183887 16.8071 0.190137 16.6071C0.190137 16.4696 0.180762 16.3352 0.162012 16.204C0.143262 16.0727 0.130762 15.9321 0.124512 15.7821C0.124512 15.4633 0.199512 15.229 0.349512 15.079C0.499512 14.929 0.718262 14.8102 1.00576 14.7227C1.14326 14.679 1.26201 14.6196 1.36201 14.5446C1.46201 14.4696 1.55576 14.3883 1.64326 14.3008C1.73076 14.2133 1.81201 14.1165 1.88701 14.0102C1.96201 13.904 2.04639 13.7977 2.14014 13.6915C2.15889 13.6665 2.16826 13.6383 2.16826 13.6071C2.16826 13.5321 2.16514 13.4602 2.15889 13.3915C2.15264 13.3227 2.14639 13.2477 2.14014 13.1665C2.14014 12.7415 2.20576 12.3133 2.33701 11.8821C2.46826 11.4508 2.64014 11.029 2.85264 10.6165C3.06514 10.204 3.30264 9.80708 3.56514 9.42583C3.82764 9.04458 4.08701 8.69145 4.34326 8.36645C4.70576 7.90395 4.97764 7.4227 5.15889 6.9227C5.34014 6.4227 5.43389 5.87895 5.44014 5.29145C5.44014 5.04145 5.42764 4.79458 5.40264 4.55083C5.37764 4.30708 5.36514 4.05708 5.36514 3.80083C5.36514 3.30083 5.42139 2.85083 5.53389 2.45083C5.64639 2.05083 5.82139 1.70708 6.05889 1.41958C6.29639 1.13208 6.60576 0.916455 6.98701 0.772705C7.36826 0.628955 7.82451 0.55083 8.35576 0.53833C8.98701 0.53833 9.49014 0.66333 9.86514 0.91333C10.2401 1.16333 10.5276 1.49146 10.7276 1.8977C10.9276 2.30395 11.0558 2.75708 11.112 3.25708C11.1683 3.75708 11.1995 4.26333 11.2058 4.77583V4.9352C11.2058 5.19145 11.2089 5.41958 11.2151 5.61958C11.2214 5.81958 11.2464 6.01645 11.2901 6.2102C11.3339 6.40395 11.3995 6.5977 11.487 6.79145C11.5745 6.9852 11.7058 7.19458 11.8808 7.41958C12.1808 7.81333 12.487 8.2102 12.7995 8.6102C13.112 9.0102 13.3964 9.4227 13.6526 9.8477C13.9089 10.2727 14.1183 10.7165 14.2808 11.179C14.4433 11.6415 14.5276 12.1415 14.5339 12.679C14.5339 13.1102 14.4683 13.5258 14.337 13.9258ZM6.47139 4.15708C6.55889 4.15708 6.63076 4.17895 6.68701 4.2227C6.74326 4.26645 6.78701 4.32583 6.81826 4.40083C6.84951 4.47583 6.87139 4.55083 6.88389 4.62583C6.89639 4.70083 6.90264 4.77895 6.90264 4.8602C6.90264 4.9227 6.89326 4.9727 6.87451 5.0102C6.85576 5.0477 6.82764 5.08208 6.79014 5.11333C6.75264 5.14458 6.71514 5.17583 6.67764 5.20708C6.64014 5.23833 6.60264 5.27583 6.56514 5.31958C6.52139 5.38833 6.46201 5.44458 6.38701 5.48833C6.31201 5.53208 6.24014 5.57895 6.17139 5.62895C6.10264 5.67895 6.04014 5.73208 5.98389 5.78833C5.92764 5.84458 5.89951 5.9227 5.89951 6.0227C5.89951 6.07895 5.92764 6.12583 5.98389 6.16333C6.13389 6.26333 6.24014 6.3852 6.30264 6.52895C6.36514 6.6727 6.43389 6.81333 6.50889 6.95083C6.58389 7.08833 6.68076 7.20395 6.79951 7.2977C6.91826 7.39145 7.10264 7.43833 7.35264 7.43833H7.40889C7.65889 7.42583 7.89639 7.3602 8.12139 7.24145C8.34639 7.1227 8.57139 6.9977 8.79639 6.86645C8.82764 6.8477 8.86826 6.82895 8.91826 6.8102C8.96826 6.79145 9.00889 6.76958 9.04014 6.74458L9.72451 6.2102C9.73701 6.16645 9.74639 6.12583 9.75264 6.08833C9.75889 6.05083 9.76514 6.00708 9.77139 5.95708C9.77139 5.88833 9.75576 5.83208 9.72451 5.78833C9.69326 5.74458 9.65576 5.70708 9.61201 5.67583C9.56826 5.64458 9.51514 5.6227 9.45264 5.6102C9.39014 5.5977 9.33389 5.58208 9.28389 5.56333C9.13389 5.53208 8.99326 5.47583 8.86201 5.39458C8.73076 5.31333 8.59326 5.25083 8.44951 5.20708C8.42451 5.20083 8.40576 5.18208 8.39326 5.15083C8.38076 5.11958 8.36826 5.08208 8.35576 5.03833C8.34326 4.99458 8.34014 4.95395 8.34639 4.91645C8.35264 4.87895 8.34951 4.8477 8.33701 4.8227C8.33701 4.7477 8.34326 4.66958 8.35576 4.58833C8.36826 4.50708 8.39639 4.42895 8.44014 4.35395C8.48389 4.27895 8.53389 4.2227 8.59014 4.1852C8.64639 4.1477 8.72764 4.12583 8.83389 4.11958C9.02764 4.11958 9.16826 4.19145 9.25576 4.3352C9.34326 4.47895 9.39014 4.6352 9.39639 4.80395C9.39639 4.8852 9.38076 4.95708 9.34951 5.01958C9.31826 5.08208 9.30264 5.15083 9.30264 5.22583C9.30264 5.27583 9.31826 5.3102 9.34951 5.32895C9.38076 5.3477 9.42139 5.3602 9.47139 5.36645C9.61514 5.36645 9.70889 5.33208 9.75264 5.26333C9.79639 5.19458 9.82139 5.09145 9.82764 4.95395C9.82764 4.8102 9.81514 4.65083 9.79014 4.47583C9.76514 4.30083 9.71514 4.13833 9.64014 3.98833C9.56514 3.83833 9.46826 3.71333 9.34951 3.61333C9.23076 3.51333 9.07764 3.46333 8.89014 3.46333C8.56514 3.46333 8.33076 3.54458 8.18701 3.70708C8.04326 3.86958 7.96826 4.11333 7.96201 4.43833C7.96201 4.53208 7.96826 4.62583 7.98076 4.71958C7.99326 4.81333 7.99951 4.90708 7.99951 5.00083C7.99951 5.03208 7.99639 5.0477 7.99014 5.0477C7.98389 5.0477 7.96514 5.04145 7.93389 5.02895C7.90264 5.01645 7.86514 5.00083 7.82139 4.98208C7.77764 4.96333 7.73076 4.9477 7.68076 4.9352C7.63076 4.9227 7.58076 4.91645 7.53076 4.91645C7.51826 4.91645 7.48701 4.91958 7.43701 4.92583C7.38701 4.93208 7.33701 4.9352 7.28701 4.9352C7.19951 4.9352 7.15576 4.91958 7.15576 4.88833C7.15576 4.79458 7.14951 4.67583 7.13701 4.53208C7.12451 4.38833 7.09326 4.24458 7.04326 4.10083C6.99326 3.95708 6.93076 3.83833 6.85576 3.74458C6.78076 3.65083 6.66826 3.60083 6.51826 3.59458C6.41201 3.59458 6.32139 3.62895 6.24639 3.6977C6.17139 3.76645 6.10576 3.8477 6.04951 3.94145C5.99326 4.0352 5.95889 4.14145 5.94639 4.2602C5.93389 4.37895 5.92139 4.47895 5.90889 4.5602C5.90889 4.5977 5.91514 4.66333 5.92764 4.75708C5.94014 4.85083 5.96201 4.9477 5.99326 5.0477C6.02451 5.1477 6.05889 5.2352 6.09639 5.3102C6.13389 5.3852 6.17764 5.4227 6.22764 5.4227C6.25889 5.4227 6.29951 5.40083 6.34951 5.35708C6.39951 5.31333 6.42451 5.2727 6.42451 5.2352C6.42451 5.21645 6.41514 5.20395 6.39639 5.1977C6.37764 5.19145 6.35889 5.18833 6.34014 5.18833C6.29639 5.18833 6.25889 5.16645 6.22764 5.1227C6.19639 5.07895 6.17139 5.02895 6.15264 4.9727C6.13389 4.91645 6.11514 4.85708 6.09639 4.79458C6.07764 4.73208 6.07139 4.6852 6.07764 4.65395C6.07764 4.52895 6.10576 4.41645 6.16201 4.31645C6.21826 4.21645 6.32139 4.16333 6.47139 4.15708ZM4.42764 18.754C4.57764 18.754 4.72451 18.7415 4.86826 18.7165C5.01201 18.6915 5.14639 18.6415 5.27139 18.5665C5.39639 18.4915 5.49014 18.3946 5.55264 18.2758C5.61514 18.1571 5.65264 18.0071 5.66514 17.8258C5.66514 17.7133 5.64639 17.604 5.60889 17.4977C5.57139 17.3915 5.51826 17.2915 5.44951 17.1977C5.37451 17.079 5.29326 16.9665 5.20576 16.8602C5.11826 16.754 5.03701 16.6415 4.96201 16.5227C4.84326 16.3477 4.72764 16.1758 4.61514 16.0071C4.50264 15.8383 4.39014 15.6602 4.27764 15.4727C4.17764 15.3102 4.08389 15.1477 3.99639 14.9852C3.90889 14.8227 3.80264 14.6633 3.67764 14.5071C3.60264 14.4133 3.51514 14.329 3.41514 14.254C3.31514 14.179 3.19951 14.1415 3.06826 14.1415C2.93076 14.1415 2.81201 14.1852 2.71201 14.2727C2.61201 14.3602 2.50889 14.4665 2.40264 14.5915C2.29639 14.7165 2.17764 14.8383 2.04639 14.9571C1.91514 15.0758 1.74639 15.1696 1.54014 15.2383C1.37764 15.2883 1.25264 15.3571 1.16514 15.4446C1.07764 15.5321 1.03389 15.6665 1.03389 15.8477C1.03389 15.9727 1.04326 16.0977 1.06201 16.2227C1.08076 16.3477 1.09326 16.4727 1.09951 16.5977C1.09951 16.7665 1.07451 16.9258 1.02451 17.0758C0.974512 17.2258 0.949512 17.3727 0.949512 17.5165C0.949512 17.6852 1.00889 17.804 1.12764 17.8727C1.24639 17.9415 1.38076 17.9883 1.53076 18.0133C1.71826 18.0446 1.89639 18.0696 2.06514 18.0883C2.23389 18.1071 2.39951 18.1352 2.56201 18.1727C2.72451 18.2102 2.88701 18.2508 3.04951 18.2946C3.21201 18.3383 3.38389 18.4071 3.56514 18.5008C3.60264 18.5196 3.65889 18.5415 3.73389 18.5665C3.80889 18.5915 3.89326 18.6196 3.98701 18.6508C4.08076 18.6821 4.16826 18.7071 4.24951 18.7258C4.33076 18.7446 4.39014 18.754 4.42764 18.754ZM7.85889 17.629C8.03389 17.629 8.22139 17.6102 8.42139 17.5727C8.62139 17.5352 8.82139 17.4821 9.02139 17.4133C9.22139 17.3446 9.41201 17.2633 9.59326 17.1696C9.77451 17.0758 9.93701 16.9727 10.0808 16.8602C10.0933 16.8477 10.1058 16.829 10.1183 16.804C10.1308 16.779 10.1401 16.754 10.1464 16.729V16.7196C10.1839 16.5821 10.2151 16.4321 10.2401 16.2696C10.2651 16.1071 10.287 15.9415 10.3058 15.7727C10.3245 15.604 10.3464 15.4383 10.3714 15.2758C10.3964 15.1133 10.4183 14.954 10.437 14.7977C10.462 14.629 10.4933 14.4665 10.5308 14.3102C10.5683 14.154 10.6183 14.0071 10.6808 13.8696C10.7433 13.7321 10.8276 13.6102 10.9339 13.504C11.0401 13.3977 11.1776 13.2977 11.3464 13.204V13.1852L11.337 13.1571C11.337 13.1008 11.3558 13.0415 11.3933 12.979C11.4308 12.9165 11.4776 12.8508 11.5339 12.7821C11.5901 12.7133 11.6495 12.6602 11.712 12.6227C11.7745 12.5852 11.8401 12.554 11.9089 12.529C11.8714 12.379 11.8308 12.229 11.787 12.079C11.7433 11.929 11.7058 11.779 11.6745 11.629C11.637 11.404 11.5995 11.2133 11.562 11.0571C11.5245 10.9008 11.4808 10.7571 11.4308 10.6258C11.3808 10.4946 11.3089 10.3665 11.2151 10.2415C11.1214 10.1165 11.0058 9.96645 10.8683 9.79145C10.7995 9.7102 10.7526 9.6477 10.7276 9.60395C10.7026 9.5602 10.6839 9.48208 10.6714 9.36958C10.6651 9.32583 10.6464 9.24458 10.6151 9.12583C10.5839 9.00708 10.5433 8.86958 10.4933 8.71333C10.4433 8.55708 10.387 8.39458 10.3245 8.22583C10.262 8.05708 10.1933 7.90395 10.1183 7.76645C10.0433 7.62895 9.97451 7.51333 9.91201 7.41958C9.84951 7.32583 9.78389 7.27895 9.71514 7.27895C9.56514 7.27895 9.38701 7.33833 9.18076 7.45708C8.97451 7.57583 8.75576 7.70708 8.52451 7.85083C8.29326 7.99458 8.06826 8.12895 7.84951 8.25395C7.63076 8.37895 7.43389 8.43833 7.25889 8.43208C7.07139 8.43208 6.89951 8.3727 6.74326 8.25395C6.58701 8.1352 6.44326 7.9977 6.31201 7.84145C6.18076 7.6852 6.07139 7.55083 5.98389 7.43833C5.89639 7.32583 5.83076 7.26333 5.78701 7.25083C5.73701 7.25083 5.70889 7.28833 5.70264 7.36333C5.69639 7.43833 5.69326 7.5227 5.69326 7.61645V7.77583C5.69326 7.81333 5.68701 7.83833 5.67451 7.85083C5.60576 7.99458 5.53076 8.1352 5.44951 8.2727C5.36826 8.4102 5.28701 8.55083 5.20576 8.69458C5.12451 8.83833 5.06201 8.9852 5.01826 9.1352C4.97451 9.2852 4.94951 9.44145 4.94326 9.60395C4.94326 9.6977 4.94951 9.79145 4.96201 9.8852C4.97451 9.97895 5.00576 10.0696 5.05576 10.1571L5.03701 10.1946C4.98701 10.2633 4.93389 10.3258 4.87764 10.3821C4.82139 10.4383 4.76826 10.504 4.71826 10.579C4.48701 10.9227 4.32451 11.2946 4.23076 11.6946C4.13701 12.0946 4.08701 12.5008 4.08076 12.9133C4.08076 13.0196 4.08701 13.1258 4.09951 13.2321C4.11201 13.3383 4.11826 13.4446 4.11826 13.5508C4.11826 13.5821 4.11514 13.6165 4.10889 13.654C4.10264 13.6915 4.09951 13.7258 4.09951 13.7571C4.20576 13.7633 4.33076 13.8071 4.47451 13.8883C4.61826 13.9696 4.77451 14.0727 4.94326 14.1977C5.11201 14.3227 5.27139 14.4665 5.42139 14.629C5.57139 14.7915 5.71514 14.9508 5.85264 15.1071C5.99014 15.2633 6.09014 15.4196 6.15264 15.5758C6.21514 15.7321 6.25576 15.8602 6.27451 15.9602C6.27451 16.1227 6.22451 16.254 6.12451 16.354C6.02451 16.454 5.89951 16.5352 5.74951 16.5977C5.85576 16.7852 5.98701 16.9446 6.14326 17.0758C6.29951 17.2071 6.46826 17.3133 6.64951 17.3946C6.83076 17.4758 7.02764 17.5352 7.24014 17.5727C7.45264 17.6102 7.65889 17.629 7.85889 17.629ZM11.6183 18.9602C11.7495 18.9602 11.8776 18.9415 12.0026 18.904C12.1964 18.8477 12.3745 18.7665 12.537 18.6602C12.6995 18.554 12.8495 18.4227 12.987 18.2665C13.1558 18.0727 13.3339 17.904 13.5214 17.7602C13.7089 17.6165 13.9214 17.4852 14.1589 17.3665C14.2651 17.3165 14.3683 17.2696 14.4683 17.2258C14.5683 17.1821 14.6714 17.129 14.7776 17.0665C14.8464 17.0227 14.912 16.9696 14.9745 16.9071C15.037 16.8446 15.0683 16.7696 15.0683 16.6821C15.0683 16.6321 15.0589 16.5852 15.0401 16.5415C15.0214 16.4977 14.9933 16.4508 14.9558 16.4008C14.862 16.2696 14.7808 16.1477 14.712 16.0352C14.6433 15.9227 14.5839 15.804 14.5339 15.679C14.4839 15.554 14.4339 15.429 14.3839 15.304C14.3339 15.179 14.2901 15.0383 14.2526 14.8821C14.2464 14.8508 14.2245 14.8102 14.187 14.7602C14.0558 14.5727 13.8714 14.479 13.6339 14.479C13.5214 14.479 13.4151 14.5071 13.3151 14.5633C13.2151 14.6196 13.1089 14.679 12.9964 14.7415C12.8839 14.804 12.7714 14.8633 12.6589 14.9196C12.5464 14.9758 12.4276 15.004 12.3026 15.004C12.1776 15.004 12.0745 14.9727 11.9933 14.9102C11.912 14.8477 11.8433 14.7633 11.787 14.6571C11.7308 14.5508 11.6839 14.4477 11.6464 14.3477C11.6089 14.2477 11.5714 14.1446 11.5339 14.0383C11.4839 14.1196 11.4276 14.1946 11.3651 14.2633C11.3026 14.3321 11.2526 14.4133 11.2151 14.5071C11.1339 14.6946 11.0839 14.904 11.0651 15.1352C11.0339 15.4977 10.9933 15.8508 10.9433 16.1946C10.8933 16.5383 10.8089 16.8821 10.6901 17.2258C10.6589 17.3258 10.6339 17.4352 10.6151 17.554C10.5964 17.6727 10.5839 17.7883 10.5776 17.9008C10.5776 18.2071 10.6714 18.4602 10.8589 18.6602C11.0464 18.8602 11.2995 18.9602 11.6183 18.9602Z" fill="#009A49"/>
</svg>
