<svg width="159" height="62" viewBox="0 0 159 62" fill="none" xmlns="http://www.w3.org/2000/svg">
<path d="M33.6194 24.5284L37.5559 22.5963L33.7659 23.2704C34.138 22.7593 34.3846 22.1949 34.5032 21.5812L34.6242 20.9563L38.1825 18.4828L34.9179 19.6375C35.1506 19.1264 35.2293 18.5975 35.1523 18.0538L35.0299 17.1868C35.0901 17.1144 35.1435 17.0438 35.1879 16.9767L36.3278 15.262L35.1482 15.828C35.2923 15.3693 35.3316 14.9034 35.2656 14.4329L35.0589 12.9651L34.1162 13.5366L34.7464 11.7453L34.5215 11.9405C34.8638 11.0426 34.9602 10.151 34.808 9.27207L34.4896 7.43204L33.7442 8.16653L35.1359 4.2609L33.6151 6.42135C33.6324 6.14601 33.6317 5.87153 33.6131 5.60017L33.4401 3.06139L31.8695 5.0637C31.3093 5.77807 30.6518 6.44008 30.1415 6.93736C29.418 7.64202 28.6143 8.36489 27.6846 9.14757C26.2224 10.3785 24.7196 11.5317 23.2078 12.5842C23.1494 12.283 23.0668 11.9683 22.9586 11.6331L22.1659 9.17757L21.1339 11.5423C20.1292 13.8437 18.3154 16.1404 16.7154 18.1667L16.4161 18.5457C16.2991 18.6938 16.1808 18.8431 16.0625 18.9937L15.8966 18.4122C15.9153 18.3676 15.9337 18.3234 15.9516 18.2792C16.599 16.679 16.598 15.3381 15.9512 14.3906C16.5385 12.6598 16.4636 11.0287 15.7248 9.41407L14.7222 7.22224C14.608 6.60775 14.4301 6.02203 14.1889 5.46684L13.0728 2.89649L12.706 4.26888C12.5883 3.71646 12.4238 3.18415 12.2119 2.669L11.1143 0L10.3649 2.78708C9.50941 5.9688 8.68339 8.7238 7.83932 11.2092C7.14853 13.242 6.46069 15.0571 5.7477 16.7246C5.61992 16.5715 5.48832 16.4504 5.34908 16.3565L4.00444 15.4479L3.8307 17.0616C3.59922 19.2068 2.69083 21.1164 1.52738 23.389L1.40843 23.6207C1.02281 24.3708 0.624183 25.1465 0.334447 25.9484C0.108692 26.5723 -0.159368 27.5041 0.118751 28.391C0.696662 30.2322 2.65771 30.4703 4.08975 30.6444L4.3793 30.6796C5.18991 30.7777 6.3003 30.9126 6.84579 31.3835C7.10171 31.6044 7.26886 31.8409 7.37151 32.1272C7.40618 32.2238 7.37428 32.3738 7.33839 32.4471C6.61813 32.7779 5.43456 33.5058 4.55339 34.3442L4.51802 33.668L3.57391 35.0287C3.53212 35.0891 3.49293 35.1501 3.45565 35.212L3.44022 35.1231L2.65857 36.4086C2.53755 36.6076 2.43941 36.8173 2.35428 37.0304L2.04928 36.0583L1.75764 38.1135L1.72938 38.0553L1.41346 39.7413C1.33924 40.1372 1.19845 41.7325 1.70215 42.6749C1.6295 42.8844 1.59222 43.1289 1.58563 43.4267C1.56396 44.3781 1.63626 46.099 2.3671 46.9336C2.72741 47.3448 3.21377 47.5623 3.77331 47.5623C4.51802 47.5623 5.28614 47.1659 5.77788 46.742C5.91468 46.8687 6.04073 46.9788 6.14893 47.0735L7.324 48.1007L7.0809 46.5589C7.06426 46.4529 7.04761 46.3506 7.03097 46.2499C6.89798 45.4377 6.79221 44.7908 6.89122 43.335C7.01328 43.1564 7.10102 43.0085 7.16275 42.8769L7.18771 42.824C7.39093 42.3918 7.62136 41.9019 7.93451 41.6396C8.36798 41.276 8.81828 41.0619 9.20147 41.0367C9.25991 41.0327 9.34053 41.0345 9.4307 41.0388C9.72269 41.0993 10.0457 41.234 10.3585 41.3644C10.8161 41.5555 11.2893 41.7528 11.7586 41.7622L12.94 41.7849C13.1426 42.1761 13.3096 42.6007 13.4731 43.0167L13.4915 43.0635C13.7332 43.678 13.9827 44.3117 14.3442 44.9023C14.3257 45.1759 14.2702 45.4922 14.1766 45.8632C14.094 46.1899 13.9916 46.5164 13.8709 46.8372C13.684 46.8146 13.4709 46.7602 13.3049 46.7177L13.178 46.6856C12.8813 46.6102 12.5118 46.5164 12.1392 46.5164C11.7937 46.5164 11.4927 46.5974 11.2423 46.7576C10.5716 46.8023 10.1936 47.1156 9.99109 47.382C9.67205 47.8009 9.57218 48.3772 9.70223 49.0226C9.40035 49.6698 9.44058 50.2472 9.63235 50.6812C7.6869 53.0546 7.52513 56.4029 9.2769 58.9717C10.57 60.8679 12.714 62 15.0121 62C16.4076 62 17.7566 61.583 18.9138 60.7939C22.073 58.6395 22.8902 54.3165 20.7359 51.1574C20.5586 50.8973 20.3597 50.6455 20.1429 50.4069C20.1355 49.9003 20.0016 49.3749 19.7729 48.9654C19.7301 48.7597 19.6412 48.5647 19.512 48.3956C19.3377 48.1678 19.0896 47.9857 18.7936 47.8687C18.4423 47.7301 18.0042 47.6823 17.6338 47.7426C17.6227 47.7443 17.5997 47.7473 17.5624 47.7482C17.6803 47.6242 17.7951 47.4967 17.9052 47.3674C18.3315 46.8668 18.6261 46.4103 18.8058 45.9716C18.8292 45.9147 18.8649 45.8634 18.9063 45.827C18.9214 45.814 18.9351 45.8044 18.9459 45.7979C18.9868 45.8386 19.0426 45.9047 19.0762 45.9449C19.1007 45.9737 19.1238 46.0016 19.1461 46.0271L20.5457 47.6254L20.644 45.3514C20.6631 44.9106 20.6827 44.4634 20.6929 44.0128C20.7098 44.0383 20.7264 44.0639 20.7432 44.0893L20.8391 44.2347C21.6558 45.4729 22.4213 46.5743 23.5239 47.517L23.742 47.7027L24.0262 47.7417C24.563 47.8154 25.1127 47.8298 25.6516 47.7835C26.1761 47.739 26.7054 47.6367 27.2251 47.4794L27.542 47.3833L27.7926 47.3684C28.4574 47.3284 29.1062 47.2042 29.7209 46.9993C30.3012 46.806 30.8633 46.5362 31.3922 46.1972L31.6427 46.0366L31.9222 46.1145L32.1523 46.068C33.3111 45.8339 34.1765 45.4506 34.7976 44.8962C35.3724 44.383 35.7211 43.7437 35.8632 42.9421L36.0711 41.7707L34.8813 41.7951C34.8189 41.7963 34.7561 41.797 34.6942 41.797C31.6906 41.797 29.2621 40.3073 26.6909 38.7299C25.5038 38.0022 24.1897 37.1959 22.7847 36.5457C23.1762 36.4921 23.5622 36.4256 23.9374 36.3462L26.6267 35.7786L30.0578 35.7176L28.7561 35.3292L28.904 35.2978L28.2984 35.1926L27.3614 34.9129C27.8496 34.7997 28.328 34.6643 28.7998 34.5056L32.7915 33.1637L29.7954 32.7672C29.8918 32.7249 29.9869 32.6833 30.08 32.6432L33.187 31.3189L31.3435 31.4494L33.7174 30.1017L32.0412 30.1069L34.4515 29.0076L31.474 29.1761C31.8231 28.8576 32.1135 28.5063 32.3438 28.1238L32.8383 27.3021L35.772 26.0682L33.0163 26.2527C33.2926 25.9042 33.4637 25.5233 33.5278 25.1111L33.6194 24.5284ZM14.5246 27.8198L14.5088 27.127C14.819 26.5778 15.0166 25.9774 15.0971 25.3358L15.1339 25.0423C15.403 25.2616 15.6826 25.4558 15.9361 25.6322L16.1548 25.7841C16.8686 26.2782 17.7567 26.8932 17.707 27.6296C17.7033 27.6827 17.6407 27.9747 16.7618 28.5077C15.9999 28.9696 15.1134 29.3498 14.256 29.7174L14.0744 29.7953L13.802 29.8624C14.1892 29.3256 14.5436 28.6734 14.5246 27.8198Z" fill="#929497"/>
<path fill-rule="evenodd" clip-rule="evenodd" d="M11.4273 49.8032C14.3332 47.8213 18.2953 48.5706 20.277 51.4764C22.2589 54.3823 21.5095 58.3443 18.6036 60.3261C15.6979 62.308 11.7358 61.5586 9.75392 58.6529C7.77224 55.7469 8.52129 51.7847 11.4273 49.8032Z" fill="#231F20"/>
<path fill-rule="evenodd" clip-rule="evenodd" d="M14.94 58.9052L16.9305 59.894C17.1502 59.8451 18.6806 58.8065 18.794 58.6253L18.6003 56.411C18.4113 56.3212 17.3517 56.0283 17.208 56.0335L15.1271 57.4529C15.1098 57.5224 15.0987 57.6209 15.0881 57.6876C15.0617 57.8538 15.0376 58.0204 15.0146 58.187C14.9995 58.2983 14.9305 58.7703 14.94 58.9052ZM9.08252 55.0249C9.09171 55.695 9.14823 56.6386 9.69216 57.8889C9.24013 57.1262 8.8963 55.3006 9.08252 55.0249ZM11.1932 56.1191C11.0561 56.8085 10.9331 57.5004 10.7823 58.1868C10.762 58.2791 10.6775 58.3366 10.568 58.3134L9.95675 58.1847C10.8293 58.2938 10.7622 58.0438 11.1932 56.1191ZM17.3928 51.8915C18.0843 52.0155 18.7737 52.1539 19.4678 52.2636C19.5612 52.2785 19.6455 52.2208 19.664 52.1105L19.7674 51.4941C19.5499 52.3467 19.3415 52.1927 17.3928 51.8915ZM20.952 55.1312C21.0874 55.8147 20.4311 57.6961 19.9076 58.3779C19.8492 58.454 19.7265 58.5255 19.6294 58.5331L19.142 58.5716C20.3255 58.2411 21.0017 56.0044 20.952 55.1312ZM12.9099 60.6155C13.4998 60.9949 15.5013 61.0779 16.3278 60.826C16.4353 60.7931 16.5102 60.7287 16.556 60.6341L16.7733 60.1864C16.0339 61.1678 13.7046 60.9807 12.9099 60.6155ZM15.1011 57.2434C16.5276 56.1504 16.8964 55.1849 16.4461 53.5096L17.067 55.5974C17.0949 55.6912 17.0566 55.82 16.9773 55.8776L15.1011 57.2434ZM20.3052 54.7336L18.8467 56.3808L18.8172 57.082L18.766 56.3513L20.3052 54.7336ZM12.7542 59.8831L14.8226 59.0406L15.4841 59.355L14.8205 59.1266L12.7542 59.8831ZM9.155 54.658L9.58518 54.2765L9.62332 54.3322L9.155 54.658ZM12.7986 55.7585L13.7518 53.2024L14.3347 53.2152L13.8092 53.2823L12.7986 55.7585ZM10.2193 51.5376C9.57876 52.4088 9.18863 53.4411 9.08859 54.517L9.50889 54.1376C9.55189 54.0293 9.589 53.9074 9.62766 53.7973C9.71228 53.5576 9.79827 53.3182 9.88792 53.0803C9.95883 52.8927 10.0317 52.7051 10.1102 52.5204C10.1622 52.3977 10.2215 52.259 10.2907 52.1428L10.2193 51.5376ZM10.0958 58.415C10.0969 58.4162 10.0974 58.4173 10.0981 58.4183C10.7485 59.3718 11.6516 60.1099 12.7133 60.5538L12.4867 60.0782C12.4451 60.0158 12.2514 59.855 12.19 59.8009C11.9929 59.6286 11.7924 59.4593 11.5915 59.2915C11.3884 59.1226 11.1845 58.9548 10.9784 58.7895C10.9061 58.7315 10.8332 58.6737 10.7596 58.6175C10.7323 58.5971 10.6857 58.5584 10.6664 58.5468L10.0958 58.415ZM16.7518 60.7589L17.0477 60.2386C17.1481 60.112 18.9198 58.9029 19.0759 58.8573L19.6741 58.7713C19.3023 59.2381 18.8623 59.6452 18.369 59.9819C17.8715 60.3211 17.3271 60.5833 16.7518 60.7589ZM20.9667 54.958C20.9473 53.7962 20.5892 52.674 19.9326 51.711C19.9319 51.7098 19.9311 51.7088 19.9305 51.7077L19.8459 52.2801C19.8504 52.3143 19.8678 52.3677 19.8768 52.3996C19.9019 52.4892 19.9286 52.5782 19.9555 52.6673C20.0325 52.9206 20.1128 53.1731 20.1948 53.4248C20.2763 53.6756 20.3586 53.9259 20.4452 54.1744C20.4738 54.2569 20.5454 54.4865 20.5851 54.55L20.9667 54.958ZM16.6694 49.3472C15.6313 49.0476 14.528 49.0335 13.483 49.312L14.0203 49.5995C14.1537 49.5773 14.3045 49.5731 14.4377 49.5691C14.6385 49.5636 14.8394 49.5643 15.0404 49.5669C15.2946 49.5704 15.5488 49.5773 15.8028 49.5863C15.9193 49.5901 16.0462 49.6002 16.1628 49.5998L16.6694 49.3472ZM18.6896 56.1616C18.6216 56.1431 18.5171 56.0987 18.4628 56.0777C18.3008 56.0162 18.1399 55.952 17.9787 55.888C17.742 55.7935 17.5057 55.6964 17.2688 55.6021L16.5973 53.3048C16.5855 53.158 17.1936 52.1242 17.3456 52.0367L19.5557 52.4899C19.6609 52.5574 19.9453 53.3418 19.9942 53.4864C20.0413 53.626 20.299 54.4338 20.2298 54.5507L18.6896 56.1616ZM17.1443 51.8702L16.0495 49.9497C15.9568 49.8629 15.2408 49.8336 15.1021 49.8318C14.9624 49.8306 14.2393 49.8403 14.1623 49.9666L12.9937 51.8848C13.0587 52.0561 13.6951 52.8278 13.874 53.0555L16.1565 53.1235L17.1443 51.8702ZM12.7882 52.0224L10.5808 52.4091C10.435 52.4348 10.1621 53.1044 10.1126 53.235C10.0632 53.3647 9.82896 54.0418 9.87301 54.1546L11.2771 55.8963C11.3439 55.8877 11.4757 55.8483 11.5247 55.8348C11.6938 55.7883 11.8623 55.738 12.0302 55.6876C12.2797 55.6122 12.5283 55.5322 12.7778 55.4573L13.5478 53.3076C13.4214 53.093 13.3034 52.8684 13.1796 52.6519C13.1251 52.5575 12.8763 52.1161 12.7882 52.0224ZM11.3425 56.145L10.9603 58.3516C10.9596 58.3566 10.9586 58.3618 10.9574 58.3666C11.4191 58.9354 11.9939 59.3994 12.6474 59.7305L14.6841 58.8955C14.696 58.8327 14.6988 58.693 14.7007 58.6455C14.7068 58.4752 14.7084 58.3046 14.7094 58.1341C14.7108 57.8798 14.7068 57.625 14.7084 57.371L12.8099 55.9033C12.653 55.887 11.5249 56.0735 11.3425 56.145Z" fill="#BFBEBE"/>
<path fill-rule="evenodd" clip-rule="evenodd" d="M14.94 58.905L15.2124 59.0404C16.527 58.8497 17.7377 58.4913 18.7418 58.0303L18.6003 56.4108C18.4113 56.321 17.3517 56.0279 17.208 56.0333L15.1271 57.4527C15.1098 57.5222 15.0987 57.6207 15.0881 57.6875C15.0617 57.8536 15.0376 58.0202 15.0146 58.1868C14.9995 58.2983 14.9305 58.7703 14.94 58.905ZM20.6628 56.7971C20.6381 56.82 20.6132 56.8429 20.5879 56.8658C20.8462 56.2109 20.9745 55.5293 20.952 55.1312C21.0212 55.4806 20.8837 56.1424 20.6628 56.7971ZM14.9079 59.0812C14.8219 59.0916 14.7361 59.1016 14.651 59.1107L14.8224 59.0406L14.9079 59.0812ZM14.0342 59.162L14.6843 58.8953C14.6962 58.8325 14.699 58.6928 14.7009 58.6453C14.707 58.475 14.7085 58.3044 14.7096 58.1339C14.711 57.8796 14.707 57.6249 14.7084 57.3709L12.8101 55.9029C12.6532 55.8872 11.5251 56.0735 11.3427 56.1452L10.9605 58.3517C10.9598 58.3568 10.9588 58.362 10.9576 58.3668C11.1665 58.6243 11.3987 58.8603 11.6508 59.072C12.3714 59.1795 13.1771 59.2131 14.0342 59.162ZM11.2388 59.0006C10.9243 58.938 10.6288 58.8605 10.3566 58.7689C10.2663 58.6555 10.1803 58.5385 10.0982 58.4181C10.0974 58.4171 10.0969 58.4161 10.0958 58.4148L10.6663 58.5468C10.6857 58.5584 10.7325 58.5971 10.7596 58.6175C10.8332 58.6737 10.9061 58.7315 10.9784 58.7895C11.0658 58.8594 11.1525 58.9298 11.2388 59.0006ZM9.08252 55.0249C9.09171 55.695 9.14823 56.6386 9.69216 57.8889C9.24013 57.1262 8.8963 55.3006 9.08252 55.0249ZM11.1932 56.1191C11.0561 56.8085 10.9331 57.5004 10.7823 58.1868C10.762 58.2793 10.6775 58.3366 10.568 58.3134L9.95675 58.1847C10.8293 58.2938 10.7622 58.0438 11.1932 56.1191ZM17.3928 51.8915C18.0843 52.0155 18.7737 52.1539 19.4678 52.2638C19.5612 52.2785 19.6455 52.2208 19.664 52.1105L19.7674 51.4941C19.5501 52.3467 19.3415 52.1927 17.3928 51.8915ZM15.1009 57.2434C16.5274 56.1504 16.8962 55.1849 16.4461 53.5096L17.067 55.5974C17.0949 55.6914 17.0566 55.82 16.9773 55.8778L15.1009 57.2434ZM20.3054 54.7336L18.766 56.3513L18.8172 57.082L18.8467 56.3808L20.3054 54.7336ZM9.155 54.658L9.58501 54.2765L9.62332 54.3322L9.155 54.658ZM12.7986 55.7587L13.7516 53.2025L14.3347 53.2152L13.8092 53.2823L12.7986 55.7587ZM10.2193 51.5378C9.57876 52.4088 9.18863 53.4413 9.08859 54.517L9.50889 54.1376C9.55189 54.0293 9.589 53.9074 9.62766 53.7973C9.71228 53.5576 9.79827 53.3182 9.88792 53.0805C9.95883 52.8927 10.0317 52.7051 10.1102 52.5204C10.1622 52.3977 10.2215 52.259 10.2907 52.1428L10.2193 51.5378ZM20.9667 54.958L20.5851 54.5501C20.5454 54.4867 20.4738 54.2571 20.4452 54.1746C20.3586 53.9259 20.2761 53.6757 20.1948 53.425C20.1128 53.1732 20.0325 52.9208 19.9555 52.6675C19.9286 52.5783 19.9018 52.4894 19.8768 52.3997C19.8678 52.3677 19.8506 52.3144 19.8459 52.2803L19.9305 51.7079C19.9311 51.709 19.9319 51.71 19.9326 51.7112C20.5894 52.6739 20.9473 53.7962 20.9667 54.958ZM16.6694 49.3472C15.6313 49.0476 14.528 49.0335 13.483 49.312L14.0203 49.5995C14.1537 49.5773 14.3045 49.5731 14.4377 49.5691C14.6385 49.5636 14.8394 49.5643 15.0404 49.5667C15.2946 49.5704 15.5488 49.5773 15.8028 49.5863C15.9193 49.5901 16.0462 49.6002 16.1628 49.5998L16.6694 49.3472ZM18.6896 56.1616C18.6216 56.1431 18.5171 56.0985 18.4628 56.0777C18.3008 56.0162 18.1399 55.952 17.9787 55.888C17.742 55.7935 17.5057 55.6964 17.2688 55.6021L16.5974 53.3048C16.5855 53.158 17.1936 52.1242 17.3456 52.0367L19.5557 52.4899C19.6609 52.5574 19.9453 53.3418 19.9942 53.4864C20.0413 53.626 20.299 54.4338 20.2298 54.5507L18.6896 56.1616ZM17.1443 51.8702L16.0495 49.9497C15.9568 49.8629 15.2408 49.8336 15.1021 49.8318C14.9624 49.8306 14.2393 49.8403 14.1623 49.9666L12.9937 51.8848C13.0587 52.0561 13.6951 52.8278 13.874 53.0555L16.1565 53.1237L17.1443 51.8702ZM12.7882 52.0224C12.8763 52.1161 13.1249 52.5575 13.1794 52.6519C13.3032 52.8684 13.4214 53.093 13.5477 53.3076L12.7776 55.4573C12.5281 55.5324 12.2797 55.6123 12.03 55.6876C11.8621 55.738 11.6936 55.7883 11.5246 55.8348C11.4755 55.8481 11.3437 55.8877 11.277 55.8963L9.87284 54.1546C9.82879 54.0419 10.063 53.3648 10.1125 53.235C10.1619 53.1044 10.4348 52.4349 10.5806 52.4091L12.7882 52.0224Z" fill="#BFBEBE"/>
<path fill-rule="evenodd" clip-rule="evenodd" d="M18.5973 58.0951C18.6461 58.0736 18.6943 58.0519 18.7419 58.0302L18.6577 57.0667C17.5462 57.7559 16.2909 58.2101 14.9752 58.4823C14.9639 58.5726 14.9527 58.6682 14.9459 58.7484C15.8066 58.6629 16.6552 58.505 17.4625 58.2498C16.8034 58.5043 16.1218 58.7153 15.4312 58.8877C16.4953 58.7143 17.5733 58.462 18.5973 58.0951ZM20.7475 56.4059L20.7951 56.3674C20.7559 56.5087 20.7115 56.6532 20.6628 56.7971C20.6381 56.82 20.6132 56.8429 20.5879 56.8658C20.6482 56.7125 20.7016 56.558 20.7475 56.4059ZM14.696 58.7713C13.8605 58.8405 13.0162 58.8443 12.1893 58.8036C13.0353 58.7746 13.8802 58.69 14.704 58.5359C14.703 58.5723 14.7019 58.6089 14.7009 58.6453C14.6999 58.6702 14.6988 58.72 14.696 58.7713Z" fill="white"/>
<path fill-rule="evenodd" clip-rule="evenodd" d="M18.6571 57.0606C17.9076 57.3792 17.1485 57.6056 16.3791 57.7289C17.172 57.474 17.924 57.0754 18.6004 56.4106C18.4114 56.3208 17.3519 56.0278 17.2081 56.0331L15.1273 57.4525C15.1099 57.522 15.0988 57.6205 15.0882 57.6873C15.0619 57.8534 15.0378 58.02 15.0147 58.1866L14.9995 58.2985C16.3004 58.0913 17.5877 57.6686 18.6571 57.0606ZM10.0667 52.625C10.0809 52.5898 10.0955 52.5553 10.1104 52.5204C10.1558 52.4133 10.2068 52.2936 10.2652 52.188C10.143 52.1337 10.0226 52.0762 9.90282 52.0153C9.84265 52.1162 9.78561 52.2191 9.73151 52.3231L9.72804 52.3295L9.72197 52.3413L9.71591 52.3531L9.71521 52.3548L9.71018 52.365L9.70411 52.377L9.69908 52.3871L9.69804 52.3888L9.69232 52.4008L9.68625 52.4126L9.68296 52.4191L9.68036 52.4243L9.67446 52.4361L9.66874 52.4481L9.66718 52.4512L9.66285 52.4599L9.65695 52.472L9.65158 52.4835L9.6514 52.484L9.64568 52.4958L9.63996 52.5077L9.63614 52.5156L9.63406 52.5197L9.62852 52.5317L9.62297 52.5436L9.62089 52.5478L9.61707 52.5558L9.6117 52.5677L9.60615 52.5799L9.60598 52.5806L9.6006 52.592L9.59522 52.604L9.59106 52.613L9.58967 52.6159L9.58447 52.6281L9.57893 52.6402L9.5765 52.6456L9.57355 52.6524L9.56817 52.6645L9.56297 52.6766L9.5621 52.6784L9.5576 52.6888L9.55239 52.7009L9.54806 52.7113L9.54702 52.7132L9.54199 52.7254L9.53696 52.7377L9.53402 52.7441L9.53141 52.75L9.52656 52.7621L9.52136 52.7743C9.29162 53.3275 9.14545 53.9145 9.08927 54.5156L9.50957 54.1362C9.55257 54.0279 9.58968 53.906 9.62834 53.7959C9.71296 53.5562 9.79896 53.3168 9.8886 53.0791C9.91132 53.0194 9.93368 52.9598 9.95674 52.9007H9.95692V52.9005L9.95934 52.8946L9.95969 52.8934L9.9616 52.8887L9.96264 52.8863L9.96403 52.8824L9.96524 52.879L9.96628 52.8762L9.96836 52.8717L9.96888 52.8703L9.97096 52.8646V52.8642L9.97356 52.8585L9.97391 52.8575L9.97582 52.8526L9.97669 52.8504L9.97842 52.8466L9.97946 52.8433L9.98067 52.8405L9.98241 52.8362L9.9831 52.8346L9.98535 52.8292V52.8285L9.98778 52.8226L9.98813 52.8219L9.99021 52.8167L9.9909 52.8148L9.99263 52.8107L9.99368 52.8077L9.99506 52.8046L9.99662 52.8008L9.99749 52.7987L9.99975 52.7937L9.99992 52.7928L10.0023 52.7869L10.0025 52.7866L10.0048 52.7808L10.0055 52.7795L10.0074 52.7749L10.0082 52.7723L10.011 52.7652L10.0122 52.7628L10.0141 52.7581L10.0145 52.7569L10.0169 52.751V52.7508L10.0193 52.7449L10.0199 52.7441L10.0218 52.7391L10.0226 52.7368L10.0242 52.733L10.0258 52.7299L10.0268 52.7269L10.0285 52.7228L10.029 52.721L10.0315 52.7155L10.0316 52.7151L10.0343 52.7091V52.7085L10.0367 52.7033L10.0374 52.7013L10.0391 52.6973L10.0401 52.6943L10.0415 52.6914L10.0433 52.6874L10.044 52.6855L10.046 52.6804L10.0464 52.6796L10.0488 52.6737L10.0492 52.6732L10.0516 52.6678L10.0521 52.6662L10.0538 52.6617L10.0551 52.6589L10.0564 52.6557L10.058 52.6518L10.0589 52.6498L10.0608 52.6449L10.0613 52.6439L10.0639 52.6378L10.0663 52.6321L10.0667 52.6309L10.0689 52.626L10.0667 52.625ZM11.09 53.141C11.7831 53.3731 12.6129 53.4815 13.4833 53.4876L12.7776 55.4575C12.5281 55.5326 12.2797 55.6125 12.03 55.6877C11.8621 55.7382 11.6936 55.7885 11.5245 55.8349C11.4755 55.8483 11.3437 55.8878 11.2769 55.8965L9.87282 54.1548C9.82878 54.0421 10.063 53.365 10.1124 53.2351C10.1289 53.1918 10.1698 53.0884 10.2231 52.9693L10.2234 52.9688L10.2272 52.9605L10.2283 52.958L10.231 52.952L10.2335 52.9468L10.235 52.9435L10.2352 52.9431L10.2467 52.918L10.2493 52.9121L10.2505 52.9093L10.2545 52.9005L10.2624 52.8831L10.2656 52.8771L10.2666 52.8745L10.2749 52.8568L10.2766 52.8535L10.2791 52.8483L10.2822 52.8419L10.2832 52.8393L10.2961 52.8133L10.2994 52.8063L10.3002 52.8044L10.3046 52.7956L10.3051 52.7947L10.3089 52.7871C10.4022 52.5984 10.508 52.4217 10.5813 52.4087L10.7429 52.3805C11.5648 52.681 12.4315 52.8394 13.312 52.8875L13.4067 53.059C12.4532 53.128 11.493 53.0805 10.5785 52.8502C11.136 53.0356 11.708 53.1757 12.284 53.2762C11.8876 53.2483 11.4883 53.2043 11.09 53.141ZM13.8454 53.0193C14.2039 52.9802 14.5608 52.926 14.9124 52.8604C14.5259 52.893 14.1381 52.9078 13.7519 52.9026L13.8454 53.0193ZM14.7077 58.3415C14.7085 58.2723 14.709 58.2029 14.7096 58.1339C14.7109 57.8796 14.707 57.6249 14.7083 57.3708L12.8101 55.9029C12.6531 55.8871 11.5251 56.0735 11.3427 56.1451L10.9907 58.1781C12.0879 58.4729 13.3966 58.5173 14.7077 58.3415ZM10.7963 58.1214C10.7419 58.105 10.6881 58.0878 10.6345 58.07C10.8528 57.843 10.9305 57.2921 11.1932 56.1191C11.0605 56.7865 10.9411 57.4567 10.7963 58.1214ZM9.55795 57.5619C9.54477 57.5532 9.53211 57.5441 9.51893 57.5354C9.15828 56.6691 8.92091 55.2641 9.08233 55.0249C9.09066 55.635 9.13851 56.4723 9.55795 57.5619ZM13.6455 53.4876L12.7986 55.7588L13.7256 53.4867L13.6455 53.4876ZM16.669 53.0964C17.4496 52.8982 18.1614 52.6331 18.7249 52.3196C18.3475 52.9088 17.8042 53.2497 17.1922 53.4881C18.0754 53.3653 18.8675 53.0421 19.5558 52.4899C20.1247 54.0703 19.2566 55.4497 18.6896 56.1618C18.6216 56.1432 18.517 56.0987 18.4628 56.0779C18.3008 56.0163 18.1399 55.9522 17.9787 55.8882C17.742 55.7937 17.5057 55.6966 17.2688 55.6023L16.5974 53.305C16.5947 53.2721 16.6227 53.1961 16.669 53.0964ZM15.1009 57.2434C16.5274 56.1503 16.8962 55.1849 16.4461 53.5096L17.067 55.5974C17.0949 55.6914 17.0566 55.82 16.9773 55.8778L15.1009 57.2434ZM9.15498 54.658L9.585 54.2765L9.62331 54.3322L9.15498 54.658Z" fill="white"/>
<path fill-rule="evenodd" clip-rule="evenodd" d="M10.8986 50.9939C10.4462 51.0719 9.64812 50.2606 10.3105 49.0954C10.0521 48.1619 10.3476 47.3031 11.4458 47.3189C11.8906 46.9214 12.5834 47.1175 13.109 47.2502C13.4192 47.3282 13.9321 47.4709 14.2695 47.3901C14.458 46.9419 14.6158 46.472 14.7345 46.0018C14.8348 45.6054 14.9201 45.1629 14.9261 44.7487C14.5402 44.1607 14.2806 43.4998 14.0245 42.8483C13.7283 42.0955 13.4204 41.3003 12.8999 40.669C12.7452 40.6919 12.5911 40.7179 12.4369 40.7437C12.1056 40.7992 11.6145 40.7926 11.2809 40.8236C11.3949 40.9696 11.5466 41.0971 11.7782 41.1959C11.1167 41.1833 10.3013 40.6242 9.50923 40.4755C9.37346 40.4682 9.25799 40.4659 9.1732 40.4717C8.58627 40.5105 8.02136 40.8354 7.57939 41.2058C7.1558 41.5607 6.89034 42.1451 6.65904 42.6356C6.58257 42.7984 6.45201 42.9909 6.34641 43.1381C6.20926 44.9635 6.37381 45.655 6.53038 46.647C5.88675 46.0845 4.99084 45.2541 4.53725 43.944C4.28046 44.3119 4.25445 44.8532 4.22671 45.285C4.18804 45.8894 4.93258 46.1297 5.57916 46.159C5.0283 46.7404 3.61031 47.4829 2.80179 46.5603C2.21104 45.8856 2.14047 44.3121 2.16059 43.4398C2.16874 43.0808 2.22595 42.823 2.36449 42.6283C1.82993 42.0627 1.86478 40.4536 1.9787 39.8456L2.06695 40.0267L2.2674 38.6129L2.33623 38.8314C2.65111 38.0563 2.78167 37.3111 3.15151 36.703L3.21844 37.0826C3.47957 36.693 3.65018 35.925 4.04812 35.352L4.07655 35.8893C4.5513 34.7903 6.50645 33.4365 7.64875 32.9328C7.86652 32.8366 8.05153 32.3209 7.91369 31.9365C7.77272 31.5436 7.53986 31.227 7.22498 30.9553C6.51252 30.3401 5.2185 30.2116 4.31514 30.1003C2.95177 29.9326 1.15388 29.7696 0.668215 28.2218C0.456158 27.5457 0.642722 26.7868 0.876106 26.1413C1.18335 25.292 1.6288 24.4516 2.04043 23.6476C3.09811 21.5816 4.15042 19.4638 4.40288 17.1227L4.47605 16.4442L5.04113 16.826C5.30191 17.0022 5.51292 17.3311 5.66204 17.6033C5.72411 17.716 5.78237 17.8324 5.8382 17.9503C6.79913 15.8119 7.63106 13.6095 8.38444 11.3916C9.33098 8.60558 10.1574 5.7755 10.921 2.93449L11.2359 1.76306L11.6971 2.88473C12.3752 4.53332 12.4794 6.24764 12.2788 7.9571C12.4992 7.22452 12.7078 6.48796 12.9049 5.74966L13.2094 4.61239L13.6782 5.69244C14.3408 7.21776 14.4386 8.86445 14.2045 10.4914C14.2924 10.2301 14.3747 9.96773 14.4516 9.70557L14.7602 8.64754L15.2186 9.64974C16.0053 11.3686 15.9047 12.9579 15.3246 14.4842L15.4343 14.6297C16.1771 15.6121 15.8583 17.0218 15.4354 18.0668C15.2551 18.5123 15.0338 18.9537 14.7845 19.3844C14.8271 19.34 14.8696 19.2956 14.9121 19.2511L15.4073 18.7314L15.6043 19.4215C15.6963 19.7438 15.7326 20.0726 15.7027 20.4039C16.1355 19.8193 16.5921 19.2476 17.0418 18.6778C18.6826 16.5994 20.6005 14.1995 21.6615 11.7687L22.0951 10.775L22.4284 11.8071C22.569 12.2428 22.68 12.691 22.7301 13.1465C22.746 13.2918 22.7559 13.4375 22.7587 13.5833C24.5908 12.352 26.373 10.9989 28.058 9.5809C28.9103 8.86358 29.7472 8.12043 30.5453 7.34295C31.1654 6.73903 31.7894 6.09505 32.3238 5.41328L32.9841 4.57182L33.0567 5.63869C33.0878 6.0928 33.0635 6.54708 32.9884 6.99582C32.8266 7.96369 32.4351 8.87451 31.9195 9.71649C32.419 9.15211 32.7807 8.60315 33.2169 7.98276C32.9411 8.75747 32.6947 9.64991 32.2754 10.3506C32.7157 9.96115 33.1457 9.55975 33.5656 9.14604L34.1246 8.59517L34.2587 9.36867C34.6015 11.3509 33.471 13.1059 32.1539 14.4761C32.1095 14.5224 32.0103 14.6274 31.9132 14.7398C32.3354 14.5505 32.9796 14.0374 33.5101 13.5767C33.3224 14.1104 33.0116 14.715 32.892 14.909C33.299 14.686 33.7007 14.456 34.0938 14.2175L34.6263 13.8947L34.7131 14.5114C34.8567 15.5317 34.3776 16.4208 33.6667 17.1709L34.7249 16.663C34.4019 17.1492 33.3999 17.9643 32.936 18.3168C33.2991 18.1594 33.6582 17.9926 34.0151 17.8199L34.5215 17.5749L34.6002 18.1325C34.7589 19.2558 34.0546 20.16 33.2046 20.8471L34.4106 20.4204L33.7919 20.8506L34.1011 20.7213L33.9556 21.4736C33.722 22.6816 32.9553 23.5319 31.9788 24.1651L33.7095 23.8572L32.1924 24.6019C32.2983 24.5863 32.4044 24.5702 32.5104 24.5542L33.0633 24.4708L32.977 25.0236C32.8315 25.9554 31.9775 26.5538 31.1425 26.9467L32.4381 26.86L31.6646 27.1853L32.3098 27.0967L31.8673 27.8318C31.2848 28.7997 30.3385 29.4289 29.3169 29.8574C29.5938 29.8506 29.8587 29.8357 29.9664 29.8296L31.482 29.7438L30.1008 30.3737C29.8526 30.4868 29.561 30.5856 29.2499 30.6723C29.5017 30.6784 29.7536 30.681 30.0056 30.6799L31.5694 30.6753L30.209 31.4475C29.6777 31.7492 29.1265 32.0057 28.5579 32.2157L29.8665 32.1229C29.1577 32.4249 28.3447 32.8283 27.6136 33.0403C27.9259 33.0878 28.2382 33.1319 28.5512 33.1733L30.3055 33.4056L28.6282 33.9693C27.3733 34.3915 26.0902 34.6313 24.7778 34.731L26.4062 35.2169L25.2578 35.2373L25.9174 35.352L23.8292 35.7927C23.3137 35.9016 22.7932 35.9831 22.2701 36.0401L21.9471 36.3065C21.8014 36.4266 21.6717 36.5321 21.538 36.6272C23.261 37.2931 24.8288 38.2476 26.4039 39.2135C29.0719 40.85 31.6526 42.4289 34.9021 42.3621L35.402 42.3519L35.315 42.844C35.2004 43.4902 34.925 44.0324 34.4298 44.4744C33.7841 45.0506 32.8832 45.345 32.0495 45.5133L31.9527 45.5328L31.5597 45.4233L31.0958 45.7207C30.6123 46.0307 30.0959 46.2808 29.5513 46.4623C28.9732 46.6548 28.3757 46.7668 27.7676 46.8034L27.627 46.8117L27.5836 46.7819L27.0701 46.9376C26.5948 47.0813 26.1071 47.1774 25.6125 47.2195C25.112 47.262 24.6097 47.2492 24.1122 47.1808L23.9924 47.1642L23.9008 47.086C22.8305 46.1712 22.0879 45.0858 21.321 43.9228C20.9608 43.377 20.5655 42.7585 20.1065 42.2427C20.1807 43.3201 20.1275 44.4005 20.0807 45.4788L20.05 46.1896L19.5813 45.6543C19.466 45.5225 19.3204 45.3223 19.1551 45.2543C19.0605 45.2155 18.9595 45.2106 18.8602 45.2328C18.7425 45.259 18.6329 45.3223 18.5429 45.4012C18.4324 45.4977 18.3464 45.6215 18.2911 45.7573C18.1085 46.2022 17.794 46.6354 17.4833 47.0005C17.1646 47.3752 16.7929 47.7457 16.4048 48.0622C16.4187 48.0684 16.4315 48.0741 16.4436 48.0795C16.7691 48.2208 17.3865 48.3592 17.7349 48.302C18.0107 48.2567 18.3353 48.2935 18.5951 48.396C18.7797 48.469 18.9495 48.581 19.0709 48.7396C19.1667 48.8653 19.224 49.0092 19.2404 49.1625C19.5581 49.665 19.7459 50.6155 19.4064 51.2879C19.263 51.0303 18.8368 50.4539 18.3421 50.216C17.8814 49.9407 17.3096 49.7207 16.7932 49.5802C15.3941 49.1998 15.3331 49.5197 14.2341 50.2233C14.0094 50.5342 13.7641 50.8649 13.4757 51.1147C13.1331 51.4112 12.718 51.5851 12.2942 51.3913C11.8015 51.3507 11.6125 51.7218 11.5903 52.2301C11.1396 51.9487 10.8554 51.3535 10.8986 50.9939ZM14.6633 23.672C14.5787 23.995 14.4529 24.2853 14.2965 24.5547L14.6714 24.2489L14.544 25.2653C14.4571 25.9585 14.2204 26.5923 13.8249 27.1681C13.7968 27.209 13.7681 27.2496 13.7387 27.2893L13.9525 27.1809L13.9671 27.8325C13.987 28.7081 13.5289 29.3206 13.0147 29.9694C12.8252 30.2088 12.5996 30.4842 12.4517 30.7798C12.5651 30.7507 12.6788 30.7228 12.7924 30.6949L13.3478 30.5589L13.2565 30.7717C13.5685 30.6338 13.8818 30.4988 14.1951 30.3639C15.1469 29.9536 16.1785 29.529 17.0642 28.9922C17.4944 28.7312 18.2431 28.2305 18.2809 27.6676C18.3567 26.5526 17.1611 25.7889 16.3582 25.2296C15.7574 24.811 15.0206 24.3193 14.6633 23.672Z" fill="#231F20"/>
<path d="M15.5264 46.5468C15.8761 45.9182 16.1109 45.2434 16.1754 44.8371C15.8799 44.2039 15.7356 43.5286 15.5909 42.8506C15.332 41.6388 15.1074 40.5714 14.0347 40.3548C13.4571 40.2385 14.3872 42.3056 14.5235 42.6524C14.8356 43.4457 15.0889 44.2908 15.8067 44.7735C15.5215 44.7241 15.474 44.6407 15.4532 44.9606C15.4476 45.043 15.4397 45.1269 15.4296 45.2124C15.6143 45.3492 15.7752 45.5153 15.8849 45.7202C15.7804 45.6403 15.5387 45.5233 15.3975 45.443C15.3738 45.5924 15.3443 45.7452 15.3098 45.8999C15.4315 45.9956 15.5371 46.1097 15.6115 46.2482C15.5394 46.1932 15.379 46.1143 15.2735 46.0561L15.2543 46.1324C15.0719 46.8558 14.7102 48.0133 15.5264 46.5468ZM12.9782 47.7701C13.9849 48.0241 14.0121 48.0329 13.0118 48.1279C12.6241 48.1649 12.2562 48.1999 11.9854 48.2939C11.9576 48.3034 11.9309 48.3136 11.9054 48.3244C11.8009 48.2224 11.687 48.1498 11.5711 48.1033C11.4109 48.0393 11.2464 48.0241 11.0947 48.0509C10.9913 48.0692 10.8937 48.1069 10.807 48.1623C10.8323 48.118 10.8637 48.0776 10.9013 48.0416C11.1415 47.8106 11.598 47.6931 11.7255 48.1361C11.7534 48.0381 11.7584 47.9315 11.7267 47.8111C11.9184 47.5025 12.4244 47.6303 12.9782 47.7701Z" fill="#6D6E70"/>
<path d="M2.58812 43.4491C2.57269 44.1451 2.62245 45.7061 3.12372 46.278C3.51506 46.7248 4.28908 46.5124 4.72151 46.2641C3.95149 46.1609 3.7644 45.8133 3.80012 45.2576C3.87017 43.4 5.30376 41.9588 5.54894 43.1155C5.65956 43.6364 5.72545 44.6762 5.84301 45.2277C5.50126 44.8009 5.16903 44.1638 4.81324 43.3844C5.11563 44.5104 5.65366 45.3025 6.17956 45.8991C5.89745 44.9996 5.84803 44.0085 5.9238 43.0562C5.95658 42.6463 5.92918 42.0006 5.77088 41.9267C5.21499 41.6682 4.50616 42.8858 4.30121 42.797C3.9709 42.6538 3.32416 42.6392 2.86017 42.7176C2.61135 42.8247 2.60078 42.9099 2.58812 43.4491ZM3.43374 43.3406C3.56431 43.2329 3.73475 43.224 3.81416 43.3208C3.83861 43.3504 3.85144 43.3867 3.85387 43.4255C3.79283 43.4 3.70666 43.4172 3.63713 43.4744C3.54645 43.5491 3.51732 43.6641 3.57263 43.731C3.5813 43.7416 3.5917 43.7506 3.60332 43.7576C3.50084 43.7941 3.39768 43.7791 3.34063 43.7097C3.26139 43.6133 3.30301 43.4477 3.43374 43.3406Z" fill="#929497"/>
<path d="M2.58812 43.4491C2.57269 44.1451 2.62245 45.7061 3.12372 46.278C3.2307 46.4004 3.36664 46.4732 3.51628 46.5095C3.33925 46.3212 3.24111 45.8986 3.18077 45.4414C3.06113 44.537 3.16742 43.3671 3.66141 42.6758C3.39178 42.6612 3.10101 42.677 2.86017 42.7176C2.61135 42.8247 2.60078 42.9099 2.58812 43.4491Z" fill="white"/>
<path fill-rule="evenodd" clip-rule="evenodd" d="M12.3485 40.2149C12.8159 40.1365 13.282 40.0586 13.7495 40.0533C14.4352 40.0456 14.3629 39.9463 14.0184 39.5463C15.3523 39.6999 15.7388 42.3412 15.8364 42.7986C16.0504 43.8008 16.1591 44.4378 16.7474 45.2519L16.9636 44.6467L17.2397 45.2741C17.4599 45.2135 17.5963 45.1881 17.8502 45.2583C17.5741 45.3668 17.3713 45.4825 17.1287 45.6453L16.9882 45.3256L16.8284 45.7724L16.6879 45.5907C16.5751 45.4443 16.4695 45.2954 16.3668 45.1418C16.2269 45.6954 16.65 45.7727 16.783 46.4465C16.6548 46.2671 16.2936 45.9409 16.1594 45.7821C15.9642 46.2875 16.3108 46.2492 16.428 46.8424C16.3261 46.7 16.0422 46.4431 15.9297 46.3123C15.5694 47.0595 15.9326 46.6919 16.0649 47.3615C15.973 47.233 15.7149 47 15.6185 46.8857C15.3532 47.3197 15.0345 47.7151 14.6792 47.9712C14.2799 48.2588 13.6338 48.3204 13.0351 48.3771C12.6627 48.4124 12.3093 48.4461 12.0669 48.5303C11.9573 48.5685 11.8725 48.6189 11.8235 48.6893C12.0955 48.5192 12.4617 48.5364 12.8681 48.5557C13.4244 48.5817 14.0678 48.612 14.5925 48.0854C14.2495 48.7386 13.1742 48.8211 12.8562 48.806C12.341 48.7816 11.9032 48.7611 11.7241 49.2053C11.804 49.2792 11.8432 49.4148 11.8477 49.6019C11.562 48.9841 10.655 49.2295 10.65 50.1325C10.8866 49.6047 11.2775 49.479 11.9693 49.687L12.0296 49.7051L12.0513 49.764L12.0522 49.7664C12.1236 49.6348 12.2283 49.5239 12.3591 49.4264C12.6126 49.2378 12.9625 49.1072 13.3587 48.9751C13.5173 48.922 13.6775 48.887 13.8355 48.8527C14.2114 48.7703 14.5759 48.6906 14.7572 48.3941C14.7923 48.8478 14.153 49.0403 13.8884 49.0982C13.7347 49.1318 13.5792 49.1658 13.4379 49.2128C13.063 49.3382 12.7334 49.4601 12.5084 49.6277C12.3022 49.781 12.1822 49.9783 12.1949 50.2662C12.3468 50.3556 12.4364 50.512 12.44 50.7617C12.0027 49.9729 10.9494 50.4397 11.4155 51.5827C11.4037 50.9826 11.7186 50.619 12.4262 50.8503C12.689 51.0178 12.9108 50.894 13.1249 50.7087C13.4471 50.43 13.7614 50.0421 13.8292 49.618L13.8804 49.8124C14.2234 49.596 15.511 48.5839 15.7988 48.6609C15.6185 48.8121 16.4076 48.9186 16.9335 49.0616C17.2759 49.1545 18.6164 49.8764 18.7039 49.3205C18.7204 49.2159 18.6953 49.1311 18.6443 49.0644C18.5885 48.991 18.5 48.9345 18.3976 48.8941C18.2117 48.8209 17.9885 48.8026 17.8212 48.83C17.4186 48.8964 16.6978 48.7727 16.2309 48.5707C16.0809 48.5066 15.9536 48.4322 15.8661 48.3517C15.7565 48.251 15.6537 48.1915 15.5666 48.2541C15.6283 48.036 15.7984 47.8543 15.8928 47.7828C16.2552 47.5077 16.697 47.0973 17.0751 46.6525C17.385 46.2886 17.6515 45.9029 17.795 45.5527C17.8857 45.3316 18.0237 45.1419 18.1893 44.997C18.3527 44.8538 18.5441 44.7535 18.7435 44.709C19.3613 44.56 19.3276 43.3461 19.2354 42.2116C19.5061 43.2787 19.5298 44.1004 19.5699 44.8753C19.6096 43.9234 19.6363 42.959 19.5506 42.0093C19.4575 40.9762 19.2309 39.9562 18.7421 38.9798C19.801 40.0117 19.1709 40.1277 20.6353 40.7463C20.9629 40.9041 21.3542 41.1503 21.5593 41.6788C21.1964 41.3693 20.8686 41.1371 20.5263 40.9724C19.277 40.3701 19.9366 41.2743 20.3841 41.7516C20.879 42.2796 21.3095 42.9324 21.7681 43.6274C22.4334 44.6358 23.1584 45.7355 24.2211 46.6536C24.6752 46.7123 25.1239 46.7215 25.5676 46.6839C25.9567 46.6508 26.3415 46.5814 26.7221 46.4781L24.4284 43.9549L27.7782 46.2641C28.3523 46.2253 28.8854 46.1183 29.3822 45.9527C29.8219 45.8062 30.2346 45.6134 30.6242 45.3805L27.6934 43.7865L31.9723 44.9809C32.9801 44.7719 33.6421 44.4579 34.0728 44.0737C34.4553 43.7321 34.6559 43.3314 34.7559 42.8984C31.415 42.9151 28.7991 41.3103 26.1239 39.6694C24.7865 38.8489 23.4337 38.0194 21.972 37.3832C21.5073 37.1812 20.3276 36.8953 19.8137 37.0037C19.4459 37.0814 18.4804 37.2235 17.7715 36.8693C18.2013 36.9548 18.9968 36.9198 19.7627 36.758C20.2135 36.6626 20.6511 36.5239 20.9934 36.3413C20.5686 36.3242 20.1447 36.2669 19.7218 36.1827C19.1638 36.0712 18.606 35.9122 18.0491 35.7357L16.8922 35.3691L18.099 35.4912C19.0885 35.5912 20.0507 35.6287 20.987 35.5944C21.6988 35.5683 22.3967 35.5006 23.0809 35.387C22.6562 35.2939 22.2328 35.181 21.8116 35.0473C21.1791 34.8469 20.5481 34.5977 19.9187 34.2955L19.534 34.1108C19.4501 34.1157 19.3647 34.1188 19.2791 34.1202C18.9011 34.1268 18.1649 34.0009 17.7748 33.7287C18.2439 33.8282 18.7731 33.8781 19.2749 33.8698C19.6243 33.8641 19.9602 33.8294 20.2532 33.7639C20.1186 33.6952 19.9699 33.6265 19.8133 33.5541C19.4065 33.3659 19.0674 33.1426 18.8836 32.788C19.2253 33.0056 19.5886 33.1738 19.9186 33.3262C20.1897 33.4518 20.4389 33.5669 20.6468 33.6971L20.8708 33.8374L20.621 33.922C20.441 33.983 20.2383 34.0292 20.0209 34.0619C21.4052 34.2017 22.7934 34.2924 24.1921 34.2289C25.4256 34.1731 26.6688 33.9964 27.9273 33.6276C27.2289 33.5277 26.5303 33.4117 25.8326 33.2687C24.9483 33.0873 24.0633 32.8612 23.1778 32.5668L22.4851 32.3367C22.2051 32.4373 21.8865 32.5149 21.5538 32.5696C21.1807 32.6304 20.3338 32.5775 20.0087 32.3989C20.4869 32.4296 21.0175 32.4029 21.5136 32.3221C21.8583 32.2658 22.1856 32.1832 22.4658 32.0759C22.3224 32.0274 22.1659 31.9809 22.0011 31.9322C21.5701 31.8044 21.128 31.5535 20.9705 31.3076C21.343 31.4749 21.7255 31.5887 22.0719 31.6913C22.3608 31.777 22.626 31.8557 22.8466 31.9528L23.089 32.0594L22.853 32.1796C22.7911 32.2112 22.7259 32.2412 22.6578 32.2698L23.2286 32.3235C24.5016 32.4428 25.6954 32.3833 26.8133 32.1555C27.7671 31.9616 28.6668 31.645 29.5147 31.2126C28.6548 31.2006 27.8345 31.15 27.051 31.064C26.1159 30.961 25.2323 30.8076 24.3953 30.6089L23.6546 30.433L24.413 30.3618C26.0569 30.2073 27.5453 29.9479 28.7571 29.5014C29.8488 29.0993 30.7132 28.5455 31.26 27.7805C30.3865 27.8946 29.5298 27.9794 28.6937 28.0279C27.5129 28.0966 26.4065 28.0673 25.2323 28.0078C25.0455 28.177 24.8321 28.3412 24.6036 28.495C24.3953 28.635 24.1746 28.7666 23.9499 28.8853C24.0317 28.8795 24.1106 28.8758 24.1866 28.8758H24.4506L24.284 29.0802C24.034 29.3863 23.6673 29.6909 23.2525 29.9611C22.9364 30.1667 22.4027 30.3871 21.77 30.4277C22.2194 30.2631 22.6944 30.0249 23.116 29.7507C23.4091 29.5598 23.6758 29.3523 23.8889 29.1413C23.7378 29.1546 23.5755 29.1753 23.4049 29.1971C22.96 29.2538 22.6684 29.2333 22.2097 29.0414C23.1807 29.0494 23.653 28.8323 24.4642 28.2865C24.7544 28.0914 25.0178 27.8797 25.2274 27.6655C25.0773 27.6813 24.9146 27.7047 24.7442 27.729C24.3005 27.7923 23.8419 27.7552 23.5476 27.5915C23.9528 27.5884 24.3492 27.5317 24.7088 27.4804C25.0053 27.4381 25.2774 27.3992 25.5212 27.3954L25.7852 27.3912L25.6212 27.5984C25.5352 27.7072 25.4346 27.8162 25.3224 27.9236C26.9939 27.6076 28.8152 27.2962 30.3953 26.6826C31.4591 26.2698 32.2074 25.7666 32.4086 25.1122C31.565 25.2379 30.52 25.3796 29.4772 25.508C27.9915 25.6915 26.5147 25.8306 25.0251 25.9656C27.0024 25.4683 29.3148 24.991 31.0991 24.0575C32.242 23.4596 33.0794 22.6889 33.3751 21.6052C32.371 22.0167 31.2564 22.4182 30.1335 22.7744C28.5208 23.2853 26.965 23.6443 25.3205 23.9983C25.2078 24.2867 25.0365 24.5866 24.8272 24.8764C24.6086 25.1791 24.1987 25.5358 23.6012 25.8047C23.9773 25.5044 24.3385 25.1254 24.6239 24.7299C24.8326 24.4407 25.0008 24.1435 25.1045 23.8629C24.9335 23.9295 24.7515 24.0122 24.5585 24.0998C24.1479 24.2865 23.7123 24.3609 23.2943 24.3318C23.7207 24.205 24.1061 24.0299 24.4551 23.8711C24.7431 23.7402 25.0076 23.6198 25.2602 23.5423L25.471 23.4775L25.4189 23.6916C25.3984 23.7764 25.3715 23.8633 25.3387 23.9512C27.4936 23.126 29.9086 22.2979 31.8679 21.119C33.2148 20.3089 34.1239 19.4082 34.0849 18.3808C33.026 18.8819 31.7561 19.3764 30.4687 19.8319C29.1211 20.3086 27.7456 20.745 26.5728 21.1008L25.1983 21.5178L26.4798 20.869C26.8663 20.673 27.2001 20.5069 27.5363 20.3394C30.8753 18.6745 34.302 16.9656 34.2002 14.7785C33.0416 15.4684 31.615 16.1959 30.1687 16.8838C28.6515 17.6056 27.1092 18.2853 25.8312 18.833L24.2176 19.5245L25.7167 18.6106C28.1456 17.1296 30.2969 15.6345 31.7676 14.1043C33.146 12.6705 33.924 11.208 33.764 9.70175C30.8292 12.5518 28.0261 14.2484 25.0367 16.0574L23.0937 17.2335C23.0737 17.4249 23.0377 17.6262 22.9884 17.8341C23.2548 17.6554 23.4953 17.4648 23.7188 17.2881C23.9677 17.0908 24.1966 16.9094 24.4213 16.7749L24.6098 16.6613L24.6109 16.8817C24.6126 17.2703 24.5033 17.723 24.322 18.1738C24.1824 18.5209 23.7146 19.1763 23.355 19.3704C23.6477 18.9882 23.9071 18.5336 24.0891 18.0802C24.2223 17.7492 24.3138 17.4201 24.3468 17.1229C24.1963 17.229 24.0397 17.353 23.8738 17.4842C23.5826 17.7147 23.2633 17.9676 22.892 18.1929C22.8246 18.4193 22.7436 18.6503 22.6512 18.8812C22.4605 19.3586 22.2219 19.837 21.9583 20.2749C22.2937 20.0518 22.6023 19.847 22.8929 19.7029L23.1294 19.5854L23.0706 19.8427C22.952 20.3622 22.6916 20.9505 22.3517 21.5263C22.1007 21.9509 21.8059 22.37 21.4928 22.7508C21.6178 22.6877 21.7397 22.6247 21.8583 22.5634C22.2201 22.3761 22.5527 22.2043 22.858 22.0924L23.1062 22.0017L23.0198 22.2512C23.0046 22.2955 22.9879 22.3402 22.9704 22.3849C23.7572 22.1023 23.923 21.6983 24.24 20.9092C24.3733 20.5784 24.4649 20.2493 24.4978 19.9521C24.3473 20.058 24.1906 20.182 24.0248 20.3133C23.6718 20.5928 23.2253 20.8026 22.8542 20.8433C23.2379 20.617 23.5691 20.3549 23.8694 20.117C24.1188 19.9195 24.3478 19.7383 24.5722 19.6036L24.7608 19.4903L24.7619 19.7107C24.7636 20.0993 24.6542 20.5518 24.473 21.0027C24.3423 21.3278 24.1739 21.6532 23.9823 21.9546C24.2131 21.8504 24.4295 21.7574 24.6379 21.6935L24.8486 21.629L24.7964 21.8427C24.7047 22.22 24.4897 22.6331 24.2049 23.0275C23.9863 23.3304 23.501 23.753 22.9789 23.956C23.355 23.6554 23.7162 23.2765 24.0019 22.881C24.2105 22.5918 24.3787 22.2946 24.4818 22.0139C24.3112 22.0806 24.129 22.1633 23.936 22.2509C23.6043 22.4018 23.2409 22.567 22.8343 22.6956C22.6529 23.0716 22.4065 23.4638 22.1208 23.8451C21.8671 24.1833 21.5822 24.514 21.2842 24.818C21.503 24.7131 21.7071 24.6191 21.8987 24.5549L22.149 24.4708L22.0558 24.7179C21.9162 25.0877 21.6653 25.4931 21.3577 25.881C21.1229 26.1768 20.6558 26.5484 20.1001 26.7946C20.4743 26.4957 20.8486 26.1191 21.1612 25.7248C21.3785 25.4508 21.5651 25.1696 21.7003 24.902C21.5616 24.9624 21.4142 25.0338 21.2592 25.1084C20.8573 25.3024 20.4285 25.4063 20.077 25.3402C20.8715 25.0813 21.4331 24.3449 21.9203 23.6951C22.2359 23.2739 22.5009 22.8415 22.6775 22.4373C22.458 22.5353 22.2229 22.6572 21.9734 22.7862C21.6242 22.9668 20.8984 23.3062 20.4108 23.2276C21.2282 22.9356 21.7014 22.1333 22.1355 21.3983C22.4032 20.9453 22.6193 20.4865 22.7505 20.0657C22.5437 20.1869 22.323 20.3335 22.0891 20.4893C21.7626 20.7065 20.9537 21.1081 20.5847 21.0991C21.7242 20.5454 21.9419 19.9814 22.4183 18.7885C22.6134 18.3004 22.7568 17.8138 22.8223 17.3771C22.6354 17.529 22.4405 17.7074 22.2333 17.8965C21.9439 18.1608 21.2687 18.6132 20.8396 18.7297C21.2986 18.4115 21.7001 18.0448 22.0644 17.7119C22.3661 17.436 22.6432 17.1832 22.9073 16.9968L23.1235 16.8442L23.1048 17.1081C23.1027 17.1386 23.1001 17.169 23.0973 17.1999L24.4973 16.0915C24.808 15.8455 25.0726 15.64 25.3497 15.4247C28.3134 13.1215 32.5469 9.83145 32.5334 6.0061C31.5969 7.1347 30.1169 8.54749 28.4031 9.98993C26.9945 11.1757 25.4267 12.3825 23.8729 13.4683C22.5189 14.4142 22.4412 14.7892 21.881 16.2436C22.0141 15.3366 22.2963 14.0962 22.1978 13.2049C22.1648 12.906 22.1017 12.6012 22.0147 12.2887C20.9258 14.6219 19.0193 17.0372 17.4626 19.0094C16.252 20.5428 15.2556 21.8056 15.0388 22.525C14.7577 23.46 15.6767 24.1005 16.6642 24.789C17.7472 25.5434 18.907 26.3523 18.8156 27.7033C18.7282 28.9932 16.6233 29.9007 14.4066 30.8561C12.3856 31.7272 10.2687 32.6398 9.5966 33.866C10.1258 32.206 12.2061 31.7444 12.43 31.3385C11.9922 31.4564 11.5788 31.5987 11.1687 31.79C10.6829 32.0168 10.1981 32.3138 9.6774 32.723L9.3783 32.9581L9.51685 32.453C9.34519 32.5815 7.97436 33.831 7.39576 34.1608L7.62984 33.493C6.34952 34.6234 4.90396 34.7843 3.78438 37.4765C3.88806 37.2128 3.84056 37.0056 3.76496 36.6477C3.73253 37.1457 3.09602 38.4463 2.90841 38.8534L2.88985 38.5753C2.64399 39.1423 2.54134 39.6305 2.55192 40.5114L2.45586 40.2728C2.36205 40.7741 2.16387 42.6406 3.074 42.338C3.05666 42.2397 2.87442 41.8761 3.0003 41.6375C3.11249 42.513 4.54365 42.5678 4.39783 41.3443C4.35102 40.9537 4.29969 40.6379 4.80669 40.7224L4.80478 40.7238C4.71497 40.8257 4.66225 40.8859 4.6541 41.052C4.92858 41.173 5.07111 41.3981 5.10717 41.628C5.11446 41.6741 5.1174 41.7202 5.11602 41.7662C5.25577 41.68 5.33102 41.2048 5.04406 40.692C5.36171 40.7909 5.90564 42.1728 6.42772 41.8753C6.61879 41.7665 6.80484 41.405 7.30438 40.8776C7.80877 40.3451 8.50615 40.0864 9.14509 40.0444C9.62105 40.0129 10.0942 40.1344 10.5322 40.4593L10.1969 40.0259C10.9766 40.5764 11.4604 40.3636 12.3485 40.2149ZM19.1144 50.0874C18.8858 49.8441 18.7586 49.8679 18.8879 49.5709C19.0258 49.726 19.1314 49.888 19.1983 50.0586C19.2245 50.1254 19.2448 50.1933 19.2585 50.2634C19.2134 50.2006 19.1653 50.1417 19.1144 50.0874Z" fill="#D0D2D3"/>
<path fill-rule="evenodd" clip-rule="evenodd" d="M6.41122 34.3664C5.48792 34.9644 4.55802 35.616 3.78435 37.4768C3.88804 37.2131 3.84053 37.0059 3.76493 36.648C3.73251 37.146 3.09599 38.4466 2.90838 38.8537L2.88983 38.5756C2.64396 39.1426 2.54132 39.6309 2.55189 40.5117L2.45584 40.2731C2.41093 40.5131 2.34226 41.0655 2.38232 41.5437C2.48826 41.8487 2.76135 41.8423 2.94185 41.2084C3.07553 42.006 4.12455 41.7865 3.99138 40.7265C3.89602 39.9681 4.18835 39.1471 4.37041 38.9262C4.16928 39.0112 4.01531 39.1714 3.80447 39.3035C4.16945 38.1217 4.51502 37.5055 5.33256 36.814C5.08739 36.8455 4.83267 36.9286 4.63466 37.0402C5.21309 36.003 6.09323 35.2299 7.02988 34.5507C6.81627 34.5696 6.37151 34.7064 6.06808 34.8715C6.16674 34.701 6.28083 34.533 6.41122 34.3664Z" fill="white"/>
<path fill-rule="evenodd" clip-rule="evenodd" d="M12.3485 40.2149C12.816 40.1365 13.282 40.0586 13.7495 40.0533C14.4352 40.0456 14.3629 39.9463 14.0184 39.5463C15.3523 39.6999 15.7388 42.3411 15.8364 42.7985C16.0504 43.8007 16.1591 44.4378 16.7474 45.2519L16.9636 44.6467L17.2397 45.274C17.4599 45.2135 17.5963 45.188 17.8502 45.2583C17.5741 45.3668 17.3713 45.4825 17.1287 45.6453L16.9883 45.3255L16.8284 45.7724L16.6879 45.5907C16.5751 45.4443 16.4695 45.2954 16.3668 45.1418C16.3271 45.2997 16.333 45.419 16.3647 45.5242L16.3722 45.5407C16.4337 45.6732 16.547 45.7908 16.6347 45.908C16.7566 46.0706 16.8348 46.23 16.8745 46.4311L16.8927 46.5244L16.9993 45.9442L17.1417 46.3108L17.1596 46.3012C17.3454 46.2043 17.5433 46.0011 17.6803 45.7947C17.7243 45.7127 17.7628 45.6321 17.7952 45.553C17.8859 45.332 18.0239 45.1423 18.1895 44.9973C18.3528 44.8541 18.5443 44.7539 18.7437 44.7093C19.3614 44.5604 19.3278 43.3465 19.2356 42.212C19.5062 43.279 19.53 44.1007 19.57 44.8756C19.6097 43.9237 19.6364 42.9593 19.5508 42.0096C19.4577 40.9766 19.2311 39.9565 18.7423 38.9801C19.8012 40.012 19.1711 40.128 20.6355 40.7466C20.9631 40.9044 21.3544 41.1506 21.5595 41.6791C21.1966 41.3696 20.8687 41.1375 20.5265 40.9727C19.2772 40.3704 19.9368 41.2746 20.3843 41.752C20.8791 42.2799 21.3097 42.9328 21.7683 43.6277C22.4336 44.6361 23.1585 45.7358 24.2212 46.6539C24.6754 46.7127 25.1241 46.7219 25.5678 46.6842C25.9569 46.6511 26.3416 46.5818 26.7222 46.4784L24.4286 43.9552L24.4831 43.9927L24.4376 43.9429L23.3574 42.6819L27.5677 46.1193L27.7785 46.2646C28.3526 46.2258 28.8858 46.1188 29.3826 45.9532C29.8223 45.8067 30.235 45.6139 30.6246 45.381L27.6937 43.7871L27.7628 43.8065L27.6981 43.7711L26.5164 43.1341L31.647 44.8903L31.9727 44.9812C32.9804 44.7723 33.6424 44.4582 34.0731 44.074C34.371 43.808 34.5586 43.5063 34.6743 43.1814L34.6639 43.1812C28.8151 43.1224 26.8091 39.6059 21.966 37.499C21.5916 37.3364 20.8249 37.0581 20.2554 36.9858C20.0845 36.9749 19.9319 36.979 19.814 37.004C19.4462 37.0817 18.4808 37.2239 17.7718 36.8696C18.2016 36.9551 18.9972 36.9201 19.763 36.7583C20.2138 36.6629 20.6515 36.5242 20.9938 36.3417C20.5689 36.3245 20.145 36.2673 19.7221 36.183C19.1641 36.0715 18.6063 35.9125 18.0494 35.736L16.8925 35.3695L17.8349 35.465L17.8377 35.4506L17.8221 35.4459C16.9725 35.2002 16.1589 34.8439 15.4496 34.3102L15.3736 34.253L15.4231 34.3343C15.8955 35.1054 16.5645 35.642 17.4006 35.9749C16.8445 36.0322 16.306 35.9546 15.7849 35.7414L15.7405 35.7232L15.7617 35.7663C16.1076 36.4648 16.6768 37.2044 17.3725 37.5845C17.9651 37.9086 18.6388 38.1957 19.1683 38.624C18.8125 38.4589 18.4317 38.3126 18.044 38.2668L18.0144 38.2633L18.0246 38.2911C18.4187 39.3401 18.6188 40.3589 18.5935 41.4718C18.4836 41.0288 18.3695 40.5953 18.2094 40.1647L18.1723 40.0645L18.1744 40.1713C18.1952 41.2268 18.4936 42.8637 17.3628 43.4697C16.9508 43.2403 16.6928 42.9418 16.5881 42.4679L16.5759 42.4122L16.5539 42.4649C16.4608 42.6871 16.3963 42.9156 16.3429 43.1493C15.8584 41.271 16.0291 40.6528 14.5346 39.2024C14.8821 39.1504 15.2401 39.1681 15.5879 39.208L15.6682 39.217L15.5996 39.1743C14.7851 38.6694 13.8325 38.4203 12.8865 38.3136C13.4582 38.1402 14.0524 38.0952 14.6475 38.0764L14.7448 38.0731L14.653 38.0412C13.2656 37.5561 11.6771 36.9759 10.1808 37.1122C10.6768 36.519 11.5528 36.2621 12.2748 36.0861L12.3372 36.071L12.276 36.0514C11.3395 35.7495 9.98171 35.9052 9.27739 36.6503L9.23422 36.6961L9.29525 36.6803C9.49569 36.6288 9.70879 36.5541 9.91859 36.5792C8.98904 37.1601 8.33467 38.0544 7.38275 38.6341C7.49077 38.6531 7.59915 38.6724 7.70734 38.6913C7.14972 39.0661 6.45373 39.0391 5.84877 39.4747C6.01574 39.4348 6.14908 39.4046 6.32386 39.4434C5.97517 39.6845 5.14723 40.7111 5.43003 41.1116C5.72323 41.5279 6.08024 42.0729 6.42772 41.8751C6.61879 41.7664 6.80484 41.4048 7.30438 40.8774C7.80877 40.3449 8.50615 40.0862 9.1451 40.0442C9.62105 40.0127 10.0942 40.1342 10.5322 40.4592L10.1969 40.0257C10.9766 40.5764 11.4604 40.3636 12.3485 40.2149Z" fill="#6D6E70"/>
<path d="M22.4086 14.9609C22.686 14.4213 23.0347 14.0544 23.8729 13.469C25.4266 12.3833 26.9944 11.1765 28.403 9.99064C29.9736 8.66888 31.3472 7.37209 32.2866 6.2962C30.8461 8.47538 29.2948 10.3965 27.5796 11.9357C27.7121 11.6687 27.8116 11.3852 27.8435 11.0681C26.0562 12.6189 24.2434 13.9053 22.4086 14.9609ZM23.6034 30.6163C24.0981 30.8539 24.7329 31.12 25.2473 31.2912C25.1079 31.3298 25.0327 31.382 24.8917 31.4226C26.0586 31.5786 27.2774 31.5795 28.614 31.3678C26.9455 31.274 25.2465 30.9312 23.6034 30.6163ZM25.4185 28.1977C25.9485 28.3397 26.6214 28.484 27.1591 28.5568C27.0291 28.6203 26.9649 28.6861 26.8338 28.7517C28.0094 28.6894 29.2074 28.4649 30.4816 28.0099C28.8244 28.2263 27.0913 28.2032 25.4185 28.1977ZM24.6569 26.1545C25.4185 26.2257 26.3806 26.28 27.1439 26.2814C26.9698 26.3618 26.8876 26.4355 26.7123 26.5181C28.3534 26.3006 30.0053 25.919 31.7363 25.2977C29.4382 25.7321 27.0041 25.9389 24.6569 26.1545ZM25.5005 24.1768C26.3423 24.1603 27.3974 24.0896 28.2239 23.9751C28.0552 24.1142 27.9846 24.2302 27.8154 24.3729C29.5382 23.8173 31.2319 23.0308 32.9509 21.8965C30.5964 22.9979 28.0103 23.6441 25.5005 24.1768ZM25.1844 21.7788C26.1713 21.711 27.4057 21.5669 28.3687 21.385C28.1787 21.5582 28.1029 21.6982 27.9122 21.8752C29.9018 21.1242 31.8436 20.1031 33.7957 18.673C31.0968 20.1016 28.0993 21.0089 25.1844 21.7788ZM25.3931 19.1873C28.2296 18.1664 31.1364 17.0008 33.7005 15.3422C31.8807 16.937 30.0352 18.1237 28.1187 19.0453C28.2934 18.8523 28.3569 18.7063 28.5308 18.517C27.5871 18.7826 26.3702 19.0338 25.3931 19.1873ZM24.7285 16.4385C25.7923 16.0768 27.1069 15.5594 28.1147 15.0793C27.952 15.3247 27.9054 15.5006 27.7428 15.7503C29.7265 14.3469 31.5877 12.661 33.3526 10.5229C30.7688 12.8767 27.7213 14.7454 24.7285 16.4385Z" fill="white"/>
<path d="M15.3889 23.7649C15.0623 23.3977 14.8965 22.9996 15.0389 22.5257C15.2554 21.8063 16.2521 20.5433 17.4627 19.01C18.8985 17.1914 20.6319 14.9948 21.7468 12.834C21.2754 14.6614 20.5809 16.6254 19.5368 18.0422C19.5964 17.801 19.6408 17.5475 19.65 17.2687C18.6691 18.8467 17.33 19.9342 16.538 21.6631C16.4804 21.454 16.495 21.2627 16.538 21.0786C16.2283 21.6544 15.7033 22.158 15.5762 23.2285C15.4881 23.0149 15.4661 22.7915 15.5006 22.5874C15.1736 22.9795 15.1696 23.3722 15.3889 23.7649Z" fill="white"/>
<path d="M12.3026 31.8044C12.9709 31.4755 13.6951 31.1635 14.407 30.8565C15.6964 30.3009 16.9472 29.7618 17.7857 29.1539C15.9294 31.0806 12.6522 32.2186 13.7596 34.1774C14.1837 34.9282 14.8412 34.6 15.7212 35.3657C15.2835 35.2285 14.8324 35.1383 14.3443 35.1772C14.6732 35.3412 14.8957 35.5475 15.0987 35.7618C14.2534 35.3736 13.3918 35.1314 12.4961 35.1959C12.7616 35.0104 13.0478 34.8722 13.3636 34.7999C12.5825 34.6525 11.7873 34.6133 10.9306 35.0452C11.1057 34.5362 11.4471 34.1771 11.8736 33.8946C11.0074 34.3404 10.1541 34.8209 9.51587 35.8749C9.65285 35.4385 9.83803 35.0411 10.1005 34.7056C9.74665 34.9535 9.43611 35.2878 9.15747 35.6864C9.803 33.5043 10.5508 33.0235 12.3026 31.8044Z" fill="white"/>
<path d="M9.20545 35.934C9.24412 36.6083 8.95785 37.1908 8.42866 37.4753C8.60517 37.3033 8.82434 36.9041 8.893 36.6085C8.51258 36.999 7.90017 37.1736 7.60315 37.8221C7.61078 37.0463 8.79452 36.4703 9.20545 35.934Z" fill="#231F20"/>
<path d="M10.9192 38.6115C10.2005 38.285 9.55778 38.2394 8.7926 38.2366C9.16175 37.9719 9.50576 37.7144 9.92814 37.5315C9.80469 37.5218 9.67846 37.5204 9.54234 37.5271C9.92987 37.194 10.6101 37.3017 10.9688 37.4767C10.4419 37.5087 10.0323 37.7161 9.5628 38.0072C10.565 38.1059 11.1509 38.3441 11.8972 39.0294C11.1724 38.8295 10.3791 38.6772 9.70967 38.7865C10.0887 38.5517 10.5031 38.4877 10.9192 38.6115Z" fill="#231F20"/>
<path d="M9.47901 33.4351C8.93213 33.8072 8.32457 34.1894 8.36427 34.9743C8.45496 34.7042 8.62852 34.4524 8.82584 34.2478C8.60997 34.8422 8.5772 35.482 8.81838 36.1945C8.75007 35.1959 8.98103 34.215 9.47901 33.4351Z" fill="#231F20"/>
<path d="M10.916 40.1878C10.5444 39.665 10.1635 39.0828 9.37856 39.174C9.64853 39.2468 9.90012 39.4043 10.1044 39.5879C9.51016 39.4108 8.8707 39.4204 8.15771 39.7082C9.15627 39.5745 10.1366 39.7408 10.916 40.1878Z" fill="#231F20"/>
<path d="M6.82129 35.9836C7.26985 35.3819 7.4878 34.9792 7.77893 34.3066C7.84377 34.9651 8.02792 35.8302 7.31216 36.1487C7.46145 35.9066 7.54329 35.6112 7.57415 35.3289C7.40093 35.6268 7.21055 35.8818 7.0226 36.1336C6.84227 36.3755 6.66368 36.6149 6.50867 36.8807C6.51144 36.5197 6.55548 36.3398 6.82129 35.9836Z" fill="#231F20"/>
<path d="M24.2235 41.9094C23.7744 41.5394 23.3416 41.1826 22.914 40.864L22.5302 40.5783L23.6232 40.726C23.1727 40.3994 22.7037 40.0984 22.2115 39.8449C23.1022 39.9531 24.1191 40.793 24.5153 41.0978L23.4247 40.9506C23.7354 41.1942 24.0503 41.4537 24.3736 41.7201C25.0891 42.3096 25.8461 42.9335 26.6877 43.4906C25.3795 42.9073 24.6176 42.2344 24.2235 41.9094ZM22.6508 38.315C22.3562 38.1676 20.0583 36.9296 19.3112 37.6726C20.1871 37.3837 21.4094 37.9686 22.4409 38.4825L21.4007 38.4241L21.8897 38.6894C22.5922 39.0708 23.3224 39.5839 24.1137 40.1403C24.8139 40.6322 28.1055 42.9961 30.6429 43.2848C27.964 42.5501 25.9612 41.1427 24.2472 39.938C23.6184 39.4958 23.0278 39.0809 22.454 38.7338L23.6466 38.8014L23.084 38.5293C22.9541 38.4662 22.8045 38.3915 22.6508 38.315Z" fill="#231F20"/>
<path d="M10.9399 21.458C11.1105 21.0073 11.2284 20.497 11.2726 20.011C11.3047 19.6559 11.2979 19.3143 11.2442 19.0201C11.1302 19.1652 11.016 19.3287 10.895 19.5019C10.6735 19.8194 10.429 20.1691 10.1195 20.5052C10.1204 20.7034 10.1135 20.9068 10.0994 21.1124C10.0646 21.6173 9.98552 22.1382 9.87108 22.6303C10.0603 22.379 10.2378 22.1498 10.4169 21.9648L10.6007 21.7749L10.6316 22.038C10.6883 22.5247 10.6428 23.1147 10.5251 23.7183C10.432 24.1955 10.2926 24.6829 10.1227 25.1354C10.261 25.0267 10.3935 24.9285 10.5234 24.8484L10.7484 24.7097L10.7136 24.9712C10.6633 25.3506 10.5161 25.7874 10.3117 26.2198C10.1518 26.5584 9.75179 27.0243 9.32143 27.3513C9.60787 26.9877 9.8775 26.5513 10.0847 26.1126C10.2272 25.8113 10.3401 25.5099 10.4086 25.232C10.2943 25.3176 10.1742 25.4146 10.0485 25.5162C9.79757 25.7185 9.5236 25.9398 9.21375 26.1379C9.17405 26.2342 9.13139 26.3306 9.08597 26.4272C8.92575 26.766 8.56857 27.3262 8.09556 27.5587C8.38218 27.1953 8.65162 26.7587 8.85882 26.3202C8.96667 26.0917 9.12637 25.6674 9.18255 25.4395C9.06845 25.525 8.9483 25.6221 8.82259 25.7237C8.47477 26.0043 8.20289 26.1464 7.75606 26.1948C8.09105 25.9918 8.39206 25.7487 8.66515 25.5281C8.89039 25.3464 9.09724 25.1794 9.29768 25.0556L9.5224 24.9169L9.48771 25.1786C9.46448 25.3535 9.42061 25.541 9.36027 25.7343C9.98829 25.2781 10.1357 24.402 10.2787 23.6704C10.3689 23.2071 10.4154 22.7548 10.4032 22.3568C10.2666 22.5205 10.1263 22.7074 9.97824 22.9051C9.74919 23.2111 9.34363 23.7179 8.84686 23.8825C9.74034 22.975 9.75439 22.4671 9.84941 21.0959C9.88547 20.5711 9.87351 20.0642 9.80225 19.6289C9.67185 19.83 9.54043 20.0597 9.40102 20.3035C9.20734 20.6427 8.89992 21.0583 8.32842 21.5233C9.1744 20.42 9.19659 19.887 9.104 18.4866C9.06949 17.9622 8.98904 17.4618 8.85987 17.0401C8.75722 17.2574 8.65804 17.5022 8.55297 17.7625C8.40593 18.1264 8.10943 18.6007 7.65446 19.116C7.93067 18.6319 8.13492 18.1271 8.3201 17.669C8.47303 17.291 8.61348 16.9436 8.7723 16.6599L8.90148 16.4291L8.99875 16.6755C9.05094 16.8081 9.09741 16.9505 9.13885 17.1007L9.46483 16.0268C9.66978 15.3522 9.90524 14.6607 10.1487 13.9467C11.2714 10.6505 12.559 6.87026 11.339 3.44562C10.5735 6.27241 9.76497 8.99551 8.89281 11.5638C7.77253 14.8617 6.40067 17.8631 5.11272 21.0633C5.38737 19.8567 5.82206 19.0083 5.19248 17.8613C5.10058 17.6937 5.00366 17.5411 4.90673 17.4265C4.58856 19.8461 3.4643 22.0423 2.51793 23.891C1.61561 25.6538 0.877654 27.0951 1.18074 28.0612C1.54365 29.2186 2.9339 29.3897 4.38119 29.5676C5.56285 29.7129 6.78126 29.8627 7.57608 30.5494C7.99569 30.9117 8.25942 31.3128 8.41824 31.7548C8.54516 32.1064 8.60377 32.4818 8.62232 32.8832C8.83265 32.6926 8.8538 32.2364 8.7515 31.7432C8.24381 29.2968 6.46448 29.2595 3.93106 28.8411C6.23577 29.0539 8.65301 28.8534 9.12914 32.4369C9.29751 32.3023 9.47384 32.1719 9.66041 32.0412L9.94495 31.8422L9.81872 32.3027C10.2451 31.9937 10.6529 31.7549 11.0633 31.5637C11.5899 31.3178 12.1253 30.2303 12.595 29.6373C12.977 29.1553 13.367 28.663 13.4251 28.0426C13.2243 28.1312 13.0145 28.2055 12.8068 28.2677C12.5368 28.349 12.2675 28.4111 12.0249 28.4607L11.6301 28.5417C11.5713 28.7029 11.5025 28.8669 11.425 29.0301C11.2651 29.3689 10.9125 29.7877 10.4348 30.1617C10.7212 29.7984 10.9908 29.3616 11.198 28.9231C11.3406 28.6216 11.4533 28.3202 11.5218 28.0423C11.4077 28.128 11.2875 28.2247 11.1618 28.3267C10.8138 28.6072 10.4946 28.7496 10.0951 28.7976C10.4303 28.5945 10.7314 28.3516 11.0044 28.1311C11.2296 27.9494 11.4365 27.7824 11.6367 27.6586L11.8618 27.5199L11.8269 27.7813C11.8013 27.9752 11.7505 28.184 11.679 28.3995L11.9306 28.2332C12.5553 27.8191 13.0389 27.3671 13.384 26.865C13.6664 26.4539 13.8575 26.0074 13.9589 25.5188C13.6678 25.7502 13.4112 25.9417 13.1445 26.1121C12.5895 26.466 12.0293 26.6777 11.4259 26.9172C11.7206 26.6193 12.0152 26.3214 12.3121 26.0256C13.3817 24.9585 13.9945 24.3465 14.1863 23.362C13.8422 23.6077 13.5364 23.7987 13.2276 23.969C12.5794 24.3262 11.875 24.6229 11.1991 24.9289C12.5586 23.7609 15.4874 21.6965 15.1406 19.7877C14.6932 20.2503 14.2421 20.6883 13.7857 21.0871C13.001 21.7728 12.2625 22.2372 11.391 22.7771C12.8092 21.2934 14.1544 19.8031 14.9389 17.865C15.3818 16.7714 15.4955 15.7883 15.1155 15.1171C14.6827 15.8727 14.1937 16.6367 13.6862 17.3257C13.1946 17.9933 12.6857 18.5906 12.1936 19.0425L11.5427 19.64C11.5415 19.7684 11.5348 19.9 11.5226 20.033C11.4883 20.4063 11.3468 20.9581 10.9399 21.458ZM9.16243 17.1936L9.69648 16.1189C10.446 14.6111 11.1259 12.9955 11.7447 11.2853C12.3235 9.68473 12.8484 8.00267 13.3259 6.24987C13.7979 7.52134 13.9114 8.98077 13.6397 10.642C13.1808 13.4468 11.8725 15.8332 10.5412 18.288C11.7309 16.7273 12.5916 15.5133 13.4655 13.6992C14.0058 12.5772 14.5022 11.3566 14.8656 10.1883C16.0436 13.1964 14.2251 15.7477 12.6954 17.893C12.4544 18.2308 12.2205 18.559 12.0041 18.8809L11.5422 19.567C11.54 19.255 11.5036 18.963 11.4276 18.7132L11.3631 18.502L11.2149 18.6652C11.0394 18.8576 10.8719 19.0976 10.6898 19.3587C10.5163 19.6072 10.3287 19.8758 10.1085 20.1385C10.0908 19.8319 10.0514 19.5437 9.98864 19.2866L9.9257 19.0295L9.76653 19.2405C9.62244 19.4321 9.48424 19.6573 9.34154 19.9026C9.38056 19.4312 9.38524 18.9419 9.35421 18.4711C9.32404 18.0184 9.26092 17.582 9.16243 17.1936Z" fill="#6D6E70"/>
<path d="M10.9399 21.458C11.1105 21.0073 11.2284 20.497 11.2726 20.011C11.3047 19.6559 11.2979 19.3143 11.2442 19.0201C11.1302 19.1652 11.016 19.3287 10.895 19.502C10.6735 19.8194 10.429 20.1692 10.1195 20.5052C10.1204 20.7034 10.1135 20.9068 10.0994 21.1124C10.0646 21.6173 9.98552 22.1382 9.87108 22.6303C10.0603 22.379 10.2378 22.1498 10.4169 21.9648L10.6007 21.7749L10.6316 22.038C10.6883 22.5247 10.6428 23.1147 10.5251 23.7183C10.432 24.1955 10.2926 24.6829 10.1227 25.1354C10.261 25.0267 10.3935 24.9286 10.5234 24.8485L10.7484 24.7097L10.7136 24.9712C10.6633 25.3506 10.5161 25.7874 10.3117 26.2198C10.1518 26.5584 9.75179 27.0243 9.32143 27.3513C9.60787 26.9877 9.8775 26.5513 10.0847 26.1126C10.2272 25.8113 10.3401 25.5099 10.4086 25.232C10.2943 25.3176 10.1742 25.4146 10.0485 25.5162C9.79757 25.7185 9.5236 25.9398 9.21375 26.138C9.17405 26.2342 9.13139 26.3306 9.08597 26.4272C8.92575 26.766 8.56857 27.3262 8.09556 27.5587C8.38218 27.1953 8.65162 26.7587 8.85882 26.3202C8.96667 26.0917 9.12637 25.6674 9.18255 25.4395C9.06845 25.525 8.9483 25.6221 8.82259 25.7237C8.47477 26.0043 8.20289 26.1465 7.75606 26.1948C8.09105 25.9918 8.39206 25.7487 8.66515 25.5281C8.89039 25.3464 9.09724 25.1795 9.29768 25.0557L9.5224 24.9169L9.48771 25.1786C9.46448 25.3535 9.42061 25.541 9.36027 25.7343C9.98829 25.2781 10.1357 24.402 10.2787 23.6704C10.3689 23.2071 10.4154 22.7548 10.4032 22.3568C10.2666 22.5205 10.1263 22.7074 9.97824 22.9051C9.74919 23.2111 9.34363 23.7179 8.84686 23.8825C9.74034 22.975 9.75439 22.4671 9.84941 21.0959C9.88547 20.5711 9.87351 20.0643 9.80225 19.6289C9.67185 19.83 9.54043 20.0597 9.40102 20.3035C9.20734 20.6427 8.89992 21.0583 8.32842 21.5233C9.1744 20.4201 9.19659 19.8871 9.104 18.4866C9.06949 17.9622 8.98904 17.4618 8.85987 17.0401C8.75722 17.2574 8.65804 17.5022 8.55297 17.7625C8.40593 18.1264 8.10943 18.6007 7.65446 19.116C7.93067 18.6319 8.13492 18.1271 8.3201 17.669C8.47303 17.291 8.61348 16.9436 8.7723 16.6599L8.90148 16.4291L8.99875 16.6755C9.05094 16.8082 9.09741 16.9505 9.13885 17.1007L9.46483 16.0269C9.66978 15.3522 9.90524 14.6607 10.1487 13.9467C10.3193 13.4447 10.4941 12.9317 10.6635 12.4104C11.2331 9.59701 11.3184 7.23005 10.7892 5.4306C10.1882 7.55013 9.55898 9.60238 8.89281 11.5638C7.77253 14.8617 6.40067 17.8631 5.11272 21.0633C5.38737 19.8567 5.82206 19.0083 5.19248 17.8613C5.10058 17.6937 5.00366 17.5411 4.90673 17.4265C4.58856 19.8461 3.4643 22.0423 2.51793 23.891C1.61561 25.6539 0.877654 27.0951 1.18074 28.0612C1.25565 28.2993 1.37355 28.4956 1.527 28.6587C1.87968 28.8801 2.28766 28.9719 2.70051 29.0397C4.89858 29.4013 6.6526 29.0813 8.12209 30.2933C7.28548 29.2528 5.81756 29.1522 3.93124 28.8408C5.7723 29.0107 7.68462 28.9172 8.62284 30.6992C9.23838 30.4878 9.8175 30.1506 10.2638 29.3599C9.81143 29.4998 9.35854 29.5597 8.90599 29.4731C9.8931 28.8494 10.7243 28.2112 10.9054 27.5116C10.3663 27.7931 9.8104 28.0607 9.09464 28.1906C10.5107 27.4018 12.2413 26.0637 13.1662 24.0023C12.5352 24.3448 11.854 24.6324 11.1993 24.9289C11.5481 24.6295 12.0001 24.2704 12.474 23.8705C13.144 23.0865 13.5026 22.2443 13.4936 21.3343C12.8146 21.8899 12.1539 22.3046 11.3915 22.777C11.769 22.382 12.1415 21.9868 12.4992 21.5825C13.3703 20.1792 13.848 18.821 13.5144 17.5556C13.0769 18.1301 12.6289 18.643 12.194 19.0423L11.5431 19.6398C11.5419 19.7683 11.5351 19.8999 11.523 20.0329C11.4883 20.4064 11.3468 20.9581 10.9399 21.458ZM12.6273 17.9888C12.4104 18.2931 12.2001 18.5896 12.0041 18.881L11.5422 19.5671C11.54 19.2552 11.5036 18.9632 11.4276 18.7134L11.3631 18.5022L11.2149 18.6653C11.0394 18.8578 10.8719 19.0978 10.6898 19.3589C10.5163 19.6074 10.3287 19.876 10.1085 20.1386C10.0908 19.8321 10.0514 19.5439 9.98864 19.2868L9.9257 19.0296L9.76653 19.2407C9.62244 19.4322 9.48424 19.6575 9.34154 19.9028C9.38056 19.4314 9.38524 18.9421 9.35421 18.4713C9.32421 18.0186 9.26109 17.5822 9.16278 17.1938L9.69682 16.1191C10.4464 14.6113 11.1263 12.9956 11.7451 11.2855C11.8333 11.0414 11.9204 10.7951 12.0064 10.5472C12.851 11.9688 12.177 14.3353 11.3397 16.8031C11.0793 17.2982 10.8107 17.7921 10.5414 18.2882C11.731 16.7275 12.5918 15.5134 13.4656 13.6994C13.5164 13.5938 13.5669 13.4874 13.617 13.38C13.9822 14.6926 13.5796 16.2486 12.6273 17.9888Z" fill="#BBBDBF"/>
<path d="M10.2848 7.16907C9.83794 8.67566 9.37482 10.1434 8.89245 11.564C7.77217 14.8619 6.4003 17.8633 5.11236 21.0636C5.38701 19.8569 5.8217 19.0085 5.19211 17.8615C5.10022 17.6939 5.00329 17.5413 4.90637 17.4267C4.5882 19.8464 3.46393 22.0425 2.51756 23.8912C1.61524 25.6541 0.877288 27.0953 1.18037 28.0614C1.18679 28.0817 1.19356 28.1018 1.20032 28.1216C1.4318 26.9101 1.89821 25.8748 2.66859 25.068C2.64327 25.42 2.61848 25.7722 2.59334 26.1243C3.21789 23.852 4.11328 22.8646 4.55491 21.1073C4.55282 21.8938 4.44393 22.6095 4.29083 23.2951C5.89695 20.1886 7.15646 17.7527 8.36499 14.4686C8.40262 14.9212 8.44042 15.3739 8.47804 15.8266C9.72871 13.3114 10.2293 10.3674 10.2848 7.16907Z" fill="white"/>
<path d="M14.4167 32.0815C15.3846 31.1873 16.9323 30.3425 18.1477 29.6788L18.2984 29.5964C18.723 29.3644 19.0742 29.0804 19.3147 28.7532C19.5208 28.4725 19.6457 28.1587 19.6649 27.8178C19.6842 27.4738 19.5964 27.0989 19.3776 26.6984C19.0731 26.1408 18.5169 25.5358 17.6451 24.8955L17.4443 24.7497C17.2683 24.6222 17.1034 24.5027 16.9506 24.3774C16.1326 23.7048 15.8848 23.0402 17.4306 21.1603C17.6432 20.9019 17.9218 20.6127 18.2429 20.28C19.0466 19.4474 20.1175 18.337 21.0087 16.8205C20.3619 18.4081 18.8746 19.9866 18.4238 20.4541C18.1046 20.7849 17.8271 21.0726 17.6243 21.3193C16.2172 23.0307 16.4142 23.6122 17.11 24.1839C17.2487 24.2978 17.4145 24.418 17.5917 24.5461L17.7932 24.6931C18.6963 25.3565 19.2763 25.9899 19.5978 26.5784C19.8402 27.0225 19.9371 27.4422 19.9155 27.8315C19.8934 28.2239 19.7514 28.5825 19.5168 28.9017C19.254 29.2595 18.8746 29.5673 18.4184 29.8168L18.2675 29.899C16.3674 30.9362 13.6307 32.4302 13.7486 33.727C13.4667 33.0603 14.2208 32.2623 14.4167 32.0815Z" fill="#231F20"/>
<path fill-rule="evenodd" clip-rule="evenodd" d="M4.62563 41.323C4.67366 41.323 4.72169 41.3809 4.73227 41.4527C4.74319 41.5245 4.71285 41.5822 4.66482 41.5822C4.61662 41.5822 4.56859 41.5245 4.55784 41.4527C4.54743 41.3809 4.5776 41.323 4.62563 41.323Z" fill="white"/>
<path fill-rule="evenodd" clip-rule="evenodd" d="M14.8468 42.2241C14.9406 42.2241 15.1259 42.642 15.261 43.1577C15.3956 43.6733 15.4292 44.0915 15.3356 44.0915C15.2418 44.0915 14.8678 43.3527 14.7329 42.8372C14.5981 42.3216 14.7531 42.2241 14.8468 42.2241ZM11.9244 47.8054C11.9255 47.8401 12.0824 47.9035 12.2747 47.9467C12.4668 47.9902 12.8009 47.9455 12.7997 47.9106C12.7987 47.8763 12.441 47.7473 12.2485 47.704C12.056 47.6606 11.9232 47.7709 11.9244 47.8054Z" fill="#BBBDBF"/>
<path d="M60.9501 34.5H58.38L49.1728 20.2401C48.94 19.8824 48.7487 19.5082 48.5989 19.1173H48.5241C48.5906 19.4999 48.6239 20.3191 48.6239 21.575V34.5H46.528V16.6096H49.2477L58.2054 30.645C58.5796 31.2272 58.8208 31.6264 58.929 31.8426H58.9789C58.8957 31.327 58.8541 30.4495 58.8541 29.2102V16.6096H60.9501V34.5ZM70.803 34.5H68.707V16.6096H70.803V34.5ZM91.9591 33.2774C90.1625 34.2921 88.1664 34.7994 85.9706 34.7994C83.4173 34.7994 81.3504 33.976 79.7701 32.3292C78.1982 30.6824 77.4122 28.5033 77.4122 25.7918C77.4122 23.0222 78.2855 20.7516 80.0321 18.98C81.7871 17.2001 84.0078 16.3102 86.6942 16.3102C88.6405 16.3102 90.2748 16.6262 91.5973 17.2584V19.5789C90.1501 18.664 88.4367 18.2065 86.4572 18.2065C84.4527 18.2065 82.8101 18.8969 81.5292 20.2775C80.2484 21.6582 79.608 23.4464 79.608 25.6421C79.608 27.9044 80.2026 29.6843 81.392 30.9818C82.5814 32.271 84.1949 32.9156 86.2326 32.9156C87.6299 32.9156 88.8401 32.6369 89.8631 32.0797V27.0644H85.9457V25.1681H91.9591V33.2774ZM108.674 34.5H99.1921V16.6096H108.274V18.5059H101.288V24.4569H107.751V26.3408H101.288V32.6037H108.674V34.5ZM128.008 34.5H125.513L122.519 29.4847C122.244 29.0189 121.978 28.6239 121.72 28.2995C121.463 27.9668 121.196 27.6965 120.922 27.4886C120.656 27.2806 120.365 27.1309 120.049 27.0394C119.741 26.9396 119.392 26.8897 119.001 26.8897H117.279V34.5H115.183V16.6096H120.523C121.305 16.6096 122.024 16.7094 122.681 16.909C123.346 17.1003 123.92 17.3956 124.403 17.7948C124.894 18.194 125.276 18.6931 125.551 19.2919C125.825 19.8824 125.962 20.5769 125.962 21.3754C125.962 21.9992 125.867 22.5731 125.675 23.0971C125.492 23.6127 125.226 24.0743 124.877 24.4819C124.536 24.8894 124.12 25.2388 123.629 25.5299C123.147 25.8126 122.602 26.033 121.995 26.1911V26.241C122.294 26.3741 122.552 26.5279 122.768 26.7026C122.993 26.8689 123.205 27.0685 123.405 27.3014C123.604 27.5343 123.8 27.8005 123.991 28.0999C124.191 28.391 124.411 28.732 124.652 29.1229L128.008 34.5ZM117.279 18.5059V24.9934H120.124C120.648 24.9934 121.13 24.9144 121.571 24.7564C122.02 24.5983 122.407 24.3738 122.731 24.0827C123.055 23.7832 123.309 23.4214 123.492 22.9973C123.675 22.5648 123.767 22.0824 123.767 21.5501C123.767 20.5936 123.455 19.8492 122.831 19.3169C122.215 18.7763 121.321 18.5059 120.149 18.5059H117.279ZM135.641 34.5H133.545V16.6096H135.641V34.5ZM157.271 34.5H154.95L153.054 29.4847H145.469L143.684 34.5H141.351L148.213 16.6096H150.384L157.271 34.5ZM152.368 27.6008L149.561 19.9781C149.469 19.7286 149.378 19.3294 149.286 18.7804H149.236C149.153 19.2878 149.057 19.687 148.949 19.9781L146.167 27.6008H152.368ZM47.8225 49.274C47.8225 49.6287 47.8412 49.918 47.8785 50.142C47.9252 50.3567 48.0185 50.5247 48.1585 50.646C48.2985 50.758 48.4945 50.8373 48.7465 50.884C49.0078 50.9307 49.3485 50.9587 49.7685 50.968V51.5H44.8125V50.968C45.1392 50.9587 45.4005 50.9307 45.5965 50.884C45.8018 50.8373 45.9605 50.758 46.0725 50.646C46.1845 50.534 46.2592 50.3753 46.2965 50.17C46.3338 49.9647 46.3525 49.6987 46.3525 49.372V42.848C46.3525 42.5213 46.3338 42.26 46.2965 42.064C46.2685 41.8587 46.2032 41.7 46.1005 41.588C46.0072 41.4667 45.8672 41.3873 45.6805 41.35C45.4938 41.3033 45.2512 41.2707 44.9525 41.252V40.72H53.0445L53.1985 43.394H52.7085C52.6525 42.9927 52.5638 42.666 52.4425 42.414C52.3212 42.1527 52.1485 41.9473 51.9245 41.798C51.7098 41.6487 51.4345 41.546 51.0985 41.49C50.7625 41.4247 50.3425 41.392 49.8385 41.392H48.0605C47.9018 41.392 47.8225 41.4713 47.8225 41.63V45.858C48.2705 45.858 48.6532 45.8347 48.9705 45.788C49.2972 45.732 49.5632 45.6387 49.7685 45.508C49.9832 45.3773 50.1465 45.2 50.2585 44.976C50.3705 44.752 50.4405 44.4627 50.4685 44.108H50.9585V48.21H50.4685C50.4218 47.8553 50.3472 47.5613 50.2445 47.328C50.1418 47.0947 49.9878 46.9127 49.7825 46.782C49.5865 46.6513 49.3298 46.558 49.0125 46.502C48.6952 46.446 48.2985 46.418 47.8225 46.418V49.274ZM59.3572 43.94C59.8892 43.94 60.3932 44.038 60.8692 44.234C61.3452 44.4207 61.7605 44.682 62.1152 45.018C62.4792 45.354 62.7638 45.7553 62.9692 46.222C63.1838 46.6793 63.2912 47.1833 63.2912 47.734C63.2912 48.3033 63.1838 48.826 62.9692 49.302C62.7638 49.778 62.4792 50.1887 62.1152 50.534C61.7605 50.8793 61.3452 51.15 60.8692 51.346C60.3932 51.542 59.8892 51.64 59.3572 51.64C58.8345 51.64 58.3352 51.5467 57.8592 51.36C57.3925 51.164 56.9818 50.8933 56.6272 50.548C56.2725 50.2027 55.9925 49.792 55.7872 49.316C55.5818 48.8307 55.4792 48.3033 55.4792 47.734C55.4792 47.1833 55.5818 46.6747 55.7872 46.208C55.9925 45.7413 56.2725 45.34 56.6272 45.004C56.9818 44.668 57.3925 44.4067 57.8592 44.22C58.3352 44.0333 58.8345 43.94 59.3572 43.94ZM59.3572 44.612C59.0118 44.612 58.6945 44.6867 58.4052 44.836C58.1252 44.9853 57.8825 45.2 57.6772 45.48C57.4812 45.7507 57.3272 46.082 57.2152 46.474C57.1125 46.8567 57.0612 47.2813 57.0612 47.748C57.0612 48.2333 57.1125 48.672 57.2152 49.064C57.3272 49.456 57.4812 49.792 57.6772 50.072C57.8825 50.3427 58.1252 50.5527 58.4052 50.702C58.6852 50.8513 59.0025 50.926 59.3572 50.926C59.7118 50.926 60.0338 50.8513 60.3232 50.702C60.6125 50.5527 60.8598 50.338 61.0652 50.058C61.2705 49.778 61.4292 49.442 61.5412 49.05C61.6532 48.658 61.7092 48.224 61.7092 47.748C61.7092 47.2813 61.6532 46.8567 61.5412 46.474C61.4292 46.0913 61.2705 45.7647 61.0652 45.494C60.8598 45.214 60.6125 44.9993 60.3232 44.85C60.0338 44.6913 59.7118 44.612 59.3572 44.612ZM70.3373 43.94C70.8693 43.94 71.3733 44.038 71.8493 44.234C72.3253 44.4207 72.7407 44.682 73.0953 45.018C73.4593 45.354 73.744 45.7553 73.9493 46.222C74.164 46.6793 74.2713 47.1833 74.2713 47.734C74.2713 48.3033 74.164 48.826 73.9493 49.302C73.744 49.778 73.4593 50.1887 73.0953 50.534C72.7407 50.8793 72.3253 51.15 71.8493 51.346C71.3733 51.542 70.8693 51.64 70.3373 51.64C69.8147 51.64 69.3153 51.5467 68.8393 51.36C68.3727 51.164 67.962 50.8933 67.6073 50.548C67.2527 50.2027 66.9727 49.792 66.7673 49.316C66.562 48.8307 66.4593 48.3033 66.4593 47.734C66.4593 47.1833 66.562 46.6747 66.7673 46.208C66.9727 45.7413 67.2527 45.34 67.6073 45.004C67.962 44.668 68.3727 44.4067 68.8393 44.22C69.3153 44.0333 69.8147 43.94 70.3373 43.94ZM70.3373 44.612C69.992 44.612 69.6747 44.6867 69.3853 44.836C69.1053 44.9853 68.8627 45.2 68.6573 45.48C68.4613 45.7507 68.3073 46.082 68.1953 46.474C68.0927 46.8567 68.0413 47.2813 68.0413 47.748C68.0413 48.2333 68.0927 48.672 68.1953 49.064C68.3073 49.456 68.4613 49.792 68.6573 50.072C68.8627 50.3427 69.1053 50.5527 69.3853 50.702C69.6653 50.8513 69.9827 50.926 70.3373 50.926C70.692 50.926 71.014 50.8513 71.3033 50.702C71.5927 50.5527 71.84 50.338 72.0453 50.058C72.2507 49.778 72.4093 49.442 72.5213 49.05C72.6333 48.658 72.6893 48.224 72.6893 47.748C72.6893 47.2813 72.6333 46.8567 72.5213 46.474C72.4093 46.0913 72.2507 45.7647 72.0453 45.494C71.84 45.214 71.5927 44.9993 71.3033 44.85C71.014 44.6913 70.692 44.612 70.3373 44.612ZM77.3275 44.962V44.444C77.8222 44.1547 78.2095 43.8653 78.4895 43.576C78.7695 43.2867 78.9842 42.9413 79.1335 42.54H79.5395V44.304H81.4155V44.962H79.5395V49.218C79.5395 49.5447 79.5535 49.82 79.5815 50.044C79.6188 50.268 79.6748 50.45 79.7495 50.59C79.8242 50.7207 79.9222 50.814 80.0435 50.87C80.1648 50.926 80.3188 50.954 80.5055 50.954C80.7388 50.954 80.9348 50.9073 81.0935 50.814C81.2615 50.7113 81.4248 50.5433 81.5835 50.31L81.9335 50.576C81.8028 50.9213 81.5742 51.1873 81.2475 51.374C80.9302 51.5513 80.5335 51.64 80.0575 51.64C79.4415 51.64 78.9702 51.4953 78.6435 51.206C78.3262 50.9073 78.1675 50.4827 78.1675 49.932V44.962H77.3275ZM86.5245 48.574C86.5245 48.9287 86.5758 49.2553 86.6785 49.554C86.7812 49.8433 86.9212 50.0953 87.0985 50.31C87.2852 50.5153 87.5045 50.6787 87.7565 50.8C88.0178 50.9213 88.2978 50.982 88.5965 50.982C88.9232 50.982 89.2172 50.9073 89.4785 50.758C89.7492 50.6087 89.9778 50.3987 90.1645 50.128C90.3605 49.848 90.5098 49.5167 90.6125 49.134C90.7245 48.742 90.7805 48.308 90.7805 47.832C90.7805 47.356 90.7245 46.922 90.6125 46.53C90.5005 46.1287 90.3465 45.788 90.1505 45.508C89.9545 45.2187 89.7165 44.9947 89.4365 44.836C89.1658 44.6773 88.8672 44.598 88.5405 44.598C88.1578 44.598 87.8172 44.6913 87.5185 44.878C87.2198 45.0553 86.9912 45.3073 86.8325 45.634C86.6272 46.0447 86.5245 46.6093 86.5245 47.328V48.574ZM86.4965 45.074H86.5525C86.8512 44.682 87.1778 44.3973 87.5325 44.22C87.8965 44.0333 88.3165 43.94 88.7925 43.94C89.2965 43.94 89.7632 44.038 90.1925 44.234C90.6312 44.43 91.0092 44.7007 91.3265 45.046C91.6532 45.3913 91.9052 45.802 92.0825 46.278C92.2692 46.7447 92.3625 47.2487 92.3625 47.79C92.3625 48.3407 92.2692 48.854 92.0825 49.33C91.8958 49.7967 91.6392 50.2027 91.3125 50.548C90.9952 50.8933 90.6172 51.164 90.1785 51.36C89.7398 51.556 89.2638 51.654 88.7505 51.654C88.2185 51.654 87.7192 51.556 87.2525 51.36C86.7952 51.164 86.4172 50.898 86.1185 50.562L85.4605 51.5H85.1525V43.044C85.1525 42.1013 85.0918 41.4993 84.9705 41.238C84.9425 41.1727 84.9098 41.1213 84.8725 41.084C84.8352 41.0373 84.7792 41 84.7045 40.972C84.6298 40.9347 84.5272 40.902 84.3965 40.874C84.2658 40.846 84.0885 40.818 83.8645 40.79V40.44L86.4965 39.88V45.074ZM99.7447 47.356C99.2127 47.5613 98.76 47.762 98.3867 47.958C98.0227 48.154 97.7287 48.35 97.5047 48.546C97.2807 48.742 97.1173 48.938 97.0147 49.134C96.9213 49.33 96.8747 49.5307 96.8747 49.736C96.8747 50.044 96.9773 50.296 97.1827 50.492C97.388 50.688 97.6587 50.786 97.9947 50.786C98.2373 50.786 98.4613 50.7253 98.6667 50.604C98.8813 50.4827 99.068 50.3193 99.2267 50.114C99.3853 49.8993 99.5113 49.652 99.6047 49.372C99.698 49.0827 99.7447 48.7793 99.7447 48.462V47.356ZM99.7447 46.754V46.18C99.7447 45.0413 99.2593 44.472 98.2887 44.472C98.13 44.472 97.9947 44.486 97.8827 44.514C97.7707 44.542 97.6773 44.5887 97.6027 44.654C97.528 44.7193 97.458 44.8127 97.3927 44.934C97.3367 45.0553 97.2807 45.2047 97.2247 45.382C97.122 45.6527 97.0193 45.8347 96.9167 45.928C96.8233 46.012 96.6833 46.054 96.4967 46.054C96.03 46.054 95.7967 45.8207 95.7967 45.354C95.7967 44.906 96.0347 44.5607 96.5107 44.318C96.9867 44.066 97.6633 43.94 98.5407 43.94C99.474 43.94 100.137 44.108 100.529 44.444C100.921 44.7707 101.117 45.3307 101.117 46.124V49.26C101.117 50.324 101.327 50.856 101.747 50.856C101.877 50.856 102.003 50.842 102.125 50.814C102.246 50.7767 102.349 50.688 102.433 50.548L102.629 50.884C102.517 51.0987 102.311 51.2807 102.013 51.43C101.714 51.57 101.401 51.64 101.075 51.64C100.664 51.64 100.356 51.5093 100.151 51.248C99.9547 50.9867 99.8567 50.618 99.8567 50.142H99.7867C99.544 50.5993 99.208 50.9633 98.7787 51.234C98.3493 51.4953 97.8733 51.626 97.3507 51.626C96.7627 51.626 96.3007 51.4767 95.9647 51.178C95.6287 50.8793 95.4607 50.478 95.4607 49.974C95.4607 49.75 95.498 49.5353 95.5727 49.33C95.6567 49.1247 95.7873 48.9287 95.9647 48.742C96.142 48.5553 96.3753 48.3733 96.6647 48.196C96.954 48.0093 97.3087 47.8227 97.7287 47.636L99.7447 46.754ZM107.357 49.316C107.357 49.6707 107.371 49.9553 107.399 50.17C107.427 50.3847 107.483 50.5527 107.567 50.674C107.66 50.7953 107.786 50.8793 107.945 50.926C108.113 50.9727 108.332 51.0007 108.603 51.01V51.5H104.739V51.01C105.019 51.0007 105.243 50.9727 105.411 50.926C105.579 50.87 105.709 50.786 105.803 50.674C105.905 50.562 105.971 50.408 105.999 50.212C106.036 50.0067 106.055 49.7407 106.055 49.414V43.38C106.055 42.876 106.045 42.456 106.027 42.12C106.017 41.7747 105.999 41.5413 105.971 41.42C105.924 41.2053 105.812 41.0607 105.635 40.986C105.467 40.9113 105.159 40.874 104.711 40.874V40.398L107.357 39.88V49.316ZM113.729 49.316C113.729 49.6707 113.743 49.9553 113.771 50.17C113.799 50.3847 113.855 50.5527 113.939 50.674C114.033 50.7953 114.159 50.8793 114.317 50.926C114.485 50.9727 114.705 51.0007 114.975 51.01V51.5H111.111V51.01C111.391 51.0007 111.615 50.9727 111.783 50.926C111.951 50.87 112.082 50.786 112.175 50.674C112.278 50.562 112.343 50.408 112.371 50.212C112.409 50.0067 112.427 49.7407 112.427 49.414V43.38C112.427 42.876 112.418 42.456 112.399 42.12C112.39 41.7747 112.371 41.5413 112.343 41.42C112.297 41.2053 112.185 41.0607 112.007 40.986C111.839 40.9113 111.531 40.874 111.083 40.874V40.398L113.729 39.88V49.316ZM118.114 50.73C118.114 50.4687 118.203 50.2493 118.38 50.072C118.557 49.8947 118.772 49.806 119.024 49.806C119.285 49.806 119.505 49.8947 119.682 50.072C119.859 50.2493 119.948 50.4687 119.948 50.73C119.948 50.982 119.859 51.1967 119.682 51.374C119.505 51.5513 119.285 51.64 119.024 51.64C118.772 51.64 118.557 51.5513 118.38 51.374C118.203 51.1967 118.114 50.982 118.114 50.73ZM129.785 50.338C129.449 50.7487 129.015 51.0707 128.483 51.304C127.951 51.528 127.377 51.64 126.761 51.64C126.266 51.64 125.809 51.5513 125.389 51.374C124.978 51.1873 124.624 50.9307 124.325 50.604C124.026 50.268 123.793 49.8667 123.625 49.4C123.466 48.9333 123.387 48.4153 123.387 47.846C123.387 47.2487 123.48 46.712 123.667 46.236C123.854 45.7507 124.115 45.34 124.451 45.004C124.796 44.6587 125.207 44.3973 125.683 44.22C126.168 44.0333 126.7 43.94 127.279 43.94C127.643 43.94 127.974 43.9727 128.273 44.038C128.572 44.094 128.828 44.178 129.043 44.29C129.267 44.3927 129.44 44.5233 129.561 44.682C129.682 44.8313 129.743 44.9947 129.743 45.172C129.743 45.3587 129.682 45.5033 129.561 45.606C129.44 45.7087 129.272 45.76 129.057 45.76C128.889 45.76 128.749 45.7273 128.637 45.662C128.525 45.5873 128.38 45.4287 128.203 45.186C128.016 44.9713 127.834 44.822 127.657 44.738C127.489 44.6447 127.27 44.598 126.999 44.598C126.336 44.598 125.832 44.8547 125.487 45.368C125.151 45.8813 124.983 46.6373 124.983 47.636C124.983 48.7093 125.17 49.526 125.543 50.086C125.926 50.6367 126.481 50.912 127.209 50.912C127.601 50.912 127.97 50.8373 128.315 50.688C128.66 50.5293 129.01 50.2773 129.365 49.932L129.785 50.338ZM136.577 43.94C137.109 43.94 137.613 44.038 138.089 44.234C138.565 44.4207 138.98 44.682 139.335 45.018C139.699 45.354 139.984 45.7553 140.189 46.222C140.404 46.6793 140.511 47.1833 140.511 47.734C140.511 48.3033 140.404 48.826 140.189 49.302C139.984 49.778 139.699 50.1887 139.335 50.534C138.98 50.8793 138.565 51.15 138.089 51.346C137.613 51.542 137.109 51.64 136.577 51.64C136.054 51.64 135.555 51.5467 135.079 51.36C134.612 51.164 134.202 50.8933 133.847 50.548C133.492 50.2027 133.212 49.792 133.007 49.316C132.802 48.8307 132.699 48.3033 132.699 47.734C132.699 47.1833 132.802 46.6747 133.007 46.208C133.212 45.7413 133.492 45.34 133.847 45.004C134.202 44.668 134.612 44.4067 135.079 44.22C135.555 44.0333 136.054 43.94 136.577 43.94ZM136.577 44.612C136.232 44.612 135.914 44.6867 135.625 44.836C135.345 44.9853 135.102 45.2 134.897 45.48C134.701 45.7507 134.547 46.082 134.435 46.474C134.332 46.8567 134.281 47.2813 134.281 47.748C134.281 48.2333 134.332 48.672 134.435 49.064C134.547 49.456 134.701 49.792 134.897 50.072C135.102 50.3427 135.345 50.5527 135.625 50.702C135.905 50.8513 136.222 50.926 136.577 50.926C136.932 50.926 137.254 50.8513 137.543 50.702C137.832 50.5527 138.08 50.338 138.285 50.058C138.49 49.778 138.649 49.442 138.761 49.05C138.873 48.658 138.929 48.224 138.929 47.748C138.929 47.2813 138.873 46.8567 138.761 46.474C138.649 46.0913 138.49 45.7647 138.285 45.494C138.08 45.214 137.832 44.9993 137.543 44.85C137.254 44.6913 136.932 44.612 136.577 44.612ZM146.101 49.26C146.101 49.652 146.111 49.96 146.129 50.184C146.148 50.408 146.195 50.5807 146.269 50.702C146.353 50.814 146.47 50.8887 146.619 50.926C146.769 50.9633 146.979 50.9913 147.249 51.01V51.5H143.525V51.01C143.796 50.9913 144.011 50.9633 144.169 50.926C144.328 50.8887 144.449 50.814 144.533 50.702C144.617 50.59 144.669 50.4313 144.687 50.226C144.715 50.0113 144.729 49.7267 144.729 49.372V47.58C144.729 47.048 144.72 46.6047 144.701 46.25C144.692 45.8953 144.669 45.6527 144.631 45.522C144.603 45.4007 144.571 45.3073 144.533 45.242C144.496 45.1673 144.435 45.1113 144.351 45.074C144.267 45.0273 144.155 44.9993 144.015 44.99C143.885 44.9713 143.712 44.962 143.497 44.962V44.472L145.779 43.94L145.961 45.34H146.031C146.451 44.864 146.89 44.514 147.347 44.29C147.814 44.0567 148.327 43.94 148.887 43.94C149.475 43.94 149.97 44.0613 150.371 44.304C150.773 44.5373 151.053 44.878 151.211 45.326H151.267C151.613 44.8873 152.033 44.5467 152.527 44.304C153.022 44.0613 153.549 43.94 154.109 43.94C154.548 43.94 154.945 44.0147 155.299 44.164C155.663 44.304 155.939 44.5 156.125 44.752C156.293 44.9667 156.41 45.2513 156.475 45.606C156.55 45.9513 156.587 46.4273 156.587 47.034V49.26C156.587 49.6427 156.597 49.946 156.615 50.17C156.643 50.394 156.695 50.5667 156.769 50.688C156.844 50.8093 156.956 50.8887 157.105 50.926C157.264 50.9633 157.479 50.9913 157.749 51.01V51.5H154.025V51.01C154.287 51.0007 154.497 50.9773 154.655 50.94C154.814 50.8933 154.935 50.814 155.019 50.702C155.103 50.5807 155.155 50.4173 155.173 50.212C155.201 50.0067 155.215 49.7267 155.215 49.372V47.608C155.215 47.076 155.187 46.628 155.131 46.264C155.075 45.8907 154.982 45.592 154.851 45.368C154.721 45.1347 154.548 44.9667 154.333 44.864C154.128 44.7613 153.876 44.71 153.577 44.71C153.167 44.71 152.779 44.8267 152.415 45.06C152.061 45.284 151.781 45.5873 151.575 45.97C151.529 46.0633 151.487 46.1567 151.449 46.25C151.421 46.334 151.398 46.432 151.379 46.544C151.361 46.6467 151.347 46.7727 151.337 46.922C151.337 47.0713 151.337 47.258 151.337 47.482V49.26C151.337 49.6427 151.347 49.946 151.365 50.17C151.384 50.394 151.431 50.5667 151.505 50.688C151.589 50.8093 151.711 50.8887 151.869 50.926C152.028 50.9633 152.243 50.9913 152.513 51.01V51.5H148.789V51.01C149.051 50.9913 149.261 50.9633 149.419 50.926C149.578 50.8887 149.695 50.814 149.769 50.702C149.853 50.59 149.905 50.4313 149.923 50.226C149.951 50.0113 149.965 49.7267 149.965 49.372V47.608C149.965 47.0667 149.937 46.614 149.881 46.25C149.825 45.8767 149.732 45.578 149.601 45.354C149.48 45.1207 149.317 44.9573 149.111 44.864C148.906 44.7613 148.654 44.71 148.355 44.71C147.935 44.71 147.539 44.8267 147.165 45.06C146.801 45.284 146.526 45.5873 146.339 45.97C146.293 46.0633 146.251 46.1567 146.213 46.25C146.185 46.334 146.162 46.432 146.143 46.544C146.125 46.6467 146.111 46.7727 146.101 46.922C146.101 47.0713 146.101 47.258 146.101 47.482V49.26Z" fill="white"/>
</svg>
