<svg width="24" height="25" viewBox="0 0 24 25" fill="none" xmlns="http://www.w3.org/2000/svg">
<path d="M21 17.4238V19.4238C21 19.9543 20.7893 20.463 20.4142 20.838C20.0391 21.2131 19.5304 21.4238 19 21.4238H5C4.46957 21.4238 3.96086 21.2131 3.58579 20.838C3.21071 20.463 3 19.9543 3 19.4238V17.4238M21 7.42383V5.42383C21 4.8934 20.7893 4.38469 20.4142 4.00961C20.0391 3.63454 19.5304 3.42383 19 3.42383H5C4.46957 3.42383 3.96086 3.63454 3.58579 4.00961C3.21071 4.38469 3 4.8934 3 5.42383V7.42383" stroke="#434343" stroke-width="2" stroke-linecap="round" stroke-linejoin="round"/>
<path d="M12 13.4238C12.5523 13.4238 13 12.9761 13 12.4238C13 11.8715 12.5523 11.4238 12 11.4238C11.4477 11.4238 11 11.8715 11 12.4238C11 12.9761 11.4477 13.4238 12 13.4238Z" stroke="#434343" stroke-width="2" stroke-linecap="round" stroke-linejoin="round"/>
<path d="M18.944 12.7539C19.0187 12.5402 19.0187 12.3075 18.944 12.0939C18.381 10.7143 17.4198 9.53367 16.1831 8.70262C14.9463 7.87157 13.4901 7.42773 12 7.42773C10.51 7.42773 9.05372 7.87157 7.81696 8.70262C6.58021 9.53367 5.61903 10.7143 5.05602 12.0939C4.98133 12.3075 4.98133 12.5402 5.05602 12.7539C5.61903 14.1334 6.58021 15.314 7.81696 16.1451C9.05372 16.9761 10.51 17.42 12 17.42C13.4901 17.42 14.9463 16.9761 16.1831 16.1451C17.4198 15.314 18.381 14.1334 18.944 12.7539Z" stroke="#434343" stroke-width="2" stroke-linecap="round" stroke-linejoin="round"/>
</svg>
