<svg width="18" height="19" viewBox="0 0 18 19" fill="none" xmlns="http://www.w3.org/2000/svg">
<path d="M0.75 9.27942C0.75 9.27942 3.891 4.77942 9 4.77942C9.71025 4.77942 10.3793 4.87017 11.0085 5.02092L6.27 9.75942C6.09311 9.37343 6.00105 8.95401 6 8.52942C6 7.82667 6.25125 7.18917 6.65625 6.67767C4.86225 7.28667 3.49575 8.46642 2.71575 9.27942C3.38021 9.97265 4.13142 10.5772 4.95075 11.0779L3.861 12.1677C1.87275 10.8769 0.75 9.27942 0.75 9.27942ZM17.25 9.27942C17.25 9.27942 14.109 13.7794 9 13.7794C8.2905 13.7794 7.623 13.6864 6.993 13.5372L3.75 16.7794L2.625 15.6544L15.375 2.90442L16.5 4.02942L14.1398 6.38967C16.1258 7.68117 17.25 9.27942 17.25 9.27942ZM15.2887 9.28392C14.6231 8.58877 13.8701 7.98296 13.0485 7.48167L12 8.52942C12 9.32507 11.6839 10.0881 11.1213 10.6507C10.5587 11.2133 9.79565 11.5294 9 11.5294L8.28975 12.2397C8.52225 12.2629 8.75775 12.2794 9 12.2794C11.9835 12.2794 14.2073 10.4209 15.2887 9.28392Z" fill="#828282"/>
</svg>
