<svg width="25" height="25" viewBox="0 0 25 25" fill="none" xmlns="http://www.w3.org/2000/svg">
<path d="M2.5 7.125C2.5 6.2962 2.82924 5.50134 3.41529 4.91529C4.00134 4.32924 4.7962 4 5.625 4H19.375C20.2038 4 20.9987 4.32924 21.5847 4.91529C22.1708 5.50134 22.5 6.2962 22.5 7.125V14.757C22.12 14.4432 21.6996 14.1818 21.25 13.98V7.125C21.25 6.62772 21.0525 6.15081 20.7008 5.79917C20.3492 5.44754 19.8723 5.25 19.375 5.25H5.625C5.12772 5.25 4.65081 5.44754 4.29917 5.79917C3.94754 6.15081 3.75 6.62772 3.75 7.125V14.875C3.75 15.3723 3.94754 15.8492 4.29917 16.2008C4.65081 16.5525 5.12772 16.75 5.625 16.75H12.452L13.702 18H5.625C4.7962 18 4.00134 17.6708 3.41529 17.0847C2.82924 16.4987 2.5 15.7038 2.5 14.875V7.125ZM17.125 13C16.9745 13 16.836 12.9465 16.728 12.8575C16.6939 12.6498 16.6191 12.4508 16.508 12.272C16.5324 12.126 16.6078 11.9934 16.7208 11.8979C16.8338 11.8023 16.977 11.7499 17.125 11.75H19.375C19.5408 11.75 19.6997 11.8158 19.8169 11.9331C19.9342 12.0503 20 12.2092 20 12.375C20 12.5408 19.9342 12.6997 19.8169 12.8169C19.6997 12.9342 19.5408 13 19.375 13H17.125ZM13.884 11L14.506 11.622C14.3074 11.7033 14.1271 11.8237 13.976 11.976L13.534 12.418L13 11.884L12.067 12.817C12.009 12.875 11.94 12.9211 11.8642 12.9525C11.7884 12.9839 11.7071 13.0001 11.625 13.0001C11.5429 13.0001 11.4616 12.9839 11.3858 12.9525C11.31 12.9211 11.241 12.875 11.183 12.817C11.125 12.759 11.0789 12.69 11.0475 12.6142C11.0161 12.5384 10.9999 12.4571 10.9999 12.375C10.9999 12.2929 11.0161 12.2116 11.0475 12.1358C11.0789 12.06 11.125 11.991 11.183 11.933L12.116 11L11.183 10.067C11.0658 9.94977 10.9999 9.79078 10.9999 9.625C10.9999 9.45922 11.0658 9.30023 11.183 9.183C11.3002 9.06577 11.4592 8.99992 11.625 8.99992C11.7908 8.99992 11.9498 9.06577 12.067 9.183L13 10.116L13.933 9.183C14.0502 9.06577 14.2092 8.99992 14.375 8.99992C14.5408 8.99992 14.6998 9.06577 14.817 9.183C14.9342 9.30023 15.0001 9.45922 15.0001 9.625C15.0001 9.79078 14.9342 9.94977 14.817 10.067L13.884 11ZM5.683 9.183C5.74104 9.12495 5.80995 9.07889 5.88578 9.04747C5.96162 9.01606 6.04291 8.99988 6.125 8.99988C6.20709 8.99988 6.28838 9.01606 6.36422 9.04747C6.44005 9.07889 6.50896 9.12495 6.567 9.183L7.5 10.116L8.433 9.183C8.55023 9.06577 8.70922 8.99992 8.875 8.99992C9.04078 8.99992 9.19977 9.06577 9.317 9.183C9.43423 9.30023 9.50008 9.45922 9.50008 9.625C9.50008 9.79078 9.43423 9.94977 9.317 10.067L8.384 11L9.317 11.933C9.37504 11.991 9.42109 12.06 9.4525 12.1358C9.48391 12.2116 9.50008 12.2929 9.50008 12.375C9.50008 12.4571 9.48391 12.5384 9.4525 12.6142C9.42109 12.69 9.37504 12.759 9.317 12.817C9.25896 12.875 9.19005 12.9211 9.11421 12.9525C9.03837 12.9839 8.95709 13.0001 8.875 13.0001C8.79291 13.0001 8.71163 12.9839 8.63579 12.9525C8.55995 12.9211 8.49104 12.875 8.433 12.817L7.5 11.884L6.567 12.817C6.44977 12.9342 6.29078 13.0001 6.125 13.0001C5.95922 13.0001 5.80023 12.9342 5.683 12.817C5.56577 12.6998 5.49992 12.5408 5.49992 12.375C5.49992 12.2092 5.56577 12.0502 5.683 11.933L6.616 11L5.683 10.067C5.62495 10.009 5.57889 9.94005 5.54747 9.86421C5.51605 9.78838 5.49988 9.70709 5.49988 9.625C5.49988 9.54291 5.51605 9.46162 5.54747 9.38579C5.57889 9.30995 5.62495 9.24104 5.683 9.183ZM15.567 13.567C15.6842 13.4498 15.7501 13.2908 15.7501 13.125C15.7501 12.9592 15.6842 12.8002 15.567 12.683C15.4498 12.5658 15.2908 12.4999 15.125 12.4999C14.9592 12.4999 14.8002 12.5658 14.683 12.683L12.683 14.683C12.6249 14.741 12.5789 14.8099 12.5475 14.8858C12.5161 14.9616 12.4999 15.0429 12.4999 15.125C12.4999 15.2071 12.5161 15.2884 12.5475 15.3642C12.5789 15.4401 12.6249 15.509 12.683 15.567L14.683 17.567C14.8002 17.6842 14.9592 17.7501 15.125 17.7501C15.2908 17.7501 15.4498 17.6842 15.567 17.567C15.6842 17.4498 15.7501 17.2908 15.7501 17.125C15.7501 16.9592 15.6842 16.8002 15.567 16.683L14.634 15.75H19C19.6203 15.7501 20.2276 15.9277 20.7502 16.2618C21.2728 16.5959 21.6888 17.0725 21.9492 17.6355C22.2097 18.1984 22.3036 18.8242 22.2198 19.4387C22.1361 20.0533 21.8782 20.6311 21.4767 21.1039C21.0752 21.5767 20.5467 21.9246 19.9538 22.1068C19.3609 22.2889 18.7282 22.2975 18.1305 22.1317C17.5328 21.9658 16.9951 21.6324 16.5808 21.1707C16.1665 20.7091 15.893 20.1386 15.7925 19.5265C15.7793 19.4455 15.7503 19.3678 15.7071 19.298C15.6639 19.2282 15.6073 19.1676 15.5407 19.1197C15.4741 19.0717 15.3987 19.0373 15.3188 19.0185C15.2389 18.9997 15.156 18.9968 15.075 19.01C14.994 19.0232 14.9163 19.0522 14.8465 19.0954C14.7767 19.1386 14.7161 19.1952 14.6682 19.2618C14.6202 19.3284 14.5858 19.4038 14.567 19.4837C14.5482 19.5636 14.5453 19.6465 14.5585 19.7275C14.9065 21.867 16.762 23.5 19 23.5C20.1935 23.5 21.3381 23.0259 22.182 22.182C23.0259 21.3381 23.5 20.1935 23.5 19C23.5 17.8065 23.0259 16.6619 22.182 15.818C21.3381 14.9741 20.1935 14.5 19 14.5H14.634L15.567 13.567Z" fill="white"/>
</svg>
