<svg width="20" height="21" viewBox="0 0 20 21" fill="none" xmlns="http://www.w3.org/2000/svg">
<g clip-path="url(#clip0_663_8347)">
<path d="M12.2516 17.6644L12.2607 17.6708C13.0477 18.1719 13.9822 18.3895 14.9096 18.2877C15.8371 18.1858 16.7021 17.7706 17.3616 17.1106L17.9345 16.5376C18.0615 16.4108 18.1622 16.2601 18.231 16.0943C18.2997 15.9284 18.335 15.7507 18.335 15.5712C18.335 15.3917 18.2997 15.214 18.231 15.0481C18.1622 14.8823 18.0615 14.7316 17.9345 14.6048L15.518 12.19C15.3911 12.0631 15.2404 11.9623 15.0746 11.8936C14.9088 11.8249 14.731 11.7895 14.5515 11.7895C14.372 11.7895 14.1943 11.8249 14.0285 11.8936C13.8626 11.9623 13.712 12.0631 13.5851 12.19C13.3289 12.4462 12.9814 12.5901 12.6191 12.5901C12.2568 12.5901 11.9093 12.4462 11.6531 12.19L7.78917 8.32515C7.53302 8.06893 7.38913 7.72147 7.38913 7.35917C7.38913 6.99687 7.53302 6.6494 7.78917 6.39318C7.91613 6.26629 8.01685 6.11563 8.08557 5.9498C8.15429 5.78398 8.18966 5.60624 8.18966 5.42673C8.18966 5.24723 8.15429 5.06949 8.08557 4.90366C8.01685 4.73784 7.91613 4.58718 7.78917 4.46029L5.37351 2.04555C5.11729 1.7894 4.76982 1.64551 4.40752 1.64551C4.04522 1.64551 3.69776 1.7894 3.44154 2.04555L2.86768 2.61849C2.20783 3.27813 1.79277 4.14315 1.69108 5.07061C1.58939 5.99807 1.80716 6.93247 2.3084 7.71942L2.31387 7.72853C4.96105 11.6451 8.33449 15.0179 12.2516 17.6644V17.6644Z" stroke="#757575" stroke-width="1.4" stroke-linecap="round" stroke-linejoin="round"/>
</g>
<defs>
<clipPath id="clip0_663_8347">
<rect width="20" height="20" fill="white" transform="translate(0 0.279297)"/>
</clipPath>
</defs>
</svg>
