<svg width="29" height="29" viewBox="0 0 29 29" fill="none" xmlns="http://www.w3.org/2000/svg">
<path d="M14.1436 6.05176V11.8851M14.1436 16.5518V22.3851" stroke="#434343" stroke-width="2" stroke-linecap="round" stroke-linejoin="round"/>
<path d="M14.1429 16.5514C15.4316 16.5514 16.4762 15.5068 16.4762 14.2181C16.4762 12.9294 15.4316 11.8848 14.1429 11.8848C12.8542 11.8848 11.8096 12.9294 11.8096 14.2181C11.8096 15.5068 12.8542 16.5514 14.1429 16.5514Z" stroke="#434343" stroke-width="2" stroke-linecap="round" stroke-linejoin="round"/>
<path d="M2.47656 10.7188H7.14323V17.7187H2.47656" stroke="#434343" stroke-width="2" stroke-linecap="round" stroke-linejoin="round"/>
<path d="M3.64323 22.3851C2.94323 22.3851 2.47656 21.9184 2.47656 21.2184V7.21842C2.47656 6.51842 2.94323 6.05176 3.64323 6.05176H24.6432C25.3432 6.05176 25.8099 6.51842 25.8099 7.21842V21.2184C25.8099 21.9184 25.3432 22.3851 24.6432 22.3851H3.64323Z" stroke="#434343" stroke-width="2" stroke-linecap="round" stroke-linejoin="round"/>
<path d="M25.8102 17.7187H21.1436V10.7188H25.8102" stroke="#434343" stroke-width="2" stroke-linecap="round" stroke-linejoin="round"/>
</svg>
