<svg width="66" height="66" viewBox="0 0 66 66" fill="none" xmlns="http://www.w3.org/2000/svg">
<path d="M32.9981 0.500061C26.5702 0.500061 20.2866 2.40615 14.942 5.9773C9.59743 9.54844 5.43183 14.6242 2.97198 20.5628C0.512129 26.5014 -0.13148 33.0361 1.12254 39.3405C2.37656 45.6449 5.47188 51.4358 10.0171 55.981C14.5623 60.5262 20.3532 63.6216 26.6576 64.8756C32.962 66.1296 39.4967 65.486 45.4353 63.0261C51.3739 60.5663 56.4497 56.4007 60.0208 51.0561C63.592 45.7115 65.4981 39.428 65.4981 33.0001C65.4981 28.7321 64.6574 24.5059 63.0242 20.5628C61.3909 16.6198 58.9969 13.037 55.979 10.0191C52.9611 7.00119 49.3784 4.60725 45.4353 2.97398C41.4922 1.3407 37.266 0.500061 32.9981 0.500061ZM26.4981 47.6251V18.3751L45.9981 33.0001L26.4981 47.6251Z" fill="white"/>
</svg>
