<svg width="20" height="21" viewBox="0 0 20 21" fill="none" xmlns="http://www.w3.org/2000/svg">
<path d="M15.8918 4.13584C15.1205 3.35839 14.2026 2.74168 13.1913 2.32142C12.1799 1.90116 11.0953 1.6857 10.0001 1.68751C8.90474 1.6858 7.81987 1.9013 6.8083 2.32155C5.79673 2.7418 4.87852 3.35845 4.1068 4.13584C0.85763 7.38418 0.85763 12.6717 4.1068 15.9208C4.87853 16.6984 5.79686 17.3152 6.8086 17.7355C7.82035 18.1558 8.90541 18.3711 10.001 18.3692C11.0961 18.3711 12.1807 18.1558 13.192 17.7357C14.2033 17.3155 15.1212 16.699 15.8926 15.9217C19.1418 12.6733 19.1418 7.38585 15.8918 4.13584ZM10.1501 3.36168H9.85096C9.9018 3.36084 9.95013 3.35418 10.001 3.35418C10.0518 3.35418 10.0993 3.36084 10.1501 3.36168ZM15.2018 14.195H13.3326L12.2843 16.2917C11.553 16.5619 10.7798 16.7009 10.0001 16.7025C9.21906 16.7011 8.44439 16.5617 7.7118 16.2908L6.66596 14.2033H4.80346C4.11633 13.3491 3.65164 12.3378 3.45096 11.26L4.9993 9.19501L3.98596 7.16751C4.3093 6.47967 4.74879 5.85271 5.28513 5.31418C6.03578 4.56089 6.95587 3.99827 7.96846 3.67334L9.9993 5.02834L12.031 3.67418C13.0433 3.99933 13.9632 4.5616 14.7143 5.31418C15.2501 5.85207 15.6892 6.47815 16.0126 7.16501L14.9993 9.19501L16.5476 11.26C16.3479 12.3343 15.8855 13.3426 15.2018 14.195Z" fill="#23262D"/>
<path d="M7.08398 9.19466L8.33398 12.528H11.6673L12.9173 9.19466L10.0007 7.11133L7.08398 9.19466Z" fill="#23262D"/>
</svg>
