<svg width="25" height="25" viewBox="0 0 25 25" fill="none" xmlns="http://www.w3.org/2000/svg">
<g clip-path="url(#clip0_613_69391)">
<path d="M5.8088 3.93495C5.8088 3.93495 4.6388 4.44786 4.34363 4.55305C4.30121 4.56819 4.25771 4.57948 4.21266 4.57948H4.10555C4.0814 4.57948 4.0575 4.57456 4.03531 4.56501C4.01312 4.55547 3.99311 4.54151 3.97649 4.52398C3.95988 4.50644 3.94701 4.48571 3.93867 4.46304C3.93033 4.44037 3.9267 4.41624 3.92799 4.39212C3.933 4.29598 4.01935 4.22389 4.11563 4.22389H4.3479C4.37205 4.22389 4.39595 4.21897 4.41815 4.20943C4.44034 4.19989 4.46035 4.18593 4.47697 4.1684C4.49358 4.15086 4.50645 4.13013 4.51479 4.10746C4.52313 4.08478 4.52676 4.06065 4.52546 4.03653C4.52044 3.94039 4.4341 3.8683 4.33782 3.8683H4.27871V3.01475L5.8088 3.65928C5.93077 3.7107 5.93077 3.88353 5.8088 3.93495ZM14.7898 2.28711L13.2597 1.64258V2.49608H13.3188C13.4151 2.49608 13.5014 2.56817 13.5064 2.66431C13.5077 2.68843 13.5041 2.71257 13.4958 2.73524C13.4874 2.75791 13.4746 2.77864 13.4579 2.79618C13.4413 2.81371 13.4213 2.82767 13.3991 2.83721C13.3769 2.84676 13.353 2.85168 13.3289 2.85167H13.0966C13.0003 2.85167 12.914 2.92377 12.909 3.01991C12.9077 3.04403 12.9113 3.06816 12.9196 3.09083C12.928 3.1135 12.9408 3.13424 12.9574 3.15177C12.9741 3.1693 12.9941 3.18327 13.0163 3.19281C13.0385 3.20235 13.0624 3.20727 13.0865 3.20727H13.1936C13.2387 3.20727 13.2822 3.19592 13.3246 3.18083C13.6198 3.07564 14.7898 2.56273 14.7898 2.56273C14.9118 2.51136 14.9118 2.33848 14.7898 2.28711ZM24.2678 3.65938L22.7377 3.01484V3.86834H22.7968C22.8931 3.86834 22.9794 3.94044 22.9845 4.03658C22.9858 4.0607 22.9821 4.08483 22.9738 4.1075C22.9655 4.13017 22.9526 4.15091 22.936 4.16844C22.9194 4.18598 22.8993 4.19994 22.8771 4.20948C22.855 4.21902 22.8311 4.22394 22.8069 4.22394H22.5746C22.4783 4.22394 22.3921 4.29603 22.387 4.39217C22.3857 4.41629 22.3893 4.44043 22.3977 4.4631C22.406 4.48577 22.4189 4.5065 22.4355 4.52404C22.4521 4.54157 22.4721 4.55553 22.4943 4.56507C22.5165 4.57462 22.5404 4.57953 22.5646 4.57953H22.6717C22.7167 4.57953 22.7602 4.56819 22.8026 4.55309C23.0978 4.44791 24.2678 3.935 24.2678 3.935C24.3898 3.88363 24.3898 3.7108 24.2678 3.65938Z" fill="#FF99AA"/>
<path d="M4.52564 2.65378V4.04634C4.52564 4.02299 4.52104 3.99987 4.51211 3.9783C4.50317 3.95673 4.49007 3.93713 4.47357 3.92062C4.45706 3.90411 4.43745 3.89102 4.41588 3.88208C4.39431 3.87315 4.37119 3.86855 4.34784 3.86855H2.68945V2.30381H4.17567C4.26849 2.30381 4.35751 2.34068 4.42314 2.40632C4.48877 2.47195 4.52564 2.56096 4.52564 2.65378ZM13.1567 0.931641H11.6705V2.49638H13.3289C13.376 2.49638 13.4212 2.51511 13.4546 2.54845C13.4879 2.58179 13.5067 2.62702 13.5067 2.67417V1.28156C13.5066 1.18875 13.4698 1.09975 13.4041 1.03413C13.3385 0.968506 13.2495 0.931641 13.1567 0.931641ZM22.6347 2.30391H21.1485V3.86864H22.8068C22.854 3.86864 22.8992 3.88737 22.9326 3.92072C22.9659 3.95406 22.9846 3.99928 22.9846 4.04644V2.65388C22.9846 2.60791 22.9756 2.5624 22.958 2.51994C22.9404 2.47748 22.9146 2.43889 22.8822 2.4064C22.8497 2.3739 22.8111 2.34812 22.7686 2.33053C22.7261 2.31295 22.6806 2.3039 22.6347 2.30391Z" fill="#FFA9BA"/>
<path d="M2.86812 7.15138C2.81685 7.15138 2.76768 7.13101 2.73142 7.09476C2.69517 7.0585 2.6748 7.00933 2.6748 6.95806V2.33778C2.67592 2.28725 2.69677 2.23916 2.73291 2.20382C2.76904 2.16847 2.81757 2.14868 2.86812 2.14868C2.91866 2.14868 2.9672 2.16847 3.00333 2.20382C3.03946 2.23916 3.06032 2.28725 3.06143 2.33778V6.95806C3.06143 7.00933 3.04106 7.0585 3.00481 7.09476C2.96856 7.13101 2.91939 7.15138 2.86812 7.15138ZM21.5203 6.95806V2.33778C21.5192 2.28725 21.4983 2.23916 21.4622 2.20382C21.4261 2.16847 21.3775 2.14868 21.327 2.14868C21.2764 2.14868 21.2279 2.16847 21.1918 2.20382C21.1556 2.23916 21.1348 2.28725 21.1337 2.33778V6.95806C21.1348 7.0086 21.1556 7.05668 21.1918 7.09203C21.2279 7.12737 21.2764 7.14717 21.327 7.14717C21.3775 7.14717 21.4261 7.12737 21.4622 7.09203C21.4983 7.05668 21.5192 7.0086 21.5203 6.95806ZM12.0423 5.5858V0.965469C12.0412 0.914937 12.0203 0.866849 11.9842 0.831504C11.9481 0.796159 11.8995 0.776367 11.849 0.776367C11.7984 0.776367 11.7499 0.796159 11.7138 0.831504C11.6776 0.866849 11.6568 0.914937 11.6557 0.965469V5.58575C11.6568 5.63628 11.6776 5.68437 11.7138 5.71972C11.7499 5.75507 11.7984 5.77487 11.849 5.77488C11.8995 5.77488 11.9481 5.7551 11.9842 5.71976C12.0203 5.68442 12.0412 5.63633 12.0423 5.5858Z" fill="#597B91"/>
<path d="M4.52567 4.04606C4.52567 4.06941 4.52107 4.09253 4.51214 4.1141C4.5032 4.13567 4.49011 4.15527 4.4736 4.17178C4.45709 4.18829 4.43749 4.20139 4.41592 4.21033C4.39434 4.21926 4.37122 4.22386 4.34788 4.22386L4.10553 4.22456C4.00897 4.23614 3.92773 4.3035 3.92773 4.4017V3.86827H4.34788C4.39503 3.86827 4.44025 3.887 4.4736 3.92034C4.50694 3.95368 4.52567 3.99891 4.52567 4.04606ZM13.3288 2.49609H12.9087V3.02953C12.9087 2.93133 12.9899 2.86402 13.0865 2.85239L13.3288 2.85169C13.376 2.85169 13.4212 2.83296 13.4546 2.79961C13.4879 2.76627 13.5066 2.72105 13.5066 2.67389C13.5066 2.62674 13.4879 2.58151 13.4546 2.54817C13.4212 2.51483 13.376 2.49609 13.3288 2.49609ZM22.8069 3.86836H22.3867V4.4018C22.3867 4.30359 22.468 4.23628 22.5645 4.22466L22.8069 4.22395C22.854 4.22395 22.8993 4.20522 22.9326 4.17188C22.9659 4.13853 22.9847 4.09331 22.9847 4.04616C22.9847 3.999 22.9659 3.95378 22.9326 3.92044C22.8993 3.88709 22.854 3.86836 22.8069 3.86836Z" fill="#F4580B"/>
<path d="M1.86523 9.44922V17.7568C1.86523 19.2529 6.47877 20.4657 12.1699 20.4657C17.861 20.4657 22.4744 19.2529 22.4744 17.7568V9.44922H1.86523Z" fill="#BFBCAF"/>
<path d="M12.1699 11.743C17.8609 11.743 22.4745 10.5302 22.4745 9.0341C22.4745 7.53801 17.8609 6.3252 12.1699 6.3252C6.47877 6.3252 1.86523 7.53801 1.86523 9.0341C1.86523 10.5302 6.47877 11.743 12.1699 11.743Z" fill="#E5E4DF"/>
<path d="M10.2686 20.4658L7.0166 24.3485H17.8897L14.0705 20.4658H10.2686Z" fill="#D9DBDB"/>
<path d="M12.1698 9.66211C9.348 9.66211 7.06055 10.2634 7.06055 11.0052C7.06055 11.1115 7.1077 11.2149 7.19648 11.314C8.66564 11.5321 10.3623 11.6567 12.1698 11.6567C13.9774 11.6567 15.674 11.5321 17.1432 11.314C17.2319 11.2149 17.2791 11.1115 17.2791 11.0052C17.2791 10.2635 14.9916 9.66211 12.1698 9.66211Z" fill="#597B91"/>
<path d="M15.7231 11.4883L19.8413 7.2548C20.056 7.31985 20.2686 7.39176 20.4787 7.47043L16.6763 11.3793C16.3591 11.4207 16.0414 11.4571 15.7231 11.4883ZM14.7875 6.4209L13.1625 11.3231C13.1442 11.3786 13.1423 11.4382 13.157 11.4947C13.1717 11.5513 13.2024 11.6024 13.2454 11.642C13.3878 11.638 13.5294 11.6333 13.6701 11.6278C13.7013 11.5956 13.7248 11.5567 13.739 11.5142L15.411 6.47021C15.2033 6.45185 14.9954 6.43542 14.7875 6.4209ZM4.49869 7.25485C4.28399 7.3199 4.07142 7.39181 3.86133 7.47048L7.66373 11.3794C7.97283 11.4198 8.29083 11.4563 8.61684 11.4884L4.49869 7.25485ZM10.601 11.5142C10.6152 11.5567 10.6388 11.5956 10.67 11.6278C10.8106 11.6333 10.9522 11.638 11.0947 11.642C11.1377 11.6024 11.1684 11.5513 11.1831 11.4947C11.1978 11.4382 11.1958 11.3786 11.1775 11.3231L9.55256 6.4209C9.34462 6.43542 9.13682 6.45184 8.92917 6.47016L10.601 11.5142Z" fill="#BFBCAF"/>
<path d="M23.6396 8.47087C23.6396 7.47436 22.4131 6.62522 20.0927 6.01523C17.9711 5.45756 15.1575 5.15039 12.1699 5.15039C9.18232 5.15039 6.36865 5.45752 4.24713 6.01523C1.92668 6.62527 0.700195 7.47436 0.700195 8.47087C0.700195 8.48948 0.701836 8.50763 0.704227 8.52558C0.701698 8.54371 0.700351 8.56198 0.700195 8.58028C0.700195 9.57675 1.92668 10.4259 4.24713 11.0359C6.36865 11.5936 9.18232 11.9008 12.1699 11.9008C15.1575 11.9008 17.9711 11.5936 20.0927 11.0359C22.4131 10.4259 23.6396 9.5768 23.6396 8.58028C23.6396 8.56167 23.638 8.54353 23.6356 8.52558C23.638 8.50767 23.6396 8.48948 23.6396 8.47087ZM19.8821 10.2348C17.8273 10.7749 15.0884 11.0724 12.1699 11.0724C9.25146 11.0724 6.5126 10.7749 4.45784 10.2348C2.29582 9.66642 1.52866 8.98833 1.52866 8.58033C1.52866 8.56172 1.52702 8.54358 1.52463 8.52562C1.52702 8.50767 1.52866 8.48948 1.52866 8.47092C1.52866 8.06292 2.29582 7.38483 4.45784 6.81647C6.51255 6.27633 9.25146 5.97886 12.1699 5.97886C15.0884 5.97886 17.8273 6.27633 19.8821 6.81647C22.0441 7.38483 22.8112 8.06292 22.8112 8.47092C22.8112 8.48953 22.8129 8.50767 22.8153 8.52562C22.8127 8.54375 22.8114 8.56203 22.8112 8.58033C22.8112 8.98833 22.0441 9.66642 19.8821 10.2348Z" fill="#2B3B47"/>
<path d="M23.6389 11.9782C23.639 11.9727 23.6396 11.9673 23.6396 11.9618C23.6396 11.944 23.6381 11.9266 23.6359 11.9094C23.5988 11.3754 23.2049 10.8851 22.4745 10.4532V11.4573C22.6994 11.6514 22.8026 11.8294 22.8104 11.9749C22.7944 12.3842 22.0213 13.0538 19.882 13.6162C17.8273 14.1563 15.0884 14.4538 12.1699 14.4538C9.25141 14.4538 6.51251 14.1563 4.45779 13.6162C2.31851 13.0537 1.5454 12.3841 1.52937 11.9748C1.5372 11.8293 1.64037 11.6514 1.86532 11.4573V10.4531C1.13487 10.8852 0.741023 11.3754 0.703852 11.9094C0.701547 11.9268 0.700326 11.9442 0.700195 11.9618C0.700195 11.9673 0.700758 11.9727 0.700852 11.9782C0.700805 11.9831 0.700195 11.9879 0.700195 11.9927C0.700195 12.0091 0.701414 12.0253 0.703242 12.0412C0.766898 13.0034 1.9886 13.8237 4.24713 14.4174C6.36865 14.9751 9.18232 15.2822 12.1699 15.2822C15.1575 15.2822 17.9711 14.9751 20.0927 14.4174C22.3511 13.8237 23.5729 13.0034 23.6366 12.0412C23.6384 12.0253 23.6396 12.0092 23.6396 11.9927C23.6396 11.9879 23.639 11.9831 23.6389 11.9782Z" fill="#2B3B47"/>
<path d="M23.6396 15.2553C23.6396 14.6889 23.2427 14.1702 22.4745 13.7158V14.72C22.7087 14.922 22.8112 15.1067 22.8112 15.2554C22.8112 15.2704 22.812 15.2851 22.8136 15.2996C22.8121 15.3142 22.8112 15.3289 22.8112 15.3439C22.8112 15.7519 22.044 16.43 19.882 16.9983C18.3498 17.4011 16.437 17.6689 14.3531 17.7791V16.5883C14.3531 16.2915 14.1124 16.0509 13.8156 16.0509H10.5242C10.2274 16.0509 9.98669 16.2915 9.98669 16.5883V17.7791C7.90277 17.6689 5.98999 17.4011 4.45774 16.9983C2.29573 16.43 1.52857 15.7519 1.52857 15.3439C1.52854 15.3289 1.52773 15.3142 1.52613 15.2996C1.5277 15.2851 1.52851 15.2704 1.52857 15.2554C1.52857 15.1067 1.63113 14.9221 1.86527 14.72V13.7159C1.09704 14.1702 0.700195 14.6889 0.700195 15.2554C0.700227 15.2704 0.701039 15.2851 0.702633 15.2996C0.70107 15.3142 0.700258 15.3289 0.700195 15.3439C0.700195 16.3404 1.92668 17.1895 4.24713 17.7996C5.84238 18.2189 7.82909 18.4966 9.98669 18.6085V20.4663H14.353V18.6085C16.5107 18.4966 18.4973 18.2189 20.0926 17.7996C22.4131 17.1895 23.6396 16.3404 23.6396 15.3439C23.6395 15.3289 23.6387 15.3142 23.6371 15.2996C23.6387 15.2851 23.6395 15.2703 23.6396 15.2553Z" fill="#2B3B47"/>
<path d="M12.3573 20.4662H11.9823V16.0507H12.3573V20.4662ZM4.27051 19.3477V10.4453C4.27051 10.3583 4.23594 10.2748 4.1744 10.2133C4.11287 10.1518 4.02941 10.1172 3.94238 10.1172C3.85536 10.1172 3.7719 10.1518 3.71036 10.2133C3.64883 10.2748 3.61426 10.3583 3.61426 10.4453V19.3478C3.61426 19.3909 3.62275 19.4335 3.63924 19.4733C3.65574 19.5131 3.67991 19.5493 3.71038 19.5798C3.74085 19.6102 3.77703 19.6344 3.81684 19.6509C3.85665 19.6674 3.89932 19.6759 3.94241 19.6759C3.9855 19.6759 4.02816 19.6674 4.06797 19.6509C4.10778 19.6344 4.14395 19.6102 4.17442 19.5797C4.20489 19.5493 4.22905 19.5131 4.24554 19.4733C4.26203 19.4335 4.27051 19.3908 4.27051 19.3477ZM20.3971 19.6758C20.3101 19.6758 20.2266 19.6413 20.1651 19.5797C20.1035 19.5182 20.069 19.4347 20.069 19.3477V10.4453C20.069 10.3583 20.1035 10.2748 20.1651 10.2133C20.2266 10.1518 20.3101 10.1172 20.3971 10.1172C20.4841 10.1172 20.5676 10.1518 20.6291 10.2133C20.6907 10.2748 20.7252 10.3583 20.7252 10.4453V19.3478C20.7252 19.4348 20.6906 19.5182 20.6291 19.5798C20.5676 19.6413 20.4841 19.6758 20.3971 19.6758Z" fill="#597B91"/>
</g>
<defs>
<clipPath id="clip0_613_69391">
<rect width="24" height="24" fill="white" transform="translate(0.5 0.52832)"/>
</clipPath>
</defs>
</svg>
