<svg width="22" height="22" viewBox="0 0 22 22" fill="none" xmlns="http://www.w3.org/2000/svg">
<path d="M10.5268 2.01364C10.5706 1.9251 10.6383 1.85058 10.7223 1.79847C10.8062 1.74636 10.903 1.71875 11.0018 1.71875C11.1006 1.71875 11.1974 1.74636 11.2813 1.79847C11.3653 1.85058 11.433 1.9251 11.4768 2.01364L13.7868 6.69264C13.9388 7.00077 14.1633 7.26734 14.4412 7.46941C14.719 7.67148 15.0418 7.803 15.3818 7.85264L20.5478 8.60864C20.6457 8.62283 20.7376 8.66412 20.8133 8.72784C20.8889 8.79157 20.9452 8.87519 20.9758 8.96925C21.0064 9.06331 21.0101 9.16405 20.9864 9.26008C20.9627 9.35611 20.9126 9.4436 20.8418 9.51264L17.1058 13.1506C16.8592 13.3906 16.6747 13.687 16.5683 14.0142C16.4618 14.3413 16.4366 14.6895 16.4948 15.0286L17.3768 20.1686C17.3941 20.2665 17.3835 20.3672 17.3463 20.4593C17.3091 20.5514 17.2467 20.6313 17.1663 20.6896C17.086 20.748 16.9908 20.7826 16.8917 20.7895C16.7926 20.7964 16.6935 20.7753 16.6058 20.7286L11.9878 18.3006C11.6836 18.1407 11.345 18.0571 11.0013 18.0571C10.6576 18.0571 10.319 18.1407 10.0148 18.3006L5.3978 20.7286C5.31013 20.7751 5.2112 20.7959 5.11225 20.7889C5.0133 20.7819 4.91832 20.7472 4.83809 20.6889C4.75787 20.6305 4.69563 20.5508 4.65846 20.4589C4.62128 20.3669 4.61066 20.2663 4.6278 20.1686L5.5088 15.0296C5.56717 14.6904 5.54204 14.342 5.43559 14.0146C5.32913 13.6872 5.14455 13.3907 4.8978 13.1506L1.1618 9.51364C1.09039 9.44468 1.03979 9.35704 1.01576 9.26072C0.991731 9.1644 0.995237 9.06326 1.02588 8.96883C1.05652 8.87441 1.11307 8.79049 1.18908 8.72663C1.26509 8.66277 1.3575 8.62154 1.4558 8.60764L6.6208 7.85264C6.96111 7.80331 7.28432 7.67193 7.56254 7.46984C7.84076 7.26775 8.06564 7.00102 8.2178 6.69264L10.5268 2.01364Z" stroke="white" stroke-width="2" stroke-linecap="round" stroke-linejoin="round"/>
</svg>
