<svg width="24" height="25" viewBox="0 0 24 25" fill="none" xmlns="http://www.w3.org/2000/svg">
<path d="M2 22.4238C2 20.3021 2.84285 18.2673 4.34315 16.767C5.84344 15.2667 7.87827 14.4238 10 14.4238C12.1217 14.4238 14.1566 15.2667 15.6569 16.767C17.1571 18.2673 18 20.3021 18 22.4238H16C16 20.8325 15.3679 19.3064 14.2426 18.1812C13.1174 17.056 11.5913 16.4238 10 16.4238C8.4087 16.4238 6.88258 17.056 5.75736 18.1812C4.63214 19.3064 4 20.8325 4 22.4238H2ZM10 13.4238C6.685 13.4238 4 10.7388 4 7.42383C4 4.10883 6.685 1.42383 10 1.42383C13.315 1.42383 16 4.10883 16 7.42383C16 10.7388 13.315 13.4238 10 13.4238ZM10 11.4238C12.21 11.4238 14 9.63383 14 7.42383C14 5.21383 12.21 3.42383 10 3.42383C7.79 3.42383 6 5.21383 6 7.42383C6 9.63383 7.79 11.4238 10 11.4238ZM18.284 15.1268C19.6895 15.7595 20.8823 16.7848 21.7189 18.0793C22.5555 19.3738 23.0004 20.8825 23 22.4238H21C21.0004 21.2678 20.6667 20.1362 20.0392 19.1653C19.4118 18.1944 18.5172 17.4254 17.463 16.9508L18.284 15.1268ZM17.596 3.83683C18.6035 4.25213 19.465 4.95737 20.071 5.86306C20.6771 6.76875 21.0004 7.83407 21 8.92383C21.0002 10.2961 20.4874 11.6189 19.5623 12.6324C18.6372 13.646 17.3666 14.2771 16 14.4018V12.3888C16.7409 12.2827 17.4283 11.9418 17.9613 11.4163C18.4943 10.8907 18.8447 10.2081 18.9612 9.46876C19.0776 8.72937 18.954 7.97213 18.6084 7.30818C18.2628 6.64424 17.7134 6.10857 17.041 5.77983L17.596 3.83683Z" fill="#434343"/>
</svg>
