<svg width="24" height="25" viewBox="0 0 24 25" fill="none" xmlns="http://www.w3.org/2000/svg">
<path d="M4.3945 4.3457C4.14231 4.3457 3.81475 4.46242 3.34647 4.76603C3.53237 4.9855 3.7293 5.22011 4.1185 5.66866C4.38953 5.98098 4.66309 6.29162 4.86972 6.51653C4.8715 6.5185 4.8723 6.51911 4.87403 6.52103L6.32219 5.68047L5.63537 5.01728C5.10606 4.57647 4.76144 4.36731 4.44391 4.3473C4.42744 4.34625 4.411 4.34572 4.3945 4.3457ZM10.0233 5.05267C9.98195 5.05222 9.94065 5.05238 9.89936 5.05314C9.40905 5.06219 8.95248 5.15767 8.64583 5.30739L5.49292 7.1373C5.60777 7.1628 5.72191 7.19336 5.8345 7.23198C6.64427 7.50962 7.38573 8.08619 8.158 8.85855L18.3036 18.8664L22.0995 16.7836L12.119 5.749C11.7133 5.3815 11.0648 5.14394 10.399 5.07428C10.2742 5.06131 10.1487 5.05412 10.0232 5.05272L10.0233 5.05267ZM2.72772 5.344C1.90539 6.31539 1.7635 7.08709 2.00931 8.01606C2.04175 8.13878 2.15261 8.31405 2.30805 8.50684C2.41395 8.35521 2.52472 8.20704 2.6402 8.06256C2.82723 7.82842 3.03325 7.63211 3.25356 7.47391L3.24859 7.46453L3.37834 7.38906C3.44125 7.34894 3.50584 7.31151 3.57194 7.27689L4.12825 6.95392C3.91016 6.71198 3.69447 6.46787 3.48123 6.22164C3.22869 5.93028 2.97749 5.63773 2.72772 5.344ZM11.3571 5.97391L14.0953 8.86469C11.935 8.62858 11.4333 9.48344 10.8596 10.4678L8.17211 7.68794L11.3571 5.97391ZM4.861 7.89822C4.82741 7.89745 4.79381 7.89748 4.76022 7.89831C4.43322 7.90675 4.09427 7.99478 3.71716 8.17417C3.57489 8.28152 3.43637 8.41773 3.2995 8.58911C2.09153 10.1015 1.87216 11.3611 2.10494 12.5021C2.33772 13.6431 3.06756 14.6891 3.88225 15.6172C4.50634 16.3282 5.23506 16.7418 6.15438 16.9264C7.07378 17.1111 8.19053 17.0533 9.52844 16.7635C11.0868 16.426 12.6227 17.1582 14.0195 18.0603C15.2438 18.851 16.395 19.7989 17.3467 20.4017L17.7587 19.5141L7.5625 9.45616L7.56147 9.45512C6.83378 8.72744 6.17561 8.24083 5.56075 8.03003C5.32544 7.94931 5.09552 7.90375 4.861 7.89822ZM22.0679 17.7633L18.6249 19.6526L18.1337 20.7104L21.454 18.91L22.0678 17.7634L22.0679 17.7633Z" fill="#2C2C2C"/>
</svg>
