<svg width="20" height="10" viewBox="0 0 20 10" fill="none" xmlns="http://www.w3.org/2000/svg">
<path d="M8.01996 9.88503C6.67329 9.88503 5.52229 9.40736 4.56696 8.45202C3.61162 7.49669 3.13396 6.34602 3.13396 5.00002C3.13396 4.76936 3.15196 4.53902 3.18796 4.30902C3.22396 4.07836 3.26496 3.89069 3.31096 3.74603C3.24096 3.77936 3.16662 3.79802 3.08796 3.80202C3.00929 3.80602 2.93829 3.80802 2.87496 3.80802C2.33496 3.80802 1.88429 3.62569 1.52296 3.26102C1.16162 2.89636 0.980957 2.45036 0.980957 1.92303C0.980957 1.39569 1.15562 0.949692 1.50496 0.585025C1.85429 0.220358 2.29562 0.0380249 2.82896 0.0380249C3.28896 0.0380249 3.69196 0.173025 4.03796 0.443025C4.38396 0.713025 4.59696 1.05136 4.67696 1.45802C5.09896 1.03469 5.60962 0.705025 6.20896 0.469025C6.80829 0.233025 7.41162 0.115025 8.01896 0.115025H19.019V2.11502H12.904V5.00002C12.904 6.35669 12.429 7.51002 11.479 8.46002C10.5296 9.41002 9.37629 9.88503 8.01896 9.88503M2.86596 2.92303C3.14929 2.92303 3.38662 2.82736 3.57796 2.63602C3.76929 2.44469 3.86529 2.20703 3.86596 1.92303C3.86662 1.63903 3.77062 1.40169 3.57796 1.21103C3.38529 1.02036 3.14796 0.924358 2.86596 0.923025C2.58396 0.921692 2.34629 1.01769 2.15296 1.21103C1.95962 1.40436 1.86396 1.64169 1.86596 1.92303C1.86796 2.20436 1.96362 2.44202 2.15296 2.63602C2.34229 2.83002 2.57996 2.92569 2.86596 2.92303ZM8.02196 8.76902C9.06396 8.76902 9.95229 8.40102 10.687 7.66502C11.4216 6.92902 11.789 6.03969 11.789 4.99702C11.789 3.95436 11.4206 3.06636 10.684 2.33302C9.94729 1.59969 9.05829 1.23236 8.01696 1.23102C6.97562 1.22969 6.08729 1.59803 5.35196 2.33603C4.61662 3.07403 4.24929 3.96303 4.24996 5.00303C4.25062 6.04303 4.61896 6.93102 5.35496 7.66702C6.09096 8.40302 6.97996 8.77036 8.02196 8.76902ZM8.02196 6.61602C8.46796 6.61602 8.84796 6.45736 9.16196 6.14003C9.47662 5.82269 9.63396 5.44136 9.63396 4.99603C9.63396 4.55069 9.47562 4.17069 9.15896 3.85602C8.84229 3.54136 8.46129 3.38402 8.01596 3.38402C7.57062 3.38402 7.19062 3.54269 6.87596 3.86002C6.56129 4.17736 6.40396 4.55836 6.40396 5.00303C6.40396 5.44769 6.56229 5.82769 6.87896 6.14302C7.19562 6.45836 7.57696 6.61569 8.02296 6.61502" fill="url(#paint0_linear_677_12993)"/>
<defs>
<linearGradient id="paint0_linear_677_12993" x1="9.99996" y1="0.0380249" x2="9.99996" y2="9.88503" gradientUnits="userSpaceOnUse">
<stop stop-color="#008751"/>
<stop offset="1" stop-color="#007345"/>
</linearGradient>
</defs>
</svg>
