<svg width="22" height="25" viewBox="0 0 22 25" fill="none" xmlns="http://www.w3.org/2000/svg">
<g clip-path="url(#clip0_663_8258)">
<path d="M3.5 1.7793C1.84531 1.7793 0.5 3.12461 0.5 4.7793V19.7793C0.5 21.434 1.84531 22.7793 3.5 22.7793H18.5C20.1547 22.7793 21.5 21.434 21.5 19.7793V4.7793C21.5 3.12461 20.1547 1.7793 18.5 1.7793H3.5ZM17.4266 5.7168L12.5609 11.2762L18.2844 18.8418H13.8031L10.2969 14.2527L6.27969 18.8418H4.05313L9.25625 12.8934L3.76719 5.7168H8.36094L11.5344 9.91211L15.2 5.7168H17.4266ZM15.6547 17.5105L7.69062 6.97773H6.36406L14.4172 17.5105H15.65H15.6547Z" fill="#5A5A5A"/>
</g>
<defs>
<clipPath id="clip0_663_8258">
<rect width="21" height="24" fill="white" transform="translate(0.5 0.279297)"/>
</clipPath>
</defs>
</svg>
